<svg width="60" height="60" viewBox="0 0 60 60" fill="none" xmlns="http://www.w3.org/2000/svg">
    <circle cx="30" cy="30" r="30" fill="#F7F8FE"/>
    <path d="M23.1059 37.3801C23.1059 37.7943 23.4416 38.1301 23.8559 38.1301C24.2701 38.1301 24.6059 37.7943 24.6059 37.3801H23.1059ZM24.6059 34.8961C24.6059 34.4819 24.2701 34.1461 23.8559 34.1461C23.4416 34.1461 23.1059 34.4819 23.1059 34.8961H24.6059ZM29.25 37.38C29.25 37.7942 29.5858 38.13 30 38.13C30.4142 38.13 30.75 37.7942 30.75 37.38H29.25ZM30.75 32.412C30.75 31.9978 30.4142 31.662 30 31.662C29.5858 31.662 29.25 31.9978 29.25 32.412H30.75ZM35.3941 37.3799C35.3941 37.7941 35.7299 38.1299 36.1441 38.1299C36.5584 38.1299 36.8941 37.7941 36.8941 37.3799H35.3941ZM36.8941 29.9159C36.8941 29.5017 36.5584 29.1659 36.1441 29.1659C35.7299 29.1659 35.3941 29.5017 35.3941 29.9159H36.8941ZM36.1439 22.6201L36.8939 22.6201L36.8938 21.8701H36.1439V22.6201ZM35.5919 23.2681L36.1617 23.7557L36.1628 23.7545L35.5919 23.2681ZM23.6744 29.7884C23.2725 29.8886 23.0279 30.2957 23.1281 30.6976C23.2284 31.0995 23.6354 31.3441 24.0373 31.2438L23.6744 29.7884ZM32.6279 21.8701C32.2137 21.8701 31.8779 22.2059 31.8779 22.6201C31.8779 23.0343 32.2137 23.3701 32.6279 23.3701V21.8701ZM35.3939 26.1241C35.3939 26.5383 35.7297 26.8741 36.1439 26.8741C36.5582 26.8741 36.8939 26.5383 36.8939 26.1241L35.3939 26.1241ZM24.6059 37.3801V34.8961H23.1059V37.3801H24.6059ZM30.75 37.38V32.412H29.25V37.38H30.75ZM36.8941 37.3799V29.9159H35.3941V37.3799H36.8941ZM35.5729 22.1338L35.0209 22.7818L36.1628 23.7545L36.7148 23.1065L35.5729 22.1338ZM35.022 22.7805C32.0637 26.2376 28.0957 28.686 23.6744 29.7884L24.0373 31.2438C28.76 30.0663 33 27.4506 36.1617 23.7557L35.022 22.7805ZM32.6279 23.3701H36.1439V21.8701H32.6279V23.3701ZM35.3939 22.6201L35.3939 26.1241L36.8939 26.1241L36.8939 22.6201L35.3939 22.6201ZM26.4 42.75H33.6V41.25H26.4V42.75ZM33.6 42.75C36.674 42.75 39.0209 42.1398 40.5803 40.5803C42.1398 39.0209 42.75 36.674 42.75 33.6H41.25C41.25 36.526 40.6602 38.3791 39.5197 39.5197C38.3791 40.6602 36.526 41.25 33.6 41.25V42.75ZM42.75 33.6V26.4H41.25V33.6H42.75ZM42.75 26.4C42.75 23.326 42.1398 20.9791 40.5803 19.4197C39.0209 17.8602 36.674 17.25 33.6 17.25V18.75C36.526 18.75 38.3791 19.3398 39.5197 20.4803C40.6602 21.6209 41.25 23.474 41.25 26.4H42.75ZM33.6 17.25H26.4V18.75H33.6V17.25ZM26.4 17.25C23.326 17.25 20.9791 17.8602 19.4197 19.4197C17.8602 20.9791 17.25 23.326 17.25 26.4H18.75C18.75 23.474 19.3398 21.6209 20.4803 20.4803C21.6209 19.3398 23.474 18.75 26.4 18.75V17.25ZM17.25 26.4V33.6H18.75V26.4H17.25ZM17.25 33.6C17.25 36.674 17.8602 39.0209 19.4197 40.5803C20.9791 42.1398 23.326 42.75 26.4 42.75V41.25C23.474 41.25 21.6209 40.6602 20.4803 39.5197C19.3398 38.3791 18.75 36.526 18.75 33.6H17.25Z" fill="#7758F6"/>
</svg>
