<svg width="60" height="60" viewBox="0 0 60 60" fill="none" xmlns="http://www.w3.org/2000/svg">
    <circle cx="30" cy="30" r="30" fill="white" fill-opacity="0.1"/>
    <path d="M43 30.5C43 23.6 37.4 18 30.5 18C23.6 18 18 23.6 18 30.5C18 37.4 23.6 43 30.5 43M25.5 19.25H26.75C24.3125 26.55 24.3125 34.45 26.75 41.75H25.5M34.25 19.25C35.4625 22.9 36.075 26.7 36.075 30.5M19.25 35.5V34.25C22.9 35.4625 26.7 36.075 30.5 36.075M19.25 26.75C26.55 24.3125 34.45 24.3125 41.75 26.75M43 43L41.75 41.75M42.25 38.25C42.25 40.4592 40.4591 42.25 38.25 42.25C36.0409 42.25 34.25 40.4592 34.25 38.25C34.25 36.0409 36.0409 34.25 38.25 34.25C40.4591 34.25 42.25 36.0409 42.25 38.25Z" stroke="white" stroke-width="1.5" stroke-linecap="round" stroke-linejoin="round"/>
</svg>
