<svg width="60" height="60" viewBox="0 0 60 60" fill="none" xmlns="http://www.w3.org/2000/svg">
    <circle cx="30" cy="30" r="30" fill="white" fill-opacity="0.1"/>
    <path d="M43 28.3751V34.6251C43 39.0001 40.5 40.8751 36.75 40.8751H24.25C20.5 40.8751 18 39.0001 18 34.6251V25.8751C18 21.5001 20.5 19.6251 24.25 19.6251H33M24.25 26.5001L28.1625 29.6251C29.45 30.6501 31.5625 30.6501 32.85 29.6251L34.325 28.4501M43 22.1251C43 23.851 41.6009 25.2501 39.875 25.2501C38.1491 25.2501 36.75 23.851 36.75 22.1251C36.75 20.3992 38.1491 19.0001 39.875 19.0001C41.6009 19.0001 43 20.3992 43 22.1251Z" stroke="white" stroke-width="1.5" stroke-miterlimit="10" stroke-linecap="round" stroke-linejoin="round"/>
</svg>
