<svg width="18" height="18" viewBox="0 0 18 18" fill="none" xmlns="http://www.w3.org/2000/svg">
    <path d="M11.4757 7.81407L9.79828 8.72977C9.76196 8.75086 9.7195 8.75885 9.678 8.75242C9.6365 8.74598 9.59845 8.72551 9.57021 8.69442L8.59521 7.66013C8.58156 7.64552 8.56505 7.63388 8.54671 7.62592C8.52837 7.61796 8.50859 7.61385 8.48859 7.61385C8.4686 7.61385 8.44882 7.61796 8.43048 7.62592C8.41213 7.63388 8.39563 7.64552 8.38197 7.66013L6.36241 9.79828C6.35261 9.8098 6.34705 9.82434 6.34667 9.83946C6.34629 9.85458 6.3511 9.86937 6.3603 9.88138C6.3695 9.89338 6.38254 9.90187 6.39724 9.90543C6.41195 9.90898 6.42742 9.90739 6.44109 9.90092L8.15162 8.97951C8.18703 8.96049 8.22768 8.95355 8.2674 8.95972C8.30712 8.96589 8.34374 8.98485 8.37171 9.01372L9.34214 10.0332C9.35579 10.0476 9.37223 10.0591 9.39046 10.067C9.4087 10.0748 9.42834 10.0789 9.4482 10.0789C9.46805 10.0789 9.4877 10.0748 9.50593 10.067C9.52417 10.0591 9.54061 10.0476 9.55425 10.0332L11.5544 7.91671C11.5661 7.90566 11.5733 7.89067 11.5746 7.87463C11.5759 7.85859 11.5712 7.84264 11.5614 7.82987C11.5516 7.8171 11.5374 7.80842 11.5216 7.8055C11.5058 7.80258 11.4894 7.80563 11.4757 7.81407Z" fill="white"/>
    <path d="M9.00004 0.333374C7.28594 0.333374 5.61033 0.841665 4.1851 1.79397C2.75988 2.74628 1.64905 4.09982 0.993088 5.68345C0.337129 7.26708 0.1655 9.00965 0.499905 10.6908C0.834311 12.372 1.65973 13.9162 2.87179 15.1283C4.08384 16.3404 5.62809 17.1658 7.30926 17.5002C8.99043 17.8346 10.733 17.663 12.3166 17.007C13.9003 16.351 15.2538 15.2402 16.2061 13.815C17.1584 12.3898 17.6667 10.7141 17.6667 9.00004C17.6667 6.7015 16.7536 4.4971 15.1283 2.87178C13.503 1.24647 11.2986 0.333374 9.00004 0.333374ZM9.00004 12.8989C8.57426 12.8995 8.15024 12.8443 7.73881 12.7347L6.31452 13.5432C6.29854 13.5523 6.28047 13.5571 6.26208 13.5571C6.2437 13.5571 6.22562 13.5523 6.20964 13.5432C6.19365 13.5342 6.1803 13.5211 6.1709 13.5053C6.1615 13.4895 6.15637 13.4715 6.15601 13.4531L6.13776 11.965C5.61634 11.5872 5.19093 11.0923 4.8958 10.5201C4.60068 9.94786 4.44408 9.31431 4.43864 8.67048C4.43864 6.33504 6.48101 4.43864 9.00004 4.43864C11.5191 4.43864 13.5614 6.33162 13.5614 8.66706C13.5614 11.0025 11.5191 12.8989 9.00004 12.8989Z" fill="white"/>
</svg>
