<svg width="70" height="70" viewBox="0 0 70 70" fill="none" xmlns="http://www.w3.org/2000/svg">
    <circle cx="35" cy="35" r="35" fill="#7758F6"/>
    <path d="M28.6698 26V24.8C28.6698 22.145 28.6698 20 33.494 20H35.9061C40.7303 20 40.7303 22.145 40.7303 24.8V26M37.7152 38.03C37.7152 38.015 37.7152 38.015 37.7152 38V36.5C37.7152 35 37.7152 35 36.2076 35H33.1925C31.6849 35 31.6849 35 31.6849 36.5V38.045M37.7152 38.03C37.7152 39.665 37.7001 41 34.7001 41C31.7151 41 31.6849 39.68 31.6849 38.045M37.7152 38.03C41.7856 37.52 45.7656 36.02 49.2481 33.5M31.6849 38.045C27.7803 37.61 23.9511 36.215 20.5591 33.905M28.6697 50H40.7303C46.7907 50 47.8761 47.585 48.1927 44.645L49.3234 32.645C49.7305 28.985 48.6752 26 42.2378 26H27.1622C20.7248 26 19.6695 28.985 20.0766 32.645L21.2073 44.645C21.5239 47.585 22.6093 50 28.6697 50Z" stroke="white" stroke-width="1.5" stroke-miterlimit="10" stroke-linecap="round" stroke-linejoin="round"/>
</svg>
