<svg width="60" height="60" viewBox="0 0 60 60" fill="none" xmlns="http://www.w3.org/2000/svg">
    <circle cx="30" cy="30" r="30" fill="#F7F8FE"/>
    <path d="M31.9329 28.016C33.0689 28.352 33.9889 28.944 34.6929 29.792C35.4129 30.624 35.7729 31.632 35.7729 32.816C35.7729 34.544 35.1889 35.896 34.0209 36.872C32.8689 37.848 31.4529 38.336 29.7729 38.336C28.4609 38.336 27.2849 38.04 26.2449 37.448C25.2209 36.84 24.4769 35.952 24.0129 34.784L26.8449 33.152C27.2609 34.448 28.2369 35.096 29.7729 35.096C30.6209 35.096 31.2769 34.896 31.7409 34.496C32.2209 34.08 32.4609 33.52 32.4609 32.816C32.4609 32.128 32.2209 31.576 31.7409 31.16C31.2769 30.744 30.6209 30.536 29.7729 30.536H29.0529L27.7809 28.616L31.0929 24.296H24.5169V21.2H35.0769V23.936L31.9329 28.016Z" fill="#7758F6"/>
</svg>
