<svg width="60" height="60" viewBox="0 0 60 60" fill="none" xmlns="http://www.w3.org/2000/svg">
    <circle cx="30" cy="30" r="30" fill="#F7F8FE"/>
    <path d="M30.1458 27.32C31.7618 27.32 33.1218 27.808 34.2258 28.784C35.3298 29.744 35.8818 31.088 35.8818 32.816C35.8818 34.544 35.2978 35.896 34.1298 36.872C32.9778 37.848 31.5618 38.336 29.8818 38.336C28.5218 38.336 27.3218 38.032 26.2818 37.424C25.2418 36.816 24.4898 35.92 24.0258 34.736L26.8578 33.08C27.2738 34.424 28.2818 35.096 29.8818 35.096C30.7298 35.096 31.3858 34.896 31.8498 34.496C32.3298 34.08 32.5698 33.52 32.5698 32.816C32.5698 32.128 32.3378 31.576 31.8738 31.16C31.4098 30.744 30.7778 30.536 29.9778 30.536H24.8898L25.5618 21.2H35.0898V24.296H28.6338L28.4178 27.32H30.1458Z" fill="#7758F6"/>
</svg>
