<svg width="223" height="130" viewBox="0 0 223 130" fill="none" xmlns="http://www.w3.org/2000/svg">
    <path fill-rule="evenodd" clip-rule="evenodd" d="M119.291 50.2857C119.291 50.2857 117.933 49.3734 117.089 49.0247C117.089 49.0247 114.494 47.7206 113.976 47.0949C113.976 47.0949 112.959 46.0583 113.554 44.8594C113.554 44.8594 113.808 44.0712 114.878 44.0712C114.878 44.0712 116.269 44.1572 116.269 45.3991V47.1474H121.267L121.257 44.5632C121.257 44.5632 121.641 40.3453 115.372 40.159C115.372 40.159 110.441 39.8103 109.026 42.6859C109.026 42.6859 108.47 43.326 108.47 45.5615V47.1761C108.47 47.1761 108.417 49.0438 109.295 50.2427C109.295 50.2427 109.794 51.0309 111.012 51.9003C111.012 51.9003 113.492 53.3476 114.983 54.1788C114.983 54.1788 116.489 55.1102 116.288 56.5863C116.288 56.5863 116.168 58.1053 114.72 58.0432C114.72 58.0432 113.391 57.9763 113.391 56.4859V54.7377H108.067V57.2837C108.067 57.2837 107.918 62.1416 114.763 62.1416C114.763 62.1416 121.295 62.2849 121.602 57.1595V55.0864C121.598 55.0864 121.828 51.9433 119.291 50.2857Z" fill="#B8BBC4"/>
    <path fill-rule="evenodd" clip-rule="evenodd" d="M95.8509 40.7705L94.177 52.1248H93.7837L92.1865 40.8708H83.8409L83.4236 61.4251H88.3638L88.4214 45.9437H88.8099L91.4287 61.4251H96.6279L99.2179 45.9484H99.5632L99.6784 61.4251H104.647L104.115 40.7705H95.8509Z" fill="#B8BBC4"/>
    <path fill-rule="evenodd" clip-rule="evenodd" d="M67.5046 40.8612L64.2143 61.406H69.5334L71.4807 45.4756H71.9172L73.8645 61.406H79.1836L75.8934 40.8612H67.5046Z" fill="#B8BBC4"/>
    <path fill-rule="evenodd" clip-rule="evenodd" d="M170.573 50.0087V53.0371H171.935V56.2901C171.935 57.876 170.678 57.9094 170.678 57.9094C169.148 57.9094 169.206 56.4 169.206 56.4V45.1412C169.206 43.9804 170.563 43.9183 170.563 43.9183C171.863 43.9183 171.873 45.3036 171.873 45.3036V47.0184H176.88C177.048 43.6795 176.434 42.8674 176.434 42.8674C175.192 39.8438 170.491 40.0014 170.491 40.0014C163.263 40.0014 164.064 46.0105 164.064 46.0105V56.8967C164.218 62.519 171.34 61.9505 171.46 61.9505C174.631 61.5636 175.58 60.4745 175.58 60.4745C176.463 59.7676 176.683 58.7931 176.683 58.7931C176.938 58.2151 177 56.4047 177 56.4047V50.0087H170.573Z" fill="#B8BBC4"/>
    <path fill-rule="evenodd" clip-rule="evenodd" d="M155.038 53.3476H154.822L149.738 40.7705H143.656V61.4346H148.611L148.308 48.867H148.529L153.795 61.4346H159.695V40.7705H154.683L155.038 53.3476Z" fill="#B8BBC4"/>
    <path fill-rule="evenodd" clip-rule="evenodd" d="M133.713 56.2901C133.713 56.2901 133.79 57.9811 132.332 57.9811C132.332 57.9811 130.807 58.0766 130.807 56.3235L130.792 40.7848H125.363V56.1993C125.363 56.1993 124.806 62.0413 132.409 62.0413C132.409 62.0413 139.023 62.1225 139.023 56.4764V40.7848H133.713V56.2901Z" fill="#B8BBC4"/>
    <path fill-rule="evenodd" clip-rule="evenodd" d="M58.2237 50.2857C58.2237 50.2857 56.8663 49.3734 56.0222 49.0247C56.0222 49.0247 53.4273 47.7206 52.9093 47.0949C52.9093 47.0949 51.8973 46.0583 52.4921 44.8594C52.4921 44.8594 52.7367 44.0712 53.811 44.0712C53.811 44.0712 55.202 44.1572 55.202 45.3991V47.1474H60.1998L60.1902 44.5727C60.1902 44.5727 60.5739 40.3549 54.3051 40.1686C54.3051 40.1686 53.835 40.1352 53.1396 40.1734C53.1396 40.1734 49.3457 40.3931 47.9883 42.6525C47.9787 42.6621 47.9691 42.6716 47.9595 42.6907C47.9595 42.6907 47.4079 43.3308 47.4079 45.5663V47.1808C47.4079 47.1808 47.3504 49.0438 48.2281 50.2475C48.2281 50.2475 48.7269 51.0357 49.9452 51.905C49.9452 51.905 52.4249 53.3524 53.9214 54.1835C53.9214 54.1835 55.4226 55.115 55.2308 56.591C55.2308 56.591 55.1061 58.11 53.6528 58.0479C53.6528 58.0479 52.3242 57.9811 52.3242 56.4907V54.7424H47.0003V57.2884C47.0003 57.2884 46.8516 62.1464 53.6959 62.1464C53.6959 62.1464 60.2285 62.2897 60.5355 57.1642V55.0911C60.5307 55.0864 60.7609 51.9433 58.2237 50.2857Z" fill="#B8BBC4"/>
    <path d="M105.084 76.0992H105.141C105.966 74.7809 107.084 74.6471 108.647 74.6471C110.12 74.6471 111.3 75.0149 111.976 76.1852C112.95 74.8955 114.125 74.6471 115.832 74.6471C117.808 74.6471 119.545 75.8222 119.545 77.8762V89.7559H115.391V80.6133C115.391 79.2949 115.156 78.2679 113.832 78.2679C112.509 78.2679 112.274 79.2949 112.274 80.6133V89.7559H108.206V80.6133C108.206 79.2949 107.971 78.2679 106.647 78.2679C105.324 78.2679 105.089 79.2949 105.089 80.6133V89.7559H100.935V74.9433H105.089V76.0992H105.084Z" fill="#B8BBC4"/>
    <path d="M121.43 82.1609C121.43 78.115 122.02 74.6519 127.497 74.6519C132.974 74.6519 133.564 78.115 133.564 82.1609C133.564 86.7944 132.859 90.0521 127.497 90.0521C122.14 90.0521 121.43 86.7944 121.43 82.1609ZM129.416 81.9269C129.416 78.8459 129.267 77.2934 127.502 77.2934C125.737 77.2934 125.588 78.8459 125.588 81.9269C125.588 86.4457 125.972 87.4106 127.502 87.4106C129.032 87.4106 129.416 86.4409 129.416 81.9269Z" fill="#B8BBC4"/>
    <path d="M154.275 68.5806V72.9036H150.121V68.5806H154.275ZM154.275 89.7559H150.121V74.9433H154.275V89.7559Z" fill="#B8BBC4"/>
    <path d="M161.728 68.5806V89.7607H157.575V68.5806H161.728Z" fill="#B8BBC4"/>
    <path d="M168.506 83.0112C168.506 84.769 168.563 87.4106 170.391 87.4106C171.863 87.4106 172.156 86.0014 172.156 84.769H176.367C176.309 86.3836 175.777 87.7019 174.774 88.6143C173.801 89.5219 172.328 90.0521 170.386 90.0521C165.024 90.0521 164.318 86.7944 164.318 82.1609C164.318 78.115 164.908 74.6519 170.386 74.6519C175.983 74.6519 176.602 78.2583 176.453 83.0112H168.506ZM172.304 80.6945C172.304 79.2567 172.362 77.2027 170.391 77.2027C168.477 77.2027 168.506 79.4334 168.506 80.6945H172.304Z" fill="#B8BBC4"/>
    <path d="M141.857 74.7379C141.123 74.7379 140.486 74.8047 139.915 74.9242L139.972 68.8481H135.819V80.8903C135.8 81.3345 135.79 81.7883 135.79 82.2517C135.79 82.5192 135.795 82.7771 135.8 83.0351C135.8 83.1306 135.804 83.2261 135.809 83.3169C135.814 83.4697 135.819 83.6274 135.828 83.7755C135.833 83.8949 135.843 84.0143 135.852 84.1337C135.862 84.2531 135.871 84.3678 135.881 84.4824C135.891 84.6162 135.905 84.7451 135.919 84.8741C135.929 84.9649 135.943 85.0556 135.953 85.1416C135.972 85.2849 135.991 85.4282 136.015 85.5667C136.025 85.6193 136.035 85.6718 136.044 85.7244C136.183 86.4648 136.389 87.1287 136.701 87.7067C136.706 87.7211 136.716 87.7306 136.72 87.7449C136.797 87.8882 136.883 88.022 136.975 88.1557C136.984 88.1653 136.989 88.1796 136.999 88.1892C137.589 89.0155 138.457 89.6079 139.723 89.9088C139.728 89.9088 139.728 89.9088 139.733 89.9136C140.346 90.0569 141.042 90.1429 141.862 90.1429C147.224 90.1429 147.929 86.8851 147.929 82.2517C147.925 78.201 147.335 74.7379 141.857 74.7379ZM141.857 87.4965C140.327 87.4965 139.944 86.5269 139.944 82.0128C139.944 78.9318 140.092 77.3794 141.857 77.3794C143.622 77.3794 143.771 78.9318 143.771 82.0128C143.771 86.5316 143.387 87.4965 141.857 87.4965Z" fill="#B8BBC4"/>
</svg>
