<svg width="223" height="130" viewBox="0 0 223 130" fill="none" xmlns="http://www.w3.org/2000/svg">
    <g clip-path="url(#clip0_1_750)">
        <path fill-rule="evenodd" clip-rule="evenodd" d="M119.291 50.2838C119.291 50.2838 117.933 49.3714 117.089 49.0227C117.089 49.0227 114.494 47.7187 113.976 47.0929C113.976 47.0929 112.959 46.0564 113.554 44.8574C113.554 44.8574 113.808 44.0692 114.878 44.0692C114.878 44.0692 116.269 44.1552 116.269 45.3972V47.1455H121.267L121.257 44.5612C121.257 44.5612 121.641 40.3434 115.372 40.1571C115.372 40.1571 110.441 39.8084 109.026 42.684C109.026 42.684 108.47 43.3241 108.47 45.5596V47.1741C108.47 47.1741 108.417 49.0418 109.295 50.2408C109.295 50.2408 109.794 51.0289 111.012 51.8983C111.012 51.8983 113.492 53.3457 114.983 54.1768C114.983 54.1768 116.489 55.1083 116.288 56.5843C116.288 56.5843 116.168 58.1033 114.72 58.0412C114.72 58.0412 113.391 57.9743 113.391 56.484V54.7357H108.067V57.2817C108.067 57.2817 107.918 62.1396 114.763 62.1396C114.763 62.1396 121.295 62.2829 121.602 57.1575V55.0844C121.598 55.0844 121.828 51.9413 119.291 50.2838Z" fill="#B8BBC4"/>
        <path fill-rule="evenodd" clip-rule="evenodd" d="M95.8509 40.7685L94.177 52.1228H93.7837L92.1865 40.8688H83.8409L83.4236 61.4231H88.3638L88.4214 45.9417H88.8099L91.4287 61.4231H96.6279L99.2179 45.9465H99.5632L99.6784 61.4231H104.647L104.115 40.7685H95.8509Z" fill="#B8BBC4"/>
        <path fill-rule="evenodd" clip-rule="evenodd" d="M67.5046 40.8593L64.2143 61.404H69.5334L71.4807 45.4736H71.9172L73.8645 61.404H79.1836L75.8934 40.8593H67.5046Z" fill="#B8BBC4"/>
        <path fill-rule="evenodd" clip-rule="evenodd" d="M170.573 50.0067V53.0352H171.935V56.2881C171.935 57.874 170.678 57.9075 170.678 57.9075C169.148 57.9075 169.206 56.398 169.206 56.398V45.1392C169.206 43.9785 170.563 43.9164 170.563 43.9164C171.863 43.9164 171.873 45.3016 171.873 45.3016V47.0165H176.88C177.048 43.6775 176.434 42.8655 176.434 42.8655C175.192 39.8418 170.491 39.9995 170.491 39.9995C163.263 39.9995 164.064 46.0086 164.064 46.0086V56.8948C164.218 62.517 171.34 61.9486 171.46 61.9486C174.631 61.5617 175.58 60.4726 175.58 60.4726C176.463 59.7656 176.683 58.7912 176.683 58.7912C176.938 58.2132 177 56.4028 177 56.4028V50.0067H170.573Z" fill="#B8BBC4"/>
        <path fill-rule="evenodd" clip-rule="evenodd" d="M155.038 53.3457H154.822L149.738 40.7685H143.656V61.4327H148.611L148.308 48.8651H148.529L153.795 61.4327H159.695V40.7685H154.683L155.038 53.3457Z" fill="#B8BBC4"/>
        <path fill-rule="evenodd" clip-rule="evenodd" d="M133.713 56.2881C133.713 56.2881 133.79 57.9791 132.332 57.9791C132.332 57.9791 130.807 58.0746 130.807 56.3216L130.792 40.7828H125.363V56.1974C125.363 56.1974 124.806 62.0393 132.409 62.0393C132.409 62.0393 139.023 62.1205 139.023 56.4744V40.7828H133.713V56.2881Z" fill="#B8BBC4"/>
        <path fill-rule="evenodd" clip-rule="evenodd" d="M58.2237 50.2838C58.2237 50.2838 56.8663 49.3714 56.0222 49.0227C56.0222 49.0227 53.4273 47.7187 52.9093 47.0929C52.9093 47.0929 51.8973 46.0564 52.4921 44.8574C52.4921 44.8574 52.7367 44.0692 53.811 44.0692C53.811 44.0692 55.202 44.1552 55.202 45.3972V47.1455H60.1998L60.1902 44.5708C60.1902 44.5708 60.5739 40.3529 54.3051 40.1666C54.3051 40.1666 53.835 40.1332 53.1396 40.1714C53.1396 40.1714 49.3457 40.3911 47.9883 42.6505C47.9787 42.6601 47.9691 42.6697 47.9595 42.6888C47.9595 42.6888 47.4079 43.3288 47.4079 45.5644V47.1789C47.4079 47.1789 47.3504 49.0418 48.2281 50.2456C48.2281 50.2456 48.7269 51.0337 49.9452 51.9031C49.9452 51.9031 52.4249 53.3504 53.9214 54.1816C53.9214 54.1816 55.4226 55.1131 55.2308 56.5891C55.2308 56.5891 55.1061 58.1081 53.6528 58.046C53.6528 58.046 52.3242 57.9791 52.3242 56.4888V54.7405H47.0003V57.2865C47.0003 57.2865 46.8516 62.1444 53.6959 62.1444C53.6959 62.1444 60.2285 62.2877 60.5355 57.1623V55.0892C60.5307 55.0844 60.7609 51.9413 58.2237 50.2838Z" fill="#B8BBC4"/>
        <path d="M105.084 76.0973H105.141C105.966 74.7789 107.084 74.6452 108.647 74.6452C110.12 74.6452 111.3 75.013 111.976 76.1833C112.95 74.8935 114.125 74.6452 115.832 74.6452C117.808 74.6452 119.545 75.8202 119.545 77.8742V89.754H115.391V80.6113C115.391 79.2929 115.156 78.2659 113.832 78.2659C112.509 78.2659 112.274 79.2929 112.274 80.6113V89.754H108.206V80.6113C108.206 79.2929 107.971 78.2659 106.647 78.2659C105.324 78.2659 105.089 79.2929 105.089 80.6113V89.754H100.935V74.9413H105.089V76.0973H105.084Z" fill="#B8BBC4"/>
        <path d="M121.43 82.159C121.43 78.1131 122.02 74.6499 127.497 74.6499C132.974 74.6499 133.564 78.1131 133.564 82.159C133.564 86.7924 132.859 90.0501 127.497 90.0501C122.14 90.0501 121.43 86.7924 121.43 82.159ZM129.416 81.9249C129.416 78.8439 129.267 77.2915 127.502 77.2915C125.737 77.2915 125.588 78.8439 125.588 81.9249C125.588 86.4437 125.972 87.4086 127.502 87.4086C129.032 87.4086 129.416 86.4389 129.416 81.9249Z" fill="#B8BBC4"/>
        <path d="M154.275 68.5787V72.9016H150.121V68.5787H154.275ZM154.275 89.754H150.121V74.9413H154.275V89.754Z" fill="#B8BBC4"/>
        <path d="M161.728 68.5787V89.7588H157.575V68.5787H161.728Z" fill="#B8BBC4"/>
        <path d="M168.506 83.0092C168.506 84.7671 168.563 87.4086 170.391 87.4086C171.863 87.4086 172.156 85.9995 172.156 84.7671H176.367C176.309 86.3816 175.777 87.7 174.774 88.6123C173.801 89.5199 172.328 90.0501 170.386 90.0501C165.024 90.0501 164.318 86.7924 164.318 82.159C164.318 78.1131 164.908 74.6499 170.386 74.6499C175.983 74.6499 176.602 78.2564 176.453 83.0092H168.506ZM172.304 80.6925C172.304 79.2547 172.362 77.2007 170.391 77.2007C168.477 77.2007 168.506 79.4314 168.506 80.6925H172.304Z" fill="#B8BBC4"/>
        <path d="M141.857 74.7359C141.123 74.7359 140.486 74.8028 139.915 74.9222L139.972 68.8462H135.819V80.8884C135.8 81.3326 135.79 81.7864 135.79 82.2497C135.79 82.5172 135.795 82.7752 135.8 83.0331C135.8 83.1286 135.804 83.2242 135.809 83.3149C135.814 83.4678 135.819 83.6254 135.828 83.7735C135.833 83.8929 135.843 84.0123 135.852 84.1318C135.862 84.2512 135.871 84.3658 135.881 84.4805C135.891 84.6142 135.905 84.7432 135.919 84.8722C135.929 84.9629 135.943 85.0537 135.953 85.1397C135.972 85.283 135.991 85.4263 136.015 85.5648C136.025 85.6173 136.035 85.6699 136.044 85.7224C136.183 86.4628 136.389 87.1268 136.701 87.7048C136.706 87.7191 136.716 87.7286 136.72 87.743C136.797 87.8863 136.883 88.02 136.975 88.1538C136.984 88.1633 136.989 88.1777 136.999 88.1872C137.589 89.0136 138.457 89.6059 139.723 89.9068C139.728 89.9068 139.728 89.9068 139.733 89.9116C140.346 90.0549 141.042 90.1409 141.862 90.1409C147.224 90.1409 147.929 86.8832 147.929 82.2497C147.925 78.199 147.335 74.7359 141.857 74.7359ZM141.857 87.4946C140.327 87.4946 139.944 86.5249 139.944 82.0109C139.944 78.9299 140.092 77.3775 141.857 77.3775C143.622 77.3775 143.771 78.9299 143.771 82.0109C143.771 86.5297 143.387 87.4946 141.857 87.4946Z" fill="#B8BBC4"/>
    </g>
    <defs>
        <clipPath id="clip0_1_750">
            <rect width="130" height="50.1429" fill="white" transform="translate(47 40)"/>
        </clipPath>
    </defs>
</svg>
