<svg width="1920" height="1050" viewBox="0 0 1920 1050" fill="none" xmlns="http://www.w3.org/2000/svg">
    <mask id="mask0_0_1" style="mask-type:alpha" maskUnits="userSpaceOnUse" x="0" y="0" width="1920" height="1051">
        <path d="M0 0V739.983C402.667 819.981 1264.2 991.977 1477 1039.98C1689.8 1087.97 1867.33 951.978 1920 877.98V0H0Z" fill="#131416"/>
    </mask>
    <g mask="url(#mask0_0_1)">
        <path d="M0 0V739.983C402.667 819.981 1264.2 991.977 1477 1039.98C1689.8 1087.97 1867.33 951.978 1920 877.98V0H0Z" fill="#131416"/>
        <g opacity="0.5" filter="url(#filter0_f_0_1)">
            <path d="M95.526 75.637C16.3362 7.50164 70.7833 -95.198 107.906 -138.031C-345.737 -18.5649 -97.408 70.3709 -111.558 205.311C-125.709 340.251 142.604 317.554 186.476 261.586C230.347 205.619 194.513 160.806 95.526 75.637Z" fill="#41EAD4"/>
        </g>
        <g opacity="0.5" filter="url(#filter1_f_0_1)">
            <path d="M1763.83 599.637C1843.02 531.502 1788.57 428.802 1751.45 385.969C2205.09 505.435 1956.76 594.371 1970.91 729.311C1985.06 864.251 1716.75 841.554 1672.88 785.586C1629.01 729.619 1664.84 684.806 1763.83 599.637Z" fill="#41EAD4"/>
        </g>
        <g opacity="0.5" filter="url(#filter2_f_0_1)">
            <path d="M1654.25 462.493C1694.41 427.941 1666.8 375.862 1647.97 354.141C1878.02 414.723 1752.09 459.823 1759.26 528.252C1766.44 596.681 1630.38 585.171 1608.13 556.789C1585.88 528.408 1604.05 505.683 1654.25 462.493Z" fill="#7758F6"/>
        </g>
        <g opacity="0.5" filter="url(#filter3_f_0_1)">
            <path d="M139.25 269.493C179.407 234.941 151.797 182.862 132.972 161.141C363.017 221.723 237.088 266.823 244.264 335.252C251.439 403.681 115.376 392.171 93.1286 363.789C70.8812 335.408 89.0527 312.683 139.25 269.493Z" fill="#7758F6"/>
        </g>
        <g opacity="0.1" filter="url(#filter4_f_0_1)">
            <path fill-rule="evenodd" clip-rule="evenodd" d="M1557.14 93.3615C1728.69 71.6232 1900.04 157.336 2008.4 292.104C2117.26 427.5 2158.27 611.473 2107.22 777.535C2059.91 931.457 1913.64 1021.66 1765.05 1083.72C1628.39 1140.79 1479.19 1154.81 1342.96 1096.74C1198.02 1034.96 1057.87 927.201 1032.89 771.638C1009.06 623.207 1137.69 509.731 1229.62 390.787C1324.5 268.027 1403.22 112.866 1557.14 93.3615Z" fill="#7758F6"/>
        </g>
        <g opacity="0.07" filter="url(#filter5_f_0_1)">
            <path fill-rule="evenodd" clip-rule="evenodd" d="M473.627 -59.6597C695.13 -87.728 916.374 22.9437 1056.28 196.955C1196.84 371.775 1249.8 609.319 1183.88 823.737C1122.79 1022.48 933.928 1138.95 742.075 1219.08C565.626 1292.77 372.988 1310.87 197.081 1235.89C9.94395 1156.12 -171.021 1016.98 -203.267 816.122C-234.035 624.47 -67.9548 477.951 50.7462 324.373C173.256 165.866 274.888 -34.4761 473.627 -59.6597Z" fill="#41EAD4"/>
        </g>
        <g opacity="0.15" filter="url(#filter6_f_0_1)">
            <path fill-rule="evenodd" clip-rule="evenodd" d="M306.228 -60.7287C473.253 -81.884 640.083 1.53027 745.579 132.684C851.566 264.448 891.5 443.487 841.799 605.096C795.73 754.889 653.319 842.671 508.652 903.067C375.601 958.613 230.341 972.255 97.6982 915.741C-43.4129 855.619 -179.87 750.748 -204.185 599.356C-227.386 454.906 -102.153 344.473 -12.6459 228.72C79.7331 109.252 156.369 -41.7476 306.228 -60.7287Z" fill="#BE41EA"/>
        </g>
        <path d="M223.701 131C324.28 225.623 344.927 529.387 283.47 587.828C243.178 626.137 133.28 549.102 97.5013 536.41C48.7203 519.087 155.105 531.531 203.789 494.834C261.639 451.225 335.431 282.761 408.328 371.416C471.938 448.799 438.175 534.583 496.228 571.969C548.748 605.759 631.578 571.217 693 537.012M220.57 135.53C315.06 228.897 334.054 522.387 276.966 579.617C239.558 617.106 135.804 543.669 102.846 531.712C57.1665 515.12 159.12 526.879 206.339 492.024C262.943 450.223 334.934 289.946 405.328 375.503C468.168 451.766 431.843 538.325 489.152 577.885C540.749 613.218 624.234 581.107 686.025 548.789M217.454 140.034C305.855 232.145 323.207 515.346 270.485 571.386C235.961 608.054 138.343 538.212 108.206 526.989C65.6415 511.091 163.149 522.203 208.909 489.182C264.268 449.188 334.453 297.12 402.343 379.565C464.408 454.716 425.385 542.246 482.098 583.782C532.634 620.841 616.899 590.98 679.074 560.547M214.325 144.577C296.632 235.439 312.364 508.32 263.984 563.188C232.359 599.012 140.862 532.787 113.546 522.299C74.1182 507.029 167.188 517.533 211.474 486.348C265.65 448.192 333.975 304.295 399.373 383.626C460.648 457.667 418.967 546.079 475.035 589.662C524.635 628.265 609.553 600.857 672.121 572.292M211.2 149.099C287.465 238.738 301.54 501.25 257.495 554.974C228.774 589.947 143.406 527.344 118.937 517.551C82.6004 502.993 171.23 512.877 214.041 483.515C267.002 447.188 333.491 311.478 396.39 387.689C456.89 460.618 412.617 549.831 467.991 595.566C516.622 635.727 602.236 610.742 665.171 584.051M208.075 153.621C278.261 242.022 290.727 494.163 250.997 546.755C225.197 580.852 145.949 521.901 124.293 512.838C91.1141 498.945 175.292 508.224 216.606 480.681C268.368 446.182 333.001 318.669 393.409 391.766C453.112 463.58 406.231 553.617 460.926 601.467C508.609 643.189 594.926 620.632 658.215 595.818M204.952 158.156C269.057 245.306 279.987 486.954 244.501 538.549C221.644 571.739 148.472 516.421 129.654 508.116C99.6337 494.855 179.349 503.579 219.167 477.856C269.741 445.18 332.52 325.831 390.404 395.826C449.337 466.52 399.833 557.371 453.852 607.362C500.573 650.599 587.532 630.511 651.244 607.573M201.826 162.677C259.85 248.576 269.231 479.733 238.011 530.335C218.107 562.603 151.078 510.986 135.017 503.407C108.17 490.74 183.43 498.949 221.777 475.041C271.202 444.17 331.938 333.155 387.481 399.92C445.477 469.634 393.514 561.144 446.853 613.285C492.658 658.07 580.254 640.423 644.346 619.357M198.701 167.2C250.646 251.861 258.477 472.444 231.513 522.116C214.537 553.398 153.683 505.539 140.379 498.686C116.786 486.543 187.511 494.32 224.301 472.202C272.525 443.192 331.359 340.308 384.46 403.97C441.663 472.582 387.137 564.867 439.756 619.165C484.626 665.46 572.879 650.292 637.351 631.097M195.584 171.726C241.447 255.137 247.734 465.07 225.023 513.902C210.96 544.152 156.311 500.073 145.735 493.972C125.465 482.272 191.576 489.68 226.867 469.369C273.938 442.217 330.912 347.504 381.505 408.075C437.913 475.586 380.824 568.633 432.724 625.1C476.672 672.904 565.574 660.209 630.43 642.898M192.458 176.248C232.243 258.421 236.961 457.606 218.533 505.688C207.352 534.85 159.013 494.635 151.051 489.231C134.278 477.839 195.651 485.058 229.393 466.508C275.325 441.214 330.37 354.67 378.451 412.09C434.051 478.501 374.408 572.294 425.593 630.945C468.64 680.225 558.157 670.037 623.393 654.597M189.327 180.778C223.044 261.697 226.149 450.046 212.038 497.482C203.704 525.487 160.67 490.344 156.46 484.542C141.312 476.445 199.812 480.497 231.993 463.709C276.801 440.283 329.933 361.886 375.501 416.188C430.321 481.495 368.124 576.034 418.567 636.873C460.699 687.666 550.852 679.954 616.476 666.391M186.21 185.304C213.832 264.976 215.249 442.378 205.54 489.263C199.992 516.067 163.164 485.005 161.816 479.828C149.723 472.58 203.977 475.948 234.559 460.876C278.261 439.341 329.441 369.063 372.528 420.236C426.554 484.44 361.816 579.722 411.526 642.755C452.759 695.039 543.525 689.82 609.537 678.133M183.085 189.827C204.633 268.252 204.226 434.638 199.05 481.049C196.196 506.602 165.651 479.663 167.201 475.123C158.16 468.711 208.157 471.41 237.143 458.067C279.768 438.432 328.986 376.254 369.56 424.345C422.796 487.439 355.524 583.457 404.481 648.694C444.826 702.451 536.217 699.758 602.586 689.927M179.958 194.347C195.428 271.535 193.041 426.844 192.559 472.834C192.303 497.105 168.143 474.323 172.532 470.392C166.556 464.813 212.301 466.871 239.7 455.192C281.291 437.463 328.499 383.388 366.568 428.367C419.023 490.357 349.222 587.103 397.412 654.546C436.872 709.791 528.854 709.589 595.627 701.645M176.84 198.874C186.229 274.812 181.662 419.08 186.06 464.615C188.294 487.61 170.629 468.98 177.895 465.684C174.972 460.941 216.488 462.373 242.244 452.39C282.767 436.683 328.009 390.579 363.562 432.462C415.248 493.332 342.919 590.819 390.338 660.476C428.937 717.19 521.499 719.495 588.655 713.435M173.715 203.396C177.025 278.095 170.003 411.354 179.57 456.401C184.185 478.16 173.123 463.642 183.256 460.962C183.393 457.061 220.683 457.914 244.81 449.557C284.307 435.878 327.536 397.746 360.598 436.515C411.505 496.26 336.673 594.469 383.289 666.353C421.026 724.537 514.172 729.361 581.708 725.172M170.584 207.925C167.818 281.366 158.159 403.813 173.075 448.195C180 468.787 175.609 458.299 188.612 456.248C191.809 453.188 224.898 453.493 247.344 446.701C285.844 435.127 327.039 404.897 357.566 440.58C407.709 499.197 330.366 598.158 376.189 672.253C413.071 731.898 506.793 739.25 574.71 736.933M167.466 212.452C158.613 284.65 146.152 396.473 166.585 439.981C175.758 459.513 178.408 454.942 193.968 451.534C200.454 450.11 229.142 449.081 249.943 443.903C287.452 434.508 326.615 412.076 354.616 444.678C403.999 502.159 324.148 601.851 369.154 678.175C405.196 739.293 499.486 749.154 567.785 748.721M164.325 216.998C149.399 287.95 134.046 389.413 160.11 431.813C171.536 450.414 180.686 448.656 199.361 446.869C208.731 445.969 233.358 444.845 252.533 441.12C289.068 434.032 326.171 419.286 351.656 448.792C400.299 505.127 317.931 605.578 362.126 684.124C397.333 746.706 492.166 759.095 560.851 760.525M161.215 221.496C140.211 291.211 121.974 382.539 153.597 423.549C167.291 441.313 183.094 442.669 204.693 442.105C217.067 441.775 237.537 440.527 255.07 438.244C290.623 433.608 325.741 426.356 348.66 452.789C396.658 507.906 311.803 609.125 355.053 689.952C389.514 753.954 484.82 768.903 553.888 772.218M158.098 226.023C131.012 294.487 109.952 375.895 147.107 415.335C195.068 466.314 300.884 405.665 345.668 456.881C392.877 510.888 305.466 612.874 347.985 695.873C381.531 761.389 477.468 778.822 546.921 784" stroke="url(#paint0_linear_0_1)" stroke-opacity="0.4" stroke-miterlimit="10"/>
        <path d="M2078.12 990.761C2071.17 916.881 1969.98 865.565 1892.32 862.962C1802.82 859.973 1766.18 922.408 1699 899.846C1637.69 879.279 1636.87 816.735 1591.65 804.822C1550.09 793.876 1481.96 828.56 1364 1010.24M1368.84 1018.75C1485.35 839.708 1553.59 803.569 1595.82 812.87C1627.11 819.806 1637.89 850.65 1661.49 875.451C1673.26 888.201 1688 897.828 1704.41 903.47C1758.13 921.99 1792.21 887.975 1851.1 875.402C1866.11 872.152 1881.45 870.679 1896.81 871.012C1974.84 872.451 2075.17 917.508 2083.83 988.787M1373.7 1027.24C1488.75 850.843 1557.05 813.26 1599.87 820.925C1631.34 826.562 1642.9 855.994 1666.61 879.595C1678.69 891.919 1693.42 901.322 1709.69 907.087C1762.61 925.838 1796.52 895.344 1855.58 883.489C1870.59 880.446 1885.87 878.964 1901.19 879.07C1979.59 879.586 2079.05 918.129 2089.43 986.809M1378.54 1035.7C1492.11 861.99 1560.52 822.977 1603.97 828.97C1635.63 833.333 1647.94 861.327 1671.79 883.741C1684.16 895.632 1698.86 904.815 1714.98 910.705C1767.16 929.689 1800.78 902.698 1860.07 891.577C1875.09 888.706 1890.33 887.205 1905.62 887.092C1984.39 886.545 2082.97 918.714 2095.07 984.793M1383.38 1044.22C1495.5 873.125 1563.96 832.705 1608.08 837.028C1639.9 840.129 1653.01 866.686 1676.99 887.875C1689.66 899.34 1704.37 908.314 1720.36 914.327C1771.79 933.543 1805.16 910.07 1864.71 899.672C1879.7 897.008 1894.88 895.501 1910.1 895.166C1989.25 893.558 2086.95 919.365 2100.78 982.845M1388.17 1052.72C1498.88 884.259 1567.49 841.207 1612.19 845.073C1644.1 847.797 1658.09 871.958 1682.17 892.021C1695.13 903.039 1709.84 911.803 1725.7 917.947C1776.39 937.396 1809.48 917.439 1869.2 907.773C1884.18 905.282 1899.3 903.758 1914.48 903.211C1994.01 900.491 2090.83 919.974 2106.38 980.866M1393.07 1061.22C1502.26 895.407 1570.83 852.251 1616.29 853.054C1648.39 853.782 1663.19 877.306 1687.36 896.18C1700.6 906.748 1715.31 915.306 1731.04 921.58C1780.99 941.262 1813.84 924.81 1873.75 915.876C1888.71 913.573 1903.79 912.041 1918.91 911.283C1998.82 907.501 2094.76 920.572 2112.03 978.902M1397.91 1069.71C1505.61 906.54 1574.26 861.953 1620.4 861.176C1652.64 860.589 1668.31 882.541 1692.56 900.314C1706.06 910.421 1720.78 918.77 1736.39 925.163C1785.57 945.088 1818.19 932.168 1878.29 923.928C1892.27 922.027 1907.19 920.27 1923.34 919.292C2003.64 914.411 2098.69 921.208 2117.68 976.913M1402.76 1078.21C1509.03 917.689 1577.68 871.795 1624.51 869.195C1656.88 867.409 1673.46 887.79 1697.77 904.437C1711.54 914.077 1726.29 922.234 1741.77 928.772C1790.2 948.93 1822.57 939.502 1882.87 932.02C1896.91 930.274 1911.79 928.54 1927.82 927.342C2008.4 921.369 2102.62 921.832 2123.33 974.924M1407.61 1086.7C1512.42 928.824 1581.11 881.611 1628.62 877.278C1661.13 874.305 1678.66 893.067 1702.93 908.594C1716.94 917.762 1731.71 925.731 1747.06 932.415C1794.76 952.807 1826.87 946.896 1887.38 940.083C1901.41 938.489 1916.3 936.756 1932.21 935.349C2013.27 928.23 2106.56 922.379 2128.98 972.884M1412.45 1095.19C1515.79 939.959 1584.53 891.453 1632.69 885.322C1665.33 881.174 1683.78 898.289 1708.09 912.752C1722.35 921.43 1737.14 929.206 1752.38 936.034C1799.32 956.658 1831.18 954.252 1891.89 948.236C1905.98 946.822 1920.83 945.074 1936.62 943.471C2018.05 935.201 2110.45 923.064 2134.61 970.97M1417.29 1103.69C1519.18 951.106 1587.98 901.296 1636.83 893.368C1669.61 888.059 1688.98 903.503 1713.3 916.899C1727.28 924.595 1741.59 932.369 1757.75 939.656C1803.94 960.499 1835.55 961.623 1896.46 956.327C1910.58 955.08 1925.4 953.318 1941.1 951.52C2022.91 942.1 2114.43 923.678 2140.3 968.995M1422.13 1112.19C1522.56 962.292 1591.33 911.16 1640.93 901.426C1673.85 894.942 1694.19 908.691 1718.49 921.046C1732.83 928.339 1747.19 935.912 1763.09 943.276C1808.54 964.39 1839.89 968.981 1901 964.417C1915.15 963.349 1929.97 961.574 1945.5 959.566C2027.69 948.97 2118.34 924.287 2145.92 967.017M1426.95 1120.68C1525.94 973.388 1594.83 921.043 1645.03 909.483C1678.09 901.864 1699.4 913.866 1723.68 925.205C1738.39 932.071 1752.79 939.455 1768.38 946.907C1813.1 968.216 1844.17 976.361 1905.54 972.533C1919.74 971.619 1934.51 969.83 1949.93 967.639C2032.5 955.841 2122.27 924.898 2151.57 965.041M1431.83 1129.17C1529.33 984.524 1598.24 930.948 1649.14 917.528C1682.36 908.761 1704.62 919.005 1728.86 929.339C1743.95 935.764 1758.41 942.987 1773.77 950.517C1817.72 972.057 1848.57 983.708 1910.09 980.611C1924.92 979.709 1939.71 978.049 1954.38 975.636C2037.31 962.699 2126.24 925.536 2157.22 963.051M1436.67 1137.67C1532.72 995.671 1601.75 940.819 1653.21 925.571C1686.58 915.668 1709.81 924.128 1734.07 933.486C1749.53 939.459 1764.02 946.518 1779.12 954.137C1822.33 975.911 1852.92 991.079 1914.6 988.7C1929.42 987.99 1944.18 986.326 1958.78 983.72C2042.11 969.481 2130.13 926.145 2162.88 961.025M1441.51 1146.17C1536.09 1006.81 1605.25 950.779 1657.36 933.618C1690.85 922.604 1715.07 929.23 1739.25 937.619C1755.09 943.127 1769.61 950.06 1784.45 957.757C1826.9 979.762 1857.25 998.436 1919.17 996.791C1933.97 996.256 1948.7 994.576 1963.23 991.768C2046.9 976.351 2134.06 926.769 2168.53 959.099M1446.37 1154.66C1539.48 1018 1608.66 960.696 1661.46 941.676C1695.15 929.528 1720.3 934.305 1744.43 941.765C1760.7 946.785 1775.21 953.591 1789.79 961.377C1831.49 983.59 1861.59 1005.81 1923.71 1004.89C1938.49 1004.53 1953.2 1002.83 1967.66 999.828C2051.69 983.171 2137.99 927.38 2174.18 957.122M1451.21 1163.16C1542.81 1029.09 1612.14 970.642 1665.57 949.772C1699.42 936.514 1725.51 939.417 1749.61 945.988C1766.22 950.553 1780.83 957.211 1795.13 965.073C1836.09 987.544 1865.93 1013.25 1928.25 1013.03C1943 1012.83 1957.69 1011.12 1972.09 1007.93C2056.48 990.015 2141.99 928.082 2179.82 955.196M1456.05 1171.66C1546.25 1040.24 1615.63 980.588 1669.67 957.778C1703.71 943.4 1730.73 944.403 1754.81 950.058C1771.8 954.057 1786.42 960.678 1800.47 968.643C1840.67 991.345 1870.27 1020.56 1932.8 1021.1C1947.52 1021.07 1962.19 1019.34 1976.52 1015.95C2061.26 996.746 2145.86 928.614 2185.48 953.169M1460.9 1180.14C1549.63 1051.37 1619.12 990.598 1673.73 965.821C1707.95 950.346 1735.88 949.423 1759.94 954.202C1777.31 957.647 1791.97 964.206 1805.76 972.222C1845.22 995.171 1874.57 1027.9 1937.29 1029.16C1951.99 1029.29 1966.66 1027.55 1980.92 1023.97C2065.95 1003.37 2149.74 929.235 2191.1 951.178M1465.73 1188.64C1607.36 983.93 1702.5 948.13 1765.18 958.351C1833.61 969.507 1856.95 1034.56 1941.88 1037.27C2041.51 1040.43 2146.42 926.571 2196.77 949.203" stroke="url(#paint1_linear_0_1)" stroke-opacity="0.5" stroke-miterlimit="10"/>
    </g>
    <defs>
        <filter id="filter0_f_0_1" x="-416.81" y="-388.031" width="871.757" height="943.635" filterUnits="userSpaceOnUse" color-interpolation-filters="sRGB">
            <feFlood flood-opacity="0" result="BackgroundImageFix"/>
            <feBlend mode="normal" in="SourceGraphic" in2="BackgroundImageFix" result="shape"/>
            <feGaussianBlur stdDeviation="125" result="effect1_foregroundBlur_0_1"/>
        </filter>
        <filter id="filter1_f_0_1" x="1404.41" y="135.969" width="871.757" height="943.634" filterUnits="userSpaceOnUse" color-interpolation-filters="sRGB">
            <feFlood flood-opacity="0" result="BackgroundImageFix"/>
            <feBlend mode="normal" in="SourceGraphic" in2="BackgroundImageFix" result="shape"/>
            <feGaussianBlur stdDeviation="125" result="effect1_foregroundBlur_0_1"/>
        </filter>
        <filter id="filter2_f_0_1" x="1348.76" y="104.141" width="688.52" height="724.97" filterUnits="userSpaceOnUse" color-interpolation-filters="sRGB">
            <feFlood flood-opacity="0" result="BackgroundImageFix"/>
            <feBlend mode="normal" in="SourceGraphic" in2="BackgroundImageFix" result="shape"/>
            <feGaussianBlur stdDeviation="125" result="effect1_foregroundBlur_0_1"/>
        </filter>
        <filter id="filter3_f_0_1" x="-166.238" y="-88.8591" width="688.52" height="724.97" filterUnits="userSpaceOnUse" color-interpolation-filters="sRGB">
            <feFlood flood-opacity="0" result="BackgroundImageFix"/>
            <feBlend mode="normal" in="SourceGraphic" in2="BackgroundImageFix" result="shape"/>
            <feGaussianBlur stdDeviation="125" result="effect1_foregroundBlur_0_1"/>
        </filter>
        <filter id="filter4_f_0_1" x="780" y="-160" width="1599" height="1544" filterUnits="userSpaceOnUse" color-interpolation-filters="sRGB">
            <feFlood flood-opacity="0" result="BackgroundImageFix"/>
            <feBlend mode="normal" in="SourceGraphic" in2="BackgroundImageFix" result="shape"/>
            <feGaussianBlur stdDeviation="125" result="effect1_foregroundBlur_0_1"/>
        </filter>
        <filter id="filter5_f_0_1" x="-457" y="-314" width="1919" height="1848" filterUnits="userSpaceOnUse" color-interpolation-filters="sRGB">
            <feFlood flood-opacity="0" result="BackgroundImageFix"/>
            <feBlend mode="normal" in="SourceGraphic" in2="BackgroundImageFix" result="shape"/>
            <feGaussianBlur stdDeviation="125" result="effect1_foregroundBlur_0_1"/>
        </filter>
        <filter id="filter6_f_0_1" x="-457" y="-314" width="1570" height="1516" filterUnits="userSpaceOnUse" color-interpolation-filters="sRGB">
            <feFlood flood-opacity="0" result="BackgroundImageFix"/>
            <feBlend mode="normal" in="SourceGraphic" in2="BackgroundImageFix" result="shape"/>
            <feGaussianBlur stdDeviation="125" result="effect1_foregroundBlur_0_1"/>
        </filter>
        <linearGradient id="paint0_linear_0_1" x1="555" y1="638" x2="189.325" y2="241.701" gradientUnits="userSpaceOnUse">
            <stop stop-color="#7758F6" stop-opacity="0"/>
            <stop offset="0.21875" stop-color="#7758F6" stop-opacity="0.18"/>
            <stop offset="0.572917" stop-color="#365BDD" stop-opacity="0.7"/>
            <stop offset="0.770833" stop-color="#7758F6" stop-opacity="0.1"/>
            <stop offset="1" stop-color="#7758F6" stop-opacity="0"/>
        </linearGradient>
        <linearGradient id="paint1_linear_0_1" x1="1824.03" y1="1017.12" x2="1754.35" y2="790.069" gradientUnits="userSpaceOnUse">
            <stop stop-color="#7758F6" stop-opacity="0"/>
            <stop offset="0.572917" stop-color="#365BDD"/>
            <stop offset="1" stop-color="#7758F6" stop-opacity="0"/>
        </linearGradient>
    </defs>
</svg>
