<svg width="1920" height="480" viewBox="0 0 1920 480" fill="none" xmlns="http://www.w3.org/2000/svg">
    <mask id="mask0_1_1420" style="mask-type:alpha" maskUnits="userSpaceOnUse" x="0" y="0" width="1920" height="480">
        <rect width="1920" height="480" fill="#D9D9D9"/>
    </mask>
    <g mask="url(#mask0_1_1420)">
        <rect width="1920" height="480" fill="#131416"/>
        <g opacity="0.5" filter="url(#filter0_f_1_1420)">
            <path d="M95.526 75.637C16.3362 7.50164 70.7833 -95.198 107.906 -138.031C-345.737 -18.5649 -97.408 70.3709 -111.558 205.311C-125.709 340.251 142.604 317.554 186.476 261.586C230.347 205.619 194.513 160.806 95.526 75.637Z" fill="#41EAD4"/>
        </g>
        <g opacity="0.5" filter="url(#filter1_f_1_1420)">
            <path d="M1763.83 599.637C1843.02 531.502 1788.57 428.802 1751.45 385.969C2205.09 505.435 1956.76 594.371 1970.91 729.311C1985.06 864.251 1716.75 841.554 1672.88 785.586C1629.01 729.619 1664.84 684.806 1763.83 599.637Z" fill="#41EAD4"/>
        </g>
        <g opacity="0.5" filter="url(#filter2_f_1_1420)">
            <path d="M1654.25 462.493C1694.41 427.941 1666.8 375.862 1647.97 354.141C1878.02 414.723 1752.09 459.823 1759.26 528.252C1766.44 596.681 1630.38 585.171 1608.13 556.789C1585.88 528.408 1604.05 505.683 1654.25 462.493Z" fill="#7758F6"/>
        </g>
        <g opacity="0.5" filter="url(#filter3_f_1_1420)">
            <path d="M139.25 269.493C179.407 234.941 151.797 182.862 132.972 161.141C363.017 221.723 237.088 266.823 244.264 335.252C251.439 403.681 115.376 392.171 93.1286 363.789C70.8812 335.408 89.0527 312.683 139.25 269.493Z" fill="#7758F6"/>
        </g>
        <g opacity="0.1" filter="url(#filter4_f_1_1420)">
            <path fill-rule="evenodd" clip-rule="evenodd" d="M1557.14 93.3615C1728.69 71.6232 1900.04 157.336 2008.4 292.104C2117.26 427.5 2158.27 611.473 2107.22 777.535C2059.91 931.457 1913.64 1021.66 1765.05 1083.72C1628.39 1140.79 1479.19 1154.81 1342.96 1096.74C1198.02 1034.96 1057.87 927.201 1032.89 771.638C1009.06 623.207 1137.69 509.731 1229.62 390.787C1324.5 268.027 1403.22 112.866 1557.14 93.3615Z" fill="#7758F6"/>
        </g>
        <g opacity="0.07" filter="url(#filter5_f_1_1420)">
            <path fill-rule="evenodd" clip-rule="evenodd" d="M473.627 -59.6597C695.13 -87.728 916.374 22.9437 1056.28 196.955C1196.84 371.775 1249.8 609.319 1183.88 823.737C1122.79 1022.48 933.928 1138.95 742.075 1219.08C565.626 1292.77 372.988 1310.87 197.081 1235.89C9.94395 1156.12 -171.021 1016.98 -203.267 816.122C-234.035 624.47 -67.9548 477.951 50.7462 324.373C173.256 165.866 274.888 -34.4761 473.627 -59.6597Z" fill="#41EAD4"/>
        </g>
        <g opacity="0.15" filter="url(#filter6_f_1_1420)">
            <path fill-rule="evenodd" clip-rule="evenodd" d="M306.228 -60.7287C473.253 -81.884 640.083 1.53027 745.579 132.684C851.566 264.448 891.5 443.487 841.799 605.096C795.73 754.889 653.319 842.671 508.652 903.067C375.601 958.613 230.341 972.255 97.6982 915.741C-43.4129 855.619 -179.87 750.748 -204.185 599.356C-227.386 454.906 -102.153 344.473 -12.6459 228.72C79.7331 109.252 156.369 -41.7476 306.228 -60.7287Z" fill="#BE41EA"/>
        </g>
        <path d="M50.7006 -53C151.28 41.6233 171.927 345.387 110.47 403.828C70.1784 442.137 -39.7203 365.102 -75.4987 352.41C-124.28 335.087 -17.895 347.531 30.7895 310.834C88.6389 267.225 162.431 98.7609 235.328 187.416C298.938 264.799 265.175 350.583 323.228 387.969C375.748 421.759 458.578 387.217 520 353.012M47.5697 -48.4705C142.06 44.8966 161.054 338.387 103.966 395.617C66.5581 433.106 -37.1959 359.669 -70.1538 347.712C-115.833 331.12 -13.8803 342.879 33.339 308.024C89.9435 266.223 161.934 105.946 232.328 191.503C295.168 267.766 258.843 354.325 316.152 393.885C367.749 429.218 451.234 397.107 513.025 364.789M44.4537 -43.9657C132.855 48.145 150.207 331.346 97.4854 387.386C62.9605 424.054 -34.6566 354.212 -64.7939 342.989C-107.358 327.091 -9.85077 338.203 35.9087 305.182C91.2684 265.188 161.453 113.12 229.343 195.565C291.408 270.716 252.385 358.246 309.098 399.782C359.634 436.841 443.899 406.98 506.074 376.547M41.3251 -39.4229C123.632 51.4395 139.364 324.32 90.9844 379.188C59.3588 415.012 -32.1377 348.787 -59.4545 338.299C-98.8818 323.029 -5.81206 333.533 38.4744 302.348C92.6496 264.192 160.975 120.295 226.373 199.626C287.648 273.667 245.967 362.079 302.035 405.662C351.635 444.265 436.553 416.857 499.121 388.292M38.2002 -34.9009C114.465 54.7376 128.54 317.25 84.4948 370.974C55.7739 405.947 -29.594 343.344 -54.0633 333.551C-90.3996 318.993 -1.77031 328.877 41.0406 299.515C94.0024 263.188 160.491 127.478 223.39 203.689C283.89 276.618 239.617 365.831 294.991 411.566C343.622 451.727 429.236 426.742 492.171 400.051M35.0747 -30.3792C105.261 58.0216 117.727 310.163 77.9967 362.755C52.1969 396.852 -27.0509 337.901 -48.7075 328.838C-81.8859 314.945 2.29209 324.224 43.6063 296.681C95.368 262.182 160.001 134.669 220.409 207.766C280.112 279.58 233.231 369.617 287.926 417.467C335.609 459.189 421.926 436.632 485.215 411.818M31.9516 -25.8442C96.0565 61.3058 106.987 302.954 71.5011 354.549C48.6439 387.739 -24.5285 332.421 -43.3463 324.116C-73.3663 310.855 6.34901 319.579 46.1665 293.856C96.7413 261.18 159.52 141.831 217.404 211.826C276.337 282.52 226.833 373.371 280.852 423.362C327.573 466.599 414.532 446.511 478.244 423.573M28.8262 -21.3227C86.8499 64.5764 96.2313 295.733 65.011 346.335C45.1073 378.603 -21.9218 326.986 -37.9826 319.407C-64.8304 306.74 10.4297 314.949 48.7771 291.041C98.2024 260.17 158.938 149.155 214.481 215.92C272.477 285.634 220.514 377.144 273.853 429.285C319.658 474.07 407.254 456.423 471.346 435.357M25.701 -16.8005C77.6459 67.861 85.4769 288.444 58.5134 338.116C41.5375 369.398 -19.3174 321.539 -32.6211 314.686C-56.2136 302.543 14.5106 310.32 51.3008 288.202C99.5255 259.192 158.359 156.308 211.46 219.97C268.663 288.582 214.137 380.867 266.756 435.165C311.626 481.46 399.879 466.292 464.351 447.097M22.5836 -12.2737C68.4472 71.1369 74.7343 281.07 52.0234 329.902C37.9602 360.152 -16.689 316.073 -27.2652 309.972C-47.5349 298.272 18.5756 305.68 53.8667 285.369C100.938 258.217 157.912 163.504 208.505 224.075C264.913 291.586 207.824 384.633 259.724 441.1C303.672 488.904 392.574 476.209 457.43 458.898M19.4581 -7.75205C59.2429 74.421 63.961 273.606 45.5332 321.688C34.3518 350.85 -13.987 310.635 -21.9487 305.231C-38.7216 293.839 22.6508 301.058 56.3931 282.508C102.325 257.214 157.37 170.67 205.451 228.09C261.051 294.501 201.408 388.294 252.593 446.945C295.64 496.225 385.157 486.037 450.393 470.597M16.3271 -3.22244C50.044 77.6973 53.1494 266.046 39.0377 313.482C30.7045 341.487 -12.3296 306.344 -16.5404 300.542C-31.6877 292.445 26.8124 296.497 58.9927 279.709C103.801 256.283 156.933 177.886 202.501 232.188C257.321 297.495 195.124 392.034 245.567 452.873C287.699 503.666 377.852 495.954 443.476 482.391M13.2097 1.30435C40.8319 80.9756 42.2494 258.378 32.5398 305.263C26.992 332.067 -9.83558 301.005 -11.1845 295.828C-23.2773 288.58 30.9767 291.948 61.5585 276.876C105.261 255.341 156.441 185.063 199.528 236.236C253.554 300.44 188.816 395.722 238.526 458.755C279.759 511.039 370.525 505.82 436.537 494.133M10.0845 5.82657C31.6334 84.2524 31.2263 250.638 26.05 297.049C23.1956 322.602 -7.34917 295.663 -5.7993 291.123C-14.84 284.711 35.1569 287.41 64.1428 274.067C106.768 254.432 155.986 192.254 196.56 240.345C249.796 303.439 182.524 399.457 231.481 464.694C271.826 518.451 363.217 515.759 429.586 505.927M6.95774 10.3469C22.4278 87.5351 20.0407 242.844 19.5585 288.834C19.3027 313.105 -4.85656 290.323 -0.468421 286.392C-6.44374 280.813 39.3011 282.871 66.6998 271.192C108.291 253.463 155.499 199.388 193.568 244.367C246.023 306.357 176.222 403.103 224.412 470.546C263.872 525.791 355.854 525.589 422.627 517.645M3.83993 14.8742C13.2287 90.8116 8.66245 235.08 13.0603 280.615C15.2943 303.61 -2.37074 284.98 4.89501 281.684C1.9718 276.941 43.4881 278.373 69.2437 268.39C109.767 252.683 155.009 206.579 190.562 248.462C242.248 309.332 169.919 406.819 217.338 476.476C255.937 533.19 348.499 535.495 415.655 529.435M0.714553 19.3958C4.02457 94.0955 -2.99679 227.354 6.5703 272.401C11.185 294.16 0.123287 279.642 10.2563 276.962C10.3931 273.061 47.6828 273.914 71.8095 265.557C111.307 251.878 154.536 213.746 187.598 252.515C238.505 312.26 163.673 410.469 210.289 482.353C248.026 540.536 341.171 545.361 408.708 541.172M-2.41624 23.9251C-5.18207 97.3661 -14.8415 219.813 0.0748646 264.195C7.00034 284.787 2.60946 274.299 15.6122 272.248C18.809 269.188 51.8982 269.493 74.3439 262.701C112.844 251.127 154.039 220.897 184.566 256.58C234.709 315.197 157.366 414.158 203.189 488.253C240.071 547.898 333.793 555.25 401.71 552.933M-5.53404 28.4524C-14.3865 100.65 -26.8484 212.473 -6.41547 255.981C2.75831 275.513 5.40779 270.942 20.9678 267.534C27.4539 266.11 56.1423 265.081 76.9433 259.903C114.453 250.508 153.615 228.076 181.616 260.678C230.999 318.159 151.148 417.851 196.154 494.175C232.196 555.293 326.486 565.154 394.785 564.721M-8.67504 32.9976C-23.6009 103.95 -38.9538 205.413 -12.8897 247.813C-1.4642 266.414 7.6859 264.656 26.3607 262.869C35.7312 261.969 60.3582 260.845 79.5329 257.12C116.068 250.032 153.171 235.286 178.656 264.792C227.299 321.127 144.931 421.578 189.126 500.124C224.333 562.706 319.166 575.095 387.851 576.525M-11.7846 37.4962C-32.7894 107.211 -51.0259 198.539 -19.4033 239.549C-5.70893 257.313 10.0936 258.669 31.693 258.105C44.0666 257.775 64.5371 256.527 82.0697 254.244C117.623 249.608 152.741 242.356 175.66 268.789C223.658 323.906 138.803 425.125 182.053 505.952C216.514 569.954 311.82 584.903 380.888 588.218M-14.9021 42.023C-41.9881 110.487 -63.048 191.895 -25.8933 231.335C22.0676 282.314 127.884 221.665 172.668 272.881C219.877 326.888 132.466 428.874 174.985 511.873C208.531 577.389 304.468 594.822 373.921 600" stroke="url(#paint0_linear_1_1420)" stroke-opacity="0.4" stroke-miterlimit="10"/>
        <path d="M2078.12 516.761C2071.17 442.881 1969.98 391.565 1892.32 388.962C1802.82 385.973 1766.18 448.408 1699 425.846C1637.69 405.279 1636.87 342.735 1591.65 330.822C1550.09 319.876 1481.96 354.56 1364 536.243M1368.84 544.753C1485.35 365.708 1553.59 329.569 1595.82 338.87C1627.11 345.806 1637.89 376.65 1661.49 401.451C1673.26 414.201 1688 423.828 1704.41 429.47C1758.13 447.99 1792.21 413.975 1851.1 401.402C1866.11 398.152 1881.45 396.679 1896.81 397.012C1974.84 398.451 2075.17 443.508 2083.83 514.787M1373.7 553.239C1488.75 376.843 1557.05 339.26 1599.87 346.925C1631.34 352.562 1642.9 381.994 1666.61 405.595C1678.69 417.919 1693.42 427.322 1709.69 433.087C1762.61 451.838 1796.52 421.344 1855.58 409.489C1870.59 406.446 1885.87 404.964 1901.19 405.07C1979.59 405.586 2079.05 444.129 2089.43 512.809M1378.54 561.698C1492.11 387.99 1560.52 348.977 1603.97 354.97C1635.63 359.333 1647.94 387.327 1671.79 409.741C1684.16 421.632 1698.86 430.815 1714.98 436.705C1767.16 455.689 1800.78 428.698 1860.07 417.577C1875.09 414.706 1890.33 413.205 1905.62 413.092C1984.39 412.545 2082.97 444.714 2095.07 510.793M1383.38 570.221C1495.5 399.125 1563.96 358.705 1608.08 363.028C1639.9 366.129 1653.01 392.686 1676.99 413.875C1689.66 425.34 1704.37 434.314 1720.36 440.327C1771.79 459.543 1805.16 436.07 1864.71 425.672C1879.7 423.008 1894.88 421.501 1910.1 421.166C1989.25 419.558 2086.95 445.365 2100.78 508.845M1388.17 578.716C1498.88 410.259 1567.49 367.207 1612.19 371.073C1644.1 373.797 1658.09 397.958 1682.17 418.021C1695.13 429.039 1709.84 437.803 1725.7 443.947C1776.39 463.396 1809.48 443.439 1869.2 433.773C1884.18 431.282 1899.3 429.758 1914.48 429.211C1994.01 426.491 2090.83 445.974 2106.38 506.866M1393.07 587.216C1502.26 421.407 1570.83 378.251 1616.29 379.054C1648.39 379.782 1663.19 403.306 1687.36 422.18C1700.6 432.748 1715.31 441.306 1731.04 447.58C1780.99 467.262 1813.84 450.81 1873.75 441.876C1888.71 439.573 1903.79 438.041 1918.91 437.283C1998.82 433.501 2094.76 446.572 2112.03 504.902M1397.91 595.714C1505.61 432.54 1574.26 387.953 1620.4 387.176C1652.64 386.589 1668.31 408.541 1692.56 426.314C1706.06 436.421 1720.78 444.77 1736.39 451.163C1785.57 471.088 1818.19 458.168 1878.29 449.928C1892.27 448.027 1907.19 446.27 1923.34 445.292C2003.64 440.411 2098.69 447.208 2117.68 502.913M1402.76 604.211C1509.03 443.689 1577.68 397.795 1624.51 395.195C1656.88 393.409 1673.46 413.79 1697.77 430.437C1711.54 440.077 1726.29 448.234 1741.77 454.772C1790.2 474.93 1822.57 465.502 1882.87 458.02C1896.91 456.274 1911.79 454.54 1927.82 453.342C2008.4 447.369 2102.62 447.832 2123.33 500.924M1407.61 612.696C1512.42 454.824 1581.11 407.611 1628.62 403.278C1661.13 400.305 1678.66 419.067 1702.93 434.594C1716.94 443.762 1731.71 451.731 1747.06 458.415C1794.76 478.807 1826.87 472.896 1887.38 466.083C1901.41 464.489 1916.3 462.756 1932.21 461.349C2013.27 454.23 2106.56 448.379 2128.98 498.884M1412.45 621.194C1515.79 465.959 1584.53 417.453 1632.69 411.322C1665.33 407.174 1683.78 424.289 1708.09 438.752C1722.35 447.43 1737.14 455.206 1752.38 462.034C1799.32 482.658 1831.18 480.252 1891.89 474.236C1905.98 472.822 1920.83 471.074 1936.62 469.471C2018.05 461.201 2110.45 449.064 2134.61 496.97M1417.29 629.691C1519.18 477.106 1587.98 427.296 1636.83 419.368C1669.61 414.059 1688.98 429.503 1713.3 442.899C1727.28 450.595 1741.59 458.369 1757.75 465.656C1803.94 486.499 1835.55 487.623 1896.46 482.327C1910.58 481.08 1925.4 479.318 1941.1 477.52C2022.91 468.1 2114.43 449.678 2140.3 494.995M1422.13 638.188C1522.56 488.292 1591.33 437.16 1640.93 427.426C1673.85 420.942 1694.19 434.691 1718.49 447.046C1732.83 454.339 1747.19 461.912 1763.09 469.276C1808.54 490.39 1839.89 494.981 1901 490.417C1915.15 489.349 1929.97 487.574 1945.5 485.566C2027.69 474.97 2118.34 450.287 2145.92 493.017M1426.95 646.685C1525.94 499.388 1594.83 447.043 1645.03 435.483C1678.09 427.864 1699.4 439.866 1723.68 451.205C1738.39 458.071 1752.79 465.455 1768.38 472.907C1813.1 494.216 1844.17 502.361 1905.54 498.533C1919.74 497.619 1934.51 495.83 1949.93 493.639C2032.5 481.841 2122.27 450.898 2151.57 491.041M1431.83 655.171C1529.33 510.524 1598.24 456.948 1649.14 443.528C1682.36 434.761 1704.62 445.005 1728.86 455.339C1743.95 461.764 1758.41 468.987 1773.77 476.517C1817.72 498.057 1848.57 509.708 1910.09 506.611C1924.92 505.709 1939.71 504.049 1954.38 501.636C2037.31 488.699 2126.24 451.536 2157.22 489.051M1436.67 663.669C1532.72 521.671 1601.75 466.819 1653.21 451.571C1686.58 441.668 1709.81 450.128 1734.07 459.486C1749.53 465.459 1764.02 472.518 1779.12 480.137C1822.33 501.911 1852.92 517.079 1914.6 514.7C1929.42 513.99 1944.18 512.326 1958.78 509.72C2042.11 495.481 2130.13 452.145 2162.88 487.025M1441.51 672.166C1536.09 532.806 1605.25 476.779 1657.36 459.618C1690.85 448.604 1715.07 455.23 1739.25 463.619C1755.09 469.127 1769.61 476.06 1784.45 483.757C1826.9 505.762 1857.25 524.436 1919.17 522.791C1933.97 522.256 1948.7 520.576 1963.23 517.768C2046.9 502.351 2134.06 452.769 2168.53 485.099M1446.37 680.664C1539.48 544.004 1608.66 486.696 1661.46 467.676C1695.15 455.528 1720.3 460.305 1744.43 467.765C1760.7 472.785 1775.21 479.591 1789.79 487.377C1831.49 509.59 1861.59 531.806 1923.71 530.894C1938.49 530.525 1953.2 528.83 1967.66 525.828C2051.69 509.171 2137.99 453.38 2174.18 483.122M1451.21 689.161C1542.81 555.085 1612.14 496.642 1665.57 475.772C1699.42 462.514 1725.51 465.417 1749.61 471.988C1766.22 476.553 1780.83 483.211 1795.13 491.073C1836.09 513.544 1865.93 539.252 1928.25 539.035C1943 538.833 1957.69 537.121 1972.09 533.925C2056.48 516.015 2141.99 454.082 2179.82 481.196M1456.05 697.659C1546.25 566.235 1615.63 506.588 1669.67 483.778C1703.71 469.4 1730.73 470.403 1754.81 476.058C1771.8 480.057 1786.42 486.678 1800.47 494.643C1840.67 517.345 1870.27 546.559 1932.8 547.1C1947.52 547.071 1962.19 545.342 1976.52 541.947C2061.26 522.746 2145.86 454.614 2185.48 479.169M1460.9 706.144C1549.63 577.37 1619.12 516.598 1673.73 491.821C1707.95 476.346 1735.88 475.423 1759.94 480.202C1777.31 483.647 1791.97 490.206 1805.76 498.222C1845.22 521.171 1874.57 553.902 1937.29 555.162C1951.99 555.294 1966.66 553.548 1980.92 549.967C2065.95 529.37 2149.74 455.235 2191.1 477.178M1465.73 714.641C1607.36 509.93 1702.5 474.13 1765.18 484.351C1833.61 495.507 1856.95 560.563 1941.88 563.268C2041.51 566.427 2146.42 452.571 2196.77 475.203" stroke="url(#paint1_linear_1_1420)" stroke-opacity="0.5" stroke-miterlimit="10"/>
    </g>
    <defs>
        <filter id="filter0_f_1_1420" x="-416.81" y="-388.031" width="871.757" height="943.635" filterUnits="userSpaceOnUse" color-interpolation-filters="sRGB">
            <feFlood flood-opacity="0" result="BackgroundImageFix"/>
            <feBlend mode="normal" in="SourceGraphic" in2="BackgroundImageFix" result="shape"/>
            <feGaussianBlur stdDeviation="125" result="effect1_foregroundBlur_1_1420"/>
        </filter>
        <filter id="filter1_f_1_1420" x="1404.41" y="135.969" width="871.757" height="943.634" filterUnits="userSpaceOnUse" color-interpolation-filters="sRGB">
            <feFlood flood-opacity="0" result="BackgroundImageFix"/>
            <feBlend mode="normal" in="SourceGraphic" in2="BackgroundImageFix" result="shape"/>
            <feGaussianBlur stdDeviation="125" result="effect1_foregroundBlur_1_1420"/>
        </filter>
        <filter id="filter2_f_1_1420" x="1348.76" y="104.141" width="688.52" height="724.97" filterUnits="userSpaceOnUse" color-interpolation-filters="sRGB">
            <feFlood flood-opacity="0" result="BackgroundImageFix"/>
            <feBlend mode="normal" in="SourceGraphic" in2="BackgroundImageFix" result="shape"/>
            <feGaussianBlur stdDeviation="125" result="effect1_foregroundBlur_1_1420"/>
        </filter>
        <filter id="filter3_f_1_1420" x="-166.238" y="-88.8591" width="688.52" height="724.97" filterUnits="userSpaceOnUse" color-interpolation-filters="sRGB">
            <feFlood flood-opacity="0" result="BackgroundImageFix"/>
            <feBlend mode="normal" in="SourceGraphic" in2="BackgroundImageFix" result="shape"/>
            <feGaussianBlur stdDeviation="125" result="effect1_foregroundBlur_1_1420"/>
        </filter>
        <filter id="filter4_f_1_1420" x="780" y="-160" width="1599" height="1544" filterUnits="userSpaceOnUse" color-interpolation-filters="sRGB">
            <feFlood flood-opacity="0" result="BackgroundImageFix"/>
            <feBlend mode="normal" in="SourceGraphic" in2="BackgroundImageFix" result="shape"/>
            <feGaussianBlur stdDeviation="125" result="effect1_foregroundBlur_1_1420"/>
        </filter>
        <filter id="filter5_f_1_1420" x="-457" y="-314" width="1919" height="1848" filterUnits="userSpaceOnUse" color-interpolation-filters="sRGB">
            <feFlood flood-opacity="0" result="BackgroundImageFix"/>
            <feBlend mode="normal" in="SourceGraphic" in2="BackgroundImageFix" result="shape"/>
            <feGaussianBlur stdDeviation="125" result="effect1_foregroundBlur_1_1420"/>
        </filter>
        <filter id="filter6_f_1_1420" x="-457" y="-314" width="1570" height="1516" filterUnits="userSpaceOnUse" color-interpolation-filters="sRGB">
            <feFlood flood-opacity="0" result="BackgroundImageFix"/>
            <feBlend mode="normal" in="SourceGraphic" in2="BackgroundImageFix" result="shape"/>
            <feGaussianBlur stdDeviation="125" result="effect1_foregroundBlur_1_1420"/>
        </filter>
        <linearGradient id="paint0_linear_1_1420" x1="382" y1="454" x2="16.3245" y2="57.7005" gradientUnits="userSpaceOnUse">
            <stop stop-color="#7758F6" stop-opacity="0"/>
            <stop offset="0.21875" stop-color="#7758F6" stop-opacity="0.18"/>
            <stop offset="0.572917" stop-color="#365BDD" stop-opacity="0.7"/>
            <stop offset="0.770833" stop-color="#7758F6" stop-opacity="0.1"/>
            <stop offset="1" stop-color="#7758F6" stop-opacity="0"/>
        </linearGradient>
        <linearGradient id="paint1_linear_1_1420" x1="1824.03" y1="543.117" x2="1754.35" y2="316.069" gradientUnits="userSpaceOnUse">
            <stop stop-color="#7758F6" stop-opacity="0"/>
            <stop offset="0.572917" stop-color="#365BDD"/>
            <stop offset="1" stop-color="#7758F6" stop-opacity="0"/>
        </linearGradient>
    </defs>
</svg>
