<svg width="1920" height="780" viewBox="0 0 1920 780" fill="none" xmlns="http://www.w3.org/2000/svg">
    <mask id="mask0_1_1590" style="mask-type:alpha" maskUnits="userSpaceOnUse" x="0" y="0" width="1920" height="780">
        <rect width="1920" height="780" fill="#F5F6FA"/>
    </mask>
    <g mask="url(#mask0_1_1590)">
        <rect width="1920" height="780" fill="#F5F6FA"/>
        <path d="M2021.96 492.386C1969.49 451.972 1874.42 486.818 1825.46 535.941C1769.06 592.557 1787.53 654.461 1731.93 684.599C1681.19 712.115 1639.86 674.593 1604.57 696.87C1572.14 717.343 1553.33 782.93 1600.18 970.49M1608.68 972.507C1562.67 787.501 1580.59 720.961 1612.36 699.048C1635.93 682.834 1662.62 694.564 1693.18 694.244C1708.66 694.32 1723.92 690.551 1737.58 683.274C1782.36 659.464 1780.89 616.519 1808.51 570.42C1815.52 558.642 1823.89 547.728 1833.45 537.905C1881.87 487.832 1972.33 449.745 2024.14 487.456M1617.17 974.5C1572.01 792.056 1589.03 724.594 1620.08 701.305C1642.91 684.187 1669.16 694.545 1699 693.424C1714.39 693.036 1729.49 689.139 1743.15 682.027C1787.6 658.879 1788.32 618.188 1816.51 572.416C1823.66 560.764 1831.99 549.884 1841.38 539.949C1889.42 489.071 1975.1 447.589 2026.26 482.597M1625.64 976.485C1581.33 796.643 1597.48 728.243 1627.83 703.522C1649.94 685.501 1675.71 694.501 1704.85 692.565C1720.14 691.726 1735.09 687.71 1748.74 680.774C1792.88 658.254 1795.71 619.882 1824.53 574.405C1831.79 562.854 1840.09 551.986 1849.31 541.936C1896.88 490.173 1977.86 445.386 2028.37 477.69M1634.15 978.511C1590.66 801.205 1605.92 731.916 1635.59 705.74C1656.98 686.847 1682.29 694.45 1710.72 691.683C1725.91 690.389 1740.72 686.244 1754.37 679.464C1798.22 657.574 1803.19 621.505 1832.64 576.298C1840.02 564.89 1848.27 554.066 1857.31 543.924C1904.42 491.268 1980.71 443.183 2030.57 472.776M1642.61 980.552C1599.99 805.776 1613.62 734.782 1643.35 707.95C1664.54 688.775 1688.82 694.342 1716.58 690.824C1731.65 689.069 1746.33 684.794 1759.99 678.179C1803.53 656.917 1810.63 623.167 1840.66 578.295C1848.15 567 1856.35 556.199 1865.23 545.96C1911.84 492.378 1983.47 441.019 2032.69 467.917M1651.15 982.522C1609.32 810.347 1622.87 739.319 1651.05 710.127C1671.06 689.611 1695.42 694.267 1722.45 689.965C1737.4 687.755 1751.95 683.353 1765.61 676.901C1808.85 656.269 1818.1 624.806 1848.71 580.259C1856.32 569.087 1864.49 558.313 1873.19 547.979C1919.34 493.505 1986.25 438.816 2034.84 463.034M1659.64 984.531C1618.63 814.933 1631.29 742.984 1658.86 712.385C1678.09 690.981 1701.96 694.104 1728.31 689.09C1743.12 686.426 1757.54 681.89 1771.2 675.592C1814.14 655.604 1825.55 626.444 1856.74 582.192C1864 571.905 1871.93 561.098 1881.12 549.959C1926.79 494.559 1989.06 436.637 2036.98 458.135M1668.13 986.54C1627.99 819.488 1639.8 746.738 1666.59 714.587C1685.12 692.359 1708.51 693.94 1734.18 688.191C1748.85 685.069 1763.15 680.404 1776.83 674.274C1819.46 654.915 1833 628.05 1864.81 584.125C1872.21 573.896 1880.13 563.128 1889.1 551.931C1934.23 495.685 1991.86 434.449 2039.12 453.236M1676.63 988.534C1637.32 824.051 1648.29 750.476 1674.37 716.82C1692.21 693.785 1715.12 693.753 1740.03 687.356C1754.54 683.785 1768.72 678.994 1782.43 673.036C1824.77 654.299 1840.45 629.737 1872.81 586.089C1880.31 575.957 1888.24 565.181 1897 553.934C1941.67 496.683 1994.61 432.214 2041.23 448.305M1685.12 990.543C1646.64 828.622 1656.8 754.23 1682.1 719.054C1699.25 695.22 1721.65 693.589 1745.88 686.513C1760.23 682.482 1774.3 677.557 1788.03 671.767C1830.06 653.666 1847.87 631.399 1880.88 588.102C1888.53 578.043 1896.43 567.283 1904.98 556.002C1949.13 497.802 1997.43 430.091 2043.4 443.463M1693.61 992.552C1655.98 833.192 1665.32 757.968 1689.87 721.248C1706.35 696.614 1728.22 693.362 1751.76 685.639C1765.29 681.195 1779.07 676.578 1793.66 670.465C1835.38 652.985 1855.34 633.029 1888.94 590.043C1896.72 580.065 1904.59 569.313 1912.96 557.974C1956.59 498.824 2000.25 427.864 2045.57 438.548M1702.11 994.561C1665.35 837.787 1673.8 761.777 1697.62 723.473C1713.42 698.032 1734.78 693.118 1757.63 684.771C1771.11 679.847 1784.8 675.077 1799.27 669.179C1840.71 652.353 1862.79 634.675 1896.99 591.999C1904.9 582.111 1912.76 571.359 1920.9 559.993C1963.99 499.885 2003.02 425.684 2047.7 433.673M1710.58 996.587C1674.65 842.334 1682.38 765.508 1705.38 725.699C1720.52 699.475 1741.32 692.867 1763.5 683.913C1776.93 678.484 1790.52 673.577 1804.86 667.934C1845.98 651.704 1870.21 636.37 1905.05 593.972C1913.09 584.15 1920.91 573.413 1928.86 562.013C1971.4 500.923 2005.81 423.489 2049.85 428.783M1719.09 998.564C1683.98 846.896 1690.92 769.31 1713.14 727.908C1727.62 700.885 1747.86 692.583 1769.35 683.046C1782.73 677.104 1796.24 672.06 1810.5 666.608C1851.3 651.023 1877.68 637.968 1913.09 595.92C1921.53 585.684 1929.44 575.022 1936.79 563.976C1978.8 501.961 2008.65 421.286 2051.99 423.884M1727.59 1000.57C1693.32 851.467 1699.5 773.025 1720.86 730.15C1734.7 702.336 1754.36 692.315 1775.22 682.171C1788.53 675.709 1801.96 670.544 1816.12 665.323C1856.62 650.359 1885.14 639.614 1921.12 597.893C1929.67 587.787 1937.56 577.141 1944.75 566.02C1986.15 502.95 2011.41 419.114 2054.11 418.953M1736.08 1002.58C1702.64 856.038 1708.14 776.796 1728.64 732.336C1741.83 703.763 1760.89 691.983 1781.07 681.304C1794.31 674.313 1807.67 669.051 1821.72 664.045C1861.92 649.718 1892.58 641.261 1929.18 599.834C1937.83 589.848 1945.7 579.208 1952.71 568.008C1993.55 504.004 2014.21 416.927 2056.29 414.094M1744.58 1004.58C1712.01 860.641 1716.69 780.606 1736.39 734.561C1748.96 705.174 1767.38 691.659 1786.93 680.445C1800.11 672.877 1813.38 667.542 1827.34 662.759C1867.22 649.045 1900.03 642.915 1937.24 601.798C1945.98 591.929 1953.83 581.293 1960.67 570.02C2000.92 505.025 2017 414.731 2058.44 409.203M1753.08 1006.59C1721.27 865.211 1725.3 784.385 1744.18 736.803C1756.12 706.633 1773.89 691.367 1792.85 679.627C1805.93 671.562 1819.17 666.075 1833 661.522C1872.59 648.453 1907.54 644.61 1945.31 603.787C1954.15 594.035 1961.97 583.402 1968.65 572.056C2008.3 506.062 2019.89 412.553 2060.62 404.345M1761.57 1008.6C1730.64 869.75 1733.92 788.157 1751.9 738.997C1763.23 708.02 1780.32 690.995 1798.67 678.711C1811.61 670.053 1824.83 664.534 1838.58 660.205C1877.86 647.772 1914.94 646.224 1953.34 605.728C1962.28 596.096 1970.08 585.464 1976.58 574.043C2015.6 507.035 2022.59 410.349 2062.73 399.422M1770.06 1010.6C1739.98 874.312 1742.58 791.968 1759.63 741.238C1770.34 709.478 1786.73 690.685 1804.49 677.884C1817.31 668.64 1830.51 663.057 1844.13 658.934C1883.13 647.131 1922.35 647.886 1961.34 607.7C1970.37 598.179 1978.15 587.545 1984.49 576.054C2022.78 508.006 2025.36 408.193 2064.85 394.539M1778.55 1012.61C1731.06 795.593 1765.58 711.693 1810.39 676.986C1859.31 639.096 1915.98 663.439 1969.43 609.633C2032.11 546.506 2021.6 408.738 2067.01 389.633" stroke="url(#paint0_linear_1_1590)" stroke-miterlimit="10"/>
    </g>
    <defs>
        <linearGradient id="paint0_linear_1_1590" x1="1810.3" y1="462.238" x2="1673.34" y2="833.63" gradientUnits="userSpaceOnUse">
            <stop stop-color="white" stop-opacity="0"/>
            <stop offset="0.484375" stop-color="#365BDD" stop-opacity="0.31"/>
            <stop offset="0.993809" stop-color="white" stop-opacity="0"/>
        </linearGradient>
    </defs>
</svg>
