<svg xmlns="http://www.w3.org/2000/svg" xmlns:xlink="http://www.w3.org/1999/xlink" width="2052.1" height="1151.2" viewBox="0 0 2052.1 1151.2"><defs><linearGradient id="Безымянный_градиент_2" x1="1595.29" y1="65.31" x2="499.28" y2="1253.11" gradientUnits="userSpaceOnUse"><stop offset="0" stop-color="#7758f6" stop-opacity="0"/><stop offset="0.22" stop-color="#7758f6" stop-opacity="0.18"/><stop offset="0.57" stop-color="#365bdd" stop-opacity="0.7"/><stop offset="0.77" stop-color="#7758f6" stop-opacity="0.1"/><stop offset="1" stop-color="#7758f6" stop-opacity="0"/></linearGradient><linearGradient id="Безымянный_градиент_2-2" x1="302.76" y1="646.72" x2="-62.91" y2="1043.01" gradientTransform="matrix(0.98, -0.18, -0.18, -0.98, 134.82, 1100.89)" xlink:href="#Безымянный_градиент_2"/></defs><g id="Слой_2" data-name="Слой 2"><rect x="132.6" y="70.7" width="1919" height="1080" style="fill:#fff;stroke-miterlimit:10;stroke:url(#Безымянный_градиент_2)"/></g><g id="Слой_1" data-name="Слой 1"><path d="M-65.1-70.7C50.6,4.7,124.3,300.1,74.1,368.5c-33,44.8-154.7-11.8-192.1-18-51.1-8.4,55.8-14.9,97.3-59.6C28.6,237.8,71.6,59,158.9,133.5c106.5,97.1,54.5,303,309.4,112.9M-67.4-65.7C42.1,9.6,112.4,295.2,66.2,361.5,36,405-79.1,351-113.6,345c-47.9-8.3,54.5-14.7,94.9-57.3C29.7,236.6,72.4,66.2,156.7,138c105.4,96.2,46.5,304.6,306.8,121.3M-69.6-60.7c103.2,75.1,170,350.8,128,415.3-27.5,42.1-135.9-9.5-167.6-15.2-44.7-8.2,53.3-14.4,92.5-54.9,47.5-49.1,89.8-211.2,171.2-142,104.1,94.8,38.6,306.4,304.2,129.6M-71.9-55.7c97,75,160.4,340.8,122.5,403.3C25.7,388.5-76,339.4-104.7,333.8c-41.5-8.1,51.9-14.1,90.1-52.6C32,234.1,73.9,80.5,152.3,147.1c102.9,93.5,30.6,307.6,301.6,137.7M-74.2-50.7C16.6,24.1,76.6,280.1,42.7,340.7c-22.1,39.5-117.1-7.2-143-12.5-38.3-7.9,50.7-13.8,87.7-50.2C33.1,232.9,74.7,87.6,150,151.6c102.2,93.6,23,308.6,299.2,146M-76.5-45.7C8.1,29,64.7,275,34.9,333.7c-19.4,38.1-107.8-6-130.7-11.1-35.1-7.8,49.4-13.5,85.2-47.9,44.9-43,86.1-179.9,158.4-118.6,101.1,93.1,15.3,309.6,296.6,154.3M-78.8-40.7C-.3,33.8,52.9,269.8,27,326.8c-16.6,36.7-98.4-4.9-118.4-9.8-31.9-7.7,48.2-13.2,82.8-45.5,44.1-41,84.9-169.6,154.2-110.8,100.2,92.7,7.5,310.3,294,162.5M-81.1-35.7C-8.8,38.7,41,264.6,19.2,319.9c-13.9,35.2-89-3.8-106.1-8.4-28.7-7.8,46.9-12.9,80.4-43.2C36.7,229.2,77,109.2,143.4,165.2c98.9,92.3.1,311.1,291.5,170.9M-83.3-30.7c66,74.2,112.5,290,94.7,343.6-11.2,33.8-79.6-2.6-93.9-7-25.3-7.8,45.7-12.6,78-40.9,42.4-37,82.2-148.6,145.7-95.3,97.9,92.6-7.5,311.6,288.8,179.1M-85.6-25.7C-25.8,48.3,17.3,253.9,3.5,306c-8.5,32.2-70-1.6-81.5-5.7-22-8,44.3-12.3,75.5-38.5,41.6-35,81-138.3,141.5-87.5,96.8,92.2-15,312.1,286.3,187.4M-87.9-20.7C-34.3,53.2,5.4,248.4-4.3,299c-5.9,30.7-60.5-.4-69.3-4.3-18.5-8.3,43.1-12,73.1-36.2,40.8-32.9,79.7-127.8,137.2-79.7,95.6,92.1-22.5,312.4,283.7,195.6M-90.2-15.7C-42.8,58-6.6,242.9-12.1,292.1c-3.3,29-51.9,2-57-3-16.4-5.3,41.9-11.6,70.7-33.8,40-30.9,78.5-117.4,132.9-72,94.6,92.2-29.8,312.7,281.2,204M-92.4-10.7c41.2,73.6,73.7,248,72.4,295.8-.7,27.4-42.4,3.3-44.7-1.6-13.2-5,40.8-11.2,68.3-31.4C42.8,223.2,80.9,145,132.3,187.8,225.7,280.3,95.2,500.7,410.9,400M-94.7-5.7c20.1,39,113,367.1,34.5,283.7-10-4.8,39.7-10.9,65.8-29.1,38.6-26.9,76.1-96.7,124.5-56.5,92.2,93-44.2,312.9,276.1,220.5M-97-.7C-83.2,30.1-2.1,350-55.8,272.4c-6.9-4.5,38.5-10.5,63.5-26.8,37.8-24.8,74.8-86.3,120.1-48.7,91.1,93.8-51.2,312.8,273.6,228.7M-99.3,4.3c22.6,73.1,43.5,215.9,55.8,260,6.3,22.2-14.4,7-7.8,2.5-3.7-4.2,37.4-10.1,61-24.4,37.1-22.6,73.5-75.9,115.9-41,89.8,94.9-58.1,312.7,271,237.1M-101.6,9.3c16.4,73,32.9,205.4,50.3,248.1,8.3,20.6-5.1,8.2,4.4,3.8-.5-3.9,36.3-9.6,58.6-22.1,36.5-20.4,72.3-65.5,111.7-33.2,88.4,95-65.1,312.7,268.4,245.3M-103.9,14.3c7.7,44,28,276.1,61.5,241.3,2.6-3.6,35.2-9.1,56.1-19.7,35.9-18.2,71.1-55.2,107.4-25.4C208.2,305.6,49.1,523,387,464M-106.1,19.3C-101.8,73.9-95.6,283.7-38,250c6.1-2.5,34.2-8.6,53.8-17.3C51,216.8,85.6,187.9,118.9,215c85.7,97.1-78.5,312.1,263.3,261.9M-108.4,24.4c-.1,69.9-6.6,246.7,74.9,220.1,9.1-2.5,33.1-8,51.3-15,34.7-13.4,68.7-34.5,98.9-9.9,84.2,97.7-85.2,311.9,260.8,270.1M-110.7,29.3c-7.8,84.7-19.1,231,81.6,209.6,12.1-2.5,32.1-7.4,48.9-12.7,34.2-10.8,67.5-24.1,94.7-2.1,82.7,98.3-91.9,311.5,258.2,278.3M-113,34.3C-167.7,363.1,20.5,171.8,112.3,228.6,193.2,328.1,14.1,540,367.9,515.3" transform="translate(132.1 71.2)" style="fill:none;stroke-miterlimit:10;stroke-opacity:0.4000000059604645;stroke:url(#Безымянный_градиент_2-2)"/></g></svg>