<svg width="37" height="40" viewBox="0 0 37 40" fill="none" xmlns="http://www.w3.org/2000/svg">
    <path fill-rule="evenodd" clip-rule="evenodd" d="M31.4771 27.8188L14.5518 37.8193L18.2417 40L35.1652 29.9976L35.167 9.99671L25.787 4.45364L8.86714 14.4541L12.557 16.633L25.7814 8.81885L31.4808 12.1868L31.4771 27.8188ZM8.86714 23.3652L12.5478 25.5402C17.5688 22.5636 22.6027 19.6039 27.6273 16.6348L23.9448 14.4579L8.86714 23.3652Z" fill="url(#paint0_linear_1_1416)"/>
    <path fill-rule="evenodd" clip-rule="evenodd" d="M31.4771 27.8188L14.5518 37.8193L18.2417 40L35.1652 29.9976L35.167 9.99671L25.787 4.45364L8.86714 14.4541L12.557 16.633L25.7814 8.81885L31.4808 12.1868L31.4771 27.8188ZM8.86714 23.3652L12.5478 25.5402C17.5688 22.5636 22.6027 19.6039 27.6273 16.6348L23.9448 14.4579L8.86714 23.3652Z" fill="url(#paint1_linear_1_1416)"/>
    <path fill-rule="evenodd" clip-rule="evenodd" d="M31.4771 27.8188L14.5518 37.8193L18.2417 40L35.1652 29.9976L35.167 9.99671L25.787 4.45364L8.86714 14.4541L12.557 16.633L25.7814 8.81885L31.4808 12.1868L31.4771 27.8188ZM8.86714 23.3652L12.5478 25.5402C17.5688 22.5636 22.6027 19.6039 27.6273 16.6348L23.9448 14.4579L8.86714 23.3652Z" fill="url(#paint2_linear_1_1416)"/>
    <path fill-rule="evenodd" clip-rule="evenodd" d="M31.4771 27.8188L14.5518 37.8193L18.2417 40L35.1652 29.9976L35.167 9.99671L25.787 4.45364L8.86714 14.4541L12.557 16.633L25.7814 8.81885L31.4808 12.1868L31.4771 27.8188ZM8.86714 23.3652L12.5478 25.5402C17.5688 22.5636 22.6027 19.6039 27.6273 16.6348L23.9448 14.4579L8.86714 23.3652Z" fill="url(#paint3_linear_1_1416)"/>
    <path fill-rule="evenodd" clip-rule="evenodd" d="M23.9448 23.3614L10.7148 31.1793L5.01545 27.8113V12.1793L21.9408 2.17884L18.2509 0L1.3274 10.0024L1.32556 30.0014L10.7056 35.5445L27.6291 25.5459L23.9448 23.3614Z" fill="url(#paint4_linear_1_1416)"/>
    <path fill-rule="evenodd" clip-rule="evenodd" d="M23.9448 23.3614L10.7148 31.1793L5.01545 27.8113V12.1793L21.9408 2.17884L18.2509 0L1.3274 10.0024L1.32556 30.0014L10.7056 35.5445L27.6291 25.5459L23.9448 23.3614Z" fill="url(#paint5_linear_1_1416)"/>
    <defs>
        <linearGradient id="paint0_linear_1_1416" x1="12" y1="20" x2="18" y2="40" gradientUnits="userSpaceOnUse">
            <stop stop-color="#7368F6"/>
            <stop offset="1" stop-color="#5831F5"/>
        </linearGradient>
        <linearGradient id="paint1_linear_1_1416" x1="12" y1="20" x2="18" y2="40" gradientUnits="userSpaceOnUse">
            <stop stop-color="#7368F6"/>
            <stop offset="1" stop-color="#5831F5"/>
        </linearGradient>
        <linearGradient id="paint2_linear_1_1416" x1="12" y1="20" x2="18" y2="40" gradientUnits="userSpaceOnUse">
            <stop stop-color="#7368F6"/>
            <stop offset="1" stop-color="#5831F5"/>
        </linearGradient>
        <linearGradient id="paint3_linear_1_1416" x1="12" y1="20" x2="18" y2="40" gradientUnits="userSpaceOnUse">
            <stop stop-color="#7368F6"/>
            <stop offset="1" stop-color="#5831F5"/>
        </linearGradient>
        <linearGradient id="paint4_linear_1_1416" x1="12" y1="20" x2="18" y2="40" gradientUnits="userSpaceOnUse">
            <stop stop-color="#7368F6"/>
            <stop offset="1" stop-color="#5831F5"/>
        </linearGradient>
        <linearGradient id="paint5_linear_1_1416" x1="12" y1="20" x2="18" y2="40" gradientUnits="userSpaceOnUse">
            <stop stop-color="#7368F6"/>
            <stop offset="1" stop-color="#5831F5"/>
        </linearGradient>
    </defs>
</svg>
