<svg width="395" height="501" viewBox="0 0 395 501" fill="none" xmlns="http://www.w3.org/2000/svg">
    <path d="M-76.2859 1.04421C25.9793 62.7773 98.7716 316.129 57.4639 376.816C30.382 416.598 -76.5571 371.453 -109.115 367.241C-153.509 361.483 -61.3077 352.596 -26.8364 312.647C14.1232 265.173 45.8149 109.106 123.591 170.841C191.462 224.73 178.548 303.505 234.435 324.552C284.989 343.567 348.718 299.208 394.411 259.043M-78.1074 5.44977C18.7813 67.2311 88.3049 312.189 50.4702 371.052C25.6762 409.614 -75.4127 366.394 -105.453 362.289C-147.092 356.583 -58.7611 347.926 -25.193 309.803C15.0436 264.087 46.7034 115.279 121.799 174.848C188.816 227.929 173.876 307.828 229.53 330.852C279.585 351.341 344.312 308.92 390.661 270.284M-79.9209 9.83151C11.5914 71.661 77.8525 308.209 43.4922 365.268C20.986 402.609 -74.2602 361.311 -101.782 357.313C-140.661 351.626 -56.2065 343.232 -23.5385 306.927C15.975 262.969 47.6044 121.438 120.016 178.831C186.174 231.112 169.131 312.326 224.642 337.131C274.114 359.274 339.91 318.616 386.926 281.505M-81.7381 14.248C4.39459 76.1333 67.4058 304.242 36.5029 359.516C16.2939 395.613 -73.1191 356.259 -98.1226 352.368C-134.235 346.64 -53.643 338.542 -21.8858 304.061C16.9613 261.874 48.5066 127.599 118.245 182.81C183.534 234.297 164.404 316.742 219.742 343.398C268.704 367.019 335.499 328.317 383.188 292.717M-83.5561 18.6461C-2.75405 80.5985 56.9678 300.233 29.5204 353.748C11.6118 388.594 -71.9604 351.188 -94.4299 347.365C-127.8 341.676 -51.0745 333.863 -20.2326 301.194C17.9219 260.777 49.4062 133.768 116.463 186.795C180.894 237.481 159.719 321.077 214.863 349.681C263.29 374.798 331.114 338.02 379.455 303.939M-85.3745 23.0441C-9.93675 85.0585 46.5356 296.208 22.5299 347.977C6.9311 381.549 -70.8021 346.116 -90.761 342.398C-121.34 336.695 -48.488 329.183 -18.5797 298.327C18.893 259.676 50.3023 139.944 114.685 190.789C178.239 240.678 155.011 325.448 209.965 355.966C257.876 382.576 326.736 347.727 375.718 315.169M-87.1886 27.4529C-17.1196 89.5186 36.1429 292.066 15.5437 342.217C2.26736 374.484 -69.6681 341.017 -87.0891 337.423C-114.883 331.678 -45.9047 324.51 -16.9302 295.468C19.8716 258.578 51.2 146.094 112.885 194.775C175.584 243.855 150.285 329.793 205.059 362.247C252.432 390.316 322.285 357.438 371.966 326.392M-89.0069 31.8505C-24.3067 93.9677 25.7351 287.918 8.56087 336.449C-2.3868 367.396 -68.4545 335.941 -83.4125 332.458C-108.416 326.637 -43.2983 319.846 -15.236 292.609C20.9226 257.455 52.0428 152.399 111.159 198.773C172.888 247.195 145.631 334.141 200.221 368.538C247.102 398.085 317.938 367.157 368.282 337.625M-90.825 36.2489C-31.4891 98.4281 15.3159 283.711 1.57069 330.678C-7.08152 360.255 -67.245 330.855 -79.74 327.483C-101.897 321.511 -40.6917 315.183 -13.6196 289.746C21.8631 256.386 52.8565 158.56 109.344 202.753C170.201 250.387 140.919 338.456 195.293 374.811C241.658 405.806 313.501 376.857 364.507 348.839M-92.6357 40.6497C-38.6686 102.88 4.89096 279.431 -5.41216 324.91C-11.79 353.082 -66.0188 325.749 -76.0711 322.515C-95.338 316.312 -38.1006 310.513 -11.9668 286.878C22.88 255.303 53.7895 164.733 107.594 206.767C167.578 253.614 136.267 342.796 190.43 381.118C236.29 413.559 309.133 386.584 360.806 360.092M-94.4542 45.0476C-45.8514 107.34 -5.57626 275.079 -12.3951 319.142C-16.535 345.868 -64.7254 320.652 -72.4404 317.531C-88.695 310.95 -35.4975 305.858 -10.3522 283.996C23.8694 254.201 54.6366 170.897 105.743 210.723C164.845 256.787 131.511 347.066 185.466 387.367C230.834 421.222 304.653 396.257 356.988 371.279M-96.2759 49.4533C-53.0311 111.793 -16.0934 270.654 -19.3813 313.382C-21.3241 338.608 -64.1061 316.717 -68.7227 312.575C-83.0029 308.486 -32.8105 301.236 -8.66447 281.153C24.9472 253.143 55.5815 177.085 103.996 214.731C162.236 260.002 126.879 351.379 180.606 393.667C225.476 428.971 300.284 405.985 353.29 382.525M-98.0866 53.854C-60.2214 116.249 -26.7047 266.153 -26.3718 307.611C-26.1785 331.313 -62.9702 311.743 -65.0537 307.607C-76.597 303.679 -30.1188 296.626 -7.01159 278.285C26.01 252.079 56.4732 183.249 102.22 218.699C159.588 263.183 122.219 355.652 175.725 399.932C220.107 436.66 295.887 415.673 349.563 393.731M-99.9047 58.2523C-67.4006 120.702 -37.4333 261.614 -33.3543 301.844C-31.1122 323.994 -61.8416 306.767 -61.3583 302.641C-70.1692 298.864 -27.4115 292.022 -5.33864 275.436C27.1188 251.035 57.3988 189.42 100.46 222.719C156.958 266.407 117.581 359.962 170.852 406.245C214.752 444.383 291.52 425.42 345.836 404.982M-101.724 62.6495C-74.5847 125.161 -48.3093 257.058 -40.3386 296.075C-36.1334 316.665 -60.7071 301.792 -57.7137 297.663C-63.7813 294.032 -24.7352 287.423 -3.70067 272.536C28.2295 249.937 58.2863 195.547 98.6629 226.67C154.3 269.566 112.917 364.199 165.942 412.488C209.364 452.047 287.087 435.085 342.087 416.171M-103.535 67.0508C-81.7645 129.614 -59.3425 252.564 -47.3293 290.304C-41.2517 309.36 -59.579 296.816 -54.0374 292.699C-57.3725 289.218 -22.0151 282.852 -2.06064 269.7C29.3351 249.008 59.1822 201.724 96.8681 230.685C151.65 272.774 108.265 368.495 161.042 418.799C204.004 459.759 282.673 444.813 338.341 427.424M-105.354 71.4485C-88.9471 134.074 -70.6064 248.152 -54.3121 284.536C-46.4471 302.112 -58.4431 291.842 -50.3653 287.724C-50.9604 284.396 -19.2812 278.312 -0.407772 266.833C30.4904 248.044 60.0878 207.877 95.1 234.657C149.019 275.935 103.65 372.724 156.153 425.061C198.655 467.421 278.276 454.501 334.606 438.627M-107.175 75.854C-96.1343 138.523 -81.9934 243.931 -61.2982 278.776C-51.6923 294.941 -57.3149 286.865 -46.6963 282.756C-44.5513 279.582 -16.523 273.8 1.21454 263.954C31.6528 247.129 60.9704 214.02 93.278 238.651C146.345 279.114 98.9905 376.998 151.226 431.351C193.271 475.105 273.84 464.219 330.833 449.86M-108.986 80.2552C-103.317 142.983 -93.4806 239.911 -68.2812 273.008C-56.9678 287.866 -55.5607 283.513 -43.0276 277.788C-37.8038 275.399 -13.739 269.29 2.90223 261.11C32.8999 246.311 61.9202 220.174 91.5309 242.658C143.749 282.299 94.4071 381.259 146.359 437.649C187.961 482.802 269.467 473.936 327.127 461.102M-110.814 84.676C-110.506 147.458 -105 236.145 -75.2425 267.276C-62.195 280.935 -54.78 277.777 -39.3186 272.855C-31.5609 270.382 -10.9467 264.936 4.58434 258.282C34.1787 245.613 62.8582 226.358 89.7781 246.681C141.162 285.486 89.8303 385.549 141.501 443.967C182.664 490.512 265.09 483.687 323.415 472.359M-112.623 89.0515C-117.679 151.896 -116.458 232.53 -82.2544 261.47C-67.4414 274.006 -53.8353 272.27 -35.6787 267.849C-25.2784 265.311 -8.20055 260.518 6.205 255.385C35.4163 244.97 63.7827 232.421 87.9734 250.612C138.59 288.503 85.2958 389.67 136.583 450.191C177.375 498.075 260.667 493.33 319.659 483.528M-114.433 93.4522C-124.859 156.348 -127.832 229.1 -89.2372 255.701C-39.4053 290.098 38.9998 219.445 86.1896 254.621C135.938 291.717 80.6214 394.001 131.686 456.493C171.98 505.825 256.258 503.068 315.916 494.772" stroke="url(#paint0_linear_1_101)" stroke-miterlimit="10"/>
    <defs>
        <linearGradient id="paint0_linear_1_101" x1="279.608" y1="138.783" x2="-105.248" y2="122.807" gradientUnits="userSpaceOnUse">
            <stop stop-color="white" stop-opacity="0"/>
            <stop offset="0.484375" stop-color="#365BDD" stop-opacity="0.31"/>
            <stop offset="0.993809" stop-color="white" stop-opacity="0"/>
        </linearGradient>
    </defs>
</svg>
