<svg width="60" height="60" viewBox="0 0 60 60" fill="none" xmlns="http://www.w3.org/2000/svg">
    <circle cx="30" cy="30" r="30" fill="#F7F8FE"/>
    <path d="M30.2072 26.648C31.9512 26.696 33.3672 27.264 34.4552 28.352C35.5432 29.424 36.0872 30.8 36.0872 32.48C36.0872 34.192 35.5192 35.6 34.3832 36.704C33.2472 37.792 31.7832 38.336 29.9912 38.336C28.1992 38.336 26.7352 37.792 25.5992 36.704C24.4792 35.616 23.9192 34.208 23.9192 32.48C23.9192 31.2 24.2472 30.072 24.9032 29.096L30.1352 21.2H33.9272L30.2072 26.648ZM27.9992 34.472C28.5272 34.968 29.1912 35.216 29.9912 35.216C30.7912 35.216 31.4552 34.968 31.9832 34.472C32.5272 33.976 32.7992 33.312 32.7992 32.48C32.7992 31.664 32.5272 31.008 31.9832 30.512C31.4552 30.016 30.7912 29.768 29.9912 29.768C29.1912 29.768 28.5272 30.016 27.9992 30.512C27.4712 30.992 27.2072 31.648 27.2072 32.48C27.2072 33.312 27.4712 33.976 27.9992 34.472Z" fill="#7758F6"/>
</svg>
