<svg width="60" height="61" viewBox="0 0 60 61" fill="none" xmlns="http://www.w3.org/2000/svg">
    <circle cx="30" cy="30.5" r="30" fill="white"/>
    <path d="M29.688 26.876L30.924 24.92C31.488 24.032 32.64 23.984 33.48 24.824L35.7 27.044C36.492 27.824 36.444 29.06 35.592 29.588L33.636 30.824L29.688 26.876ZM29.688 26.876L26.82 26.7079C25.212 26.6119 24.66 27.1039 24.48 28.6279L23.76 34.7119C23.604 35.9959 24.528 36.9079 25.812 36.7639L31.896 36.0439C33.42 35.8639 33.972 35.3119 33.816 33.7039L33.648 30.8359M24.588 35.9239L26.808 33.7039M26.4 42.5H33.6C39.6 42.5 42 40.1 42 34.1V26.9C42 20.9 39.6 18.5 33.6 18.5H26.4C20.4 18.5 18 20.9 18 26.9V34.1C18 40.1 20.4 42.5 26.4 42.5Z" stroke="#7758F6" stroke-width="1.5" stroke-linecap="round" stroke-linejoin="round"/>
</svg>
