<svg width="60" height="60" viewBox="0 0 60 60" fill="none" xmlns="http://www.w3.org/2000/svg">
    <circle cx="30" cy="30" r="30" fill="#F7F8FE"/>
    <path d="M41.9936 31.1963V26.3976C41.9936 20.3993 39.5942 18 33.5959 18H26.398C20.3997 18 18.0004 20.3993 18.0004 26.3976V33.5956C18.0004 39.5939 20.3997 41.9932 26.398 41.9932H31.1966M24.3946 32.9838L27.2498 29.2768C27.6577 28.749 28.4135 28.653 28.9414 29.0609L31.1368 30.7884C31.6646 31.1963 32.4204 31.1003 32.8283 30.5845L35.5995 27.0095M38.9704 34.5792L39.3063 35.263C39.4742 35.5989 39.8941 35.9109 40.266 35.9828L40.7219 36.0548C42.0895 36.2827 42.4134 37.2905 41.4297 38.2862L41.0098 38.706C40.7339 38.994 40.5779 39.5458 40.6619 39.9297L40.7219 40.1816C41.0938 41.8372 40.218 42.473 38.7784 41.6092L38.4665 41.4293C38.0946 41.2133 37.4948 41.2133 37.1229 41.4293L36.811 41.6092C35.3594 42.485 34.4836 41.8372 34.8675 40.1816L34.9275 39.9297C35.0115 39.5458 34.8556 38.994 34.5796 38.706L34.1597 38.2862C33.176 37.2905 33.4999 36.2827 34.8675 36.0548L35.3234 35.9828C35.6833 35.9228 36.1152 35.5989 36.2831 35.263L36.619 34.5792C37.2669 33.2716 38.3226 33.2716 38.9704 34.5792Z" stroke="#7758F6" stroke-width="1.5" stroke-linecap="round" stroke-linejoin="round"/>
</svg>
