<svg width="60" height="61" viewBox="0 0 60 61" fill="none" xmlns="http://www.w3.org/2000/svg">
    <circle cx="30" cy="30.5" r="30" fill="white"/>
    <path d="M30.9299 35.9C30.9299 35.4858 30.5941 35.15 30.1799 35.15C29.7657 35.15 29.4299 35.4858 29.4299 35.9H30.9299ZM29.4299 38.42C29.4299 38.8342 29.7657 39.17 30.1799 39.17C30.5941 39.17 30.9299 38.8342 30.9299 38.42H29.4299ZM24.1799 42.5H23.4299V43.25H24.1799V42.5ZM36.1799 42.5V43.25H36.9299V42.5H36.1799ZM22.9799 41.75C22.5657 41.75 22.2299 42.0858 22.2299 42.5C22.2299 42.9142 22.5657 43.25 22.9799 43.25V41.75ZM37.3799 43.25C37.7941 43.25 38.1299 42.9142 38.1299 42.5C38.1299 42.0858 37.7941 41.75 37.3799 41.75V43.25ZM22.1639 30.08L21.9353 30.7943C22.2152 30.8839 22.5216 30.8017 22.7192 30.5841C22.9167 30.3665 22.9689 30.0535 22.8528 29.7836L22.1639 30.08ZM19.8479 28.64L19.2904 29.1417C19.2992 29.1515 19.3082 29.161 19.3175 29.1703L19.8479 28.64ZM21.8279 21.32L22.5157 21.619C22.6165 21.3872 22.5937 21.1202 22.4551 20.9087C22.3164 20.6973 22.0807 20.57 21.8279 20.57V21.32ZM21.4679 26.72H22.2179H21.4679ZM37.8359 30.08L37.147 29.7836C37.0308 30.0535 37.0831 30.3665 37.2806 30.5841C37.4781 30.8017 37.7846 30.8839 38.0645 30.7943L37.8359 30.08ZM40.1519 28.64L40.6822 29.1703C40.6915 29.161 40.7006 29.1515 40.7094 29.1417L40.1519 28.64ZM38.1719 21.32V20.57C37.9191 20.57 37.6833 20.6973 37.5447 20.9087C37.4061 21.1202 37.3833 21.3872 37.4841 21.619L38.1719 21.32ZM38.5319 26.72H39.2819H38.5319ZM29.4299 35.9V38.42H30.9299V35.9H29.4299ZM24.1799 43.25H36.1799V41.75H24.1799V43.25ZM36.9299 42.5V41.3H35.4299V42.5H36.9299ZM36.9299 41.3C36.9299 39.5658 35.5141 38.15 33.7799 38.15V39.65C34.6857 39.65 35.4299 40.3942 35.4299 41.3H36.9299ZM33.7799 38.15H26.5799V39.65H33.7799V38.15ZM26.5799 38.15C24.8457 38.15 23.4299 39.5658 23.4299 41.3H24.9299C24.9299 40.3942 25.6741 39.65 26.5799 39.65V38.15ZM23.4299 41.3V42.5H24.9299V41.3H23.4299ZM22.9799 43.25H37.3799V41.75H22.9799V43.25ZM29.9999 34.55C25.7701 34.55 22.3499 31.1298 22.3499 26.9H20.8499C20.8499 31.9582 24.9417 36.05 29.9999 36.05V34.55ZM22.3499 26.9V23.3H20.8499V26.9H22.3499ZM22.3499 23.3C22.3499 21.0622 24.1621 19.25 26.3999 19.25V17.75C23.3337 17.75 20.8499 20.2338 20.8499 23.3H22.3499ZM26.3999 19.25H33.5999V17.75H26.3999V19.25ZM33.5999 19.25C35.8377 19.25 37.6499 21.0622 37.6499 23.3H39.1499C39.1499 20.2338 36.6661 17.75 33.5999 17.75V19.25ZM37.6499 23.3V26.9H39.1499V23.3H37.6499ZM37.6499 26.9C37.6499 31.1298 34.2297 34.55 29.9999 34.55V36.05C35.0581 36.05 39.1499 31.9582 39.1499 26.9H37.6499ZM22.3924 29.3657C21.6222 29.1192 20.9304 28.6619 20.3782 28.1096L19.3175 29.1703C20.0133 29.866 20.9055 30.4647 21.9353 30.7943L22.3924 29.3657ZM20.4053 28.1382C19.4143 27.0372 18.7979 25.7684 18.7979 24.32H17.2979C17.2979 26.2316 18.1214 27.8428 19.2904 29.1417L20.4053 28.1382ZM18.7979 24.32C18.7979 23.0542 19.7821 22.07 21.0479 22.07V20.57C18.9536 20.57 17.2979 22.2258 17.2979 24.32H18.7979ZM21.0479 22.07H21.8279V20.57H21.0479V22.07ZM21.14 21.0209C20.8556 21.6752 20.7179 22.3901 20.7179 23.12H22.2179C22.2179 22.5779 22.3201 22.0687 22.5157 21.619L21.14 21.0209ZM20.7179 23.12V26.72H22.2179V23.12H20.7179ZM20.7179 26.72C20.7179 28.027 20.9927 29.2555 21.4749 30.3764L22.8528 29.7836C22.447 28.8404 22.2179 27.813 22.2179 26.72H20.7179ZM38.0645 30.7943C39.0943 30.4647 39.9865 29.866 40.6822 29.1703L39.6216 28.1096C39.0693 28.6619 38.3775 29.1192 37.6073 29.3657L38.0645 30.7943ZM40.7094 29.1417C41.8784 27.8428 42.7019 26.2316 42.7019 24.32H41.2019C41.2019 25.7684 40.5854 27.0372 39.5944 28.1382L40.7094 29.1417ZM42.7019 24.32C42.7019 22.2258 41.0461 20.57 38.9519 20.57V22.07C40.2177 22.07 41.2019 23.0542 41.2019 24.32H42.7019ZM38.9519 20.57H38.1719V22.07H38.9519V20.57ZM37.4841 21.619C37.6796 22.0687 37.7819 22.5779 37.7819 23.12H39.2819C39.2819 22.3901 39.1442 21.6752 38.8597 21.0209L37.4841 21.619ZM37.7819 23.12V26.72H39.2819V23.12H37.7819ZM37.7819 26.72C37.7819 27.813 37.5527 28.8404 37.147 29.7836L38.5249 30.3764C39.0071 29.2555 39.2819 28.027 39.2819 26.72H37.7819Z" fill="#7758F6"/>
</svg>
