<svg width="60" height="60" viewBox="0 0 60 60" fill="none" xmlns="http://www.w3.org/2000/svg">
    <circle cx="30" cy="30" r="30" fill="#F7F8FE"/>
    <path d="M25.2 34.8H22.116C19.368 34.8 18 33.432 18 30.684V22.116C18 19.368 19.368 18 22.116 18H27.6C30.348 18 31.716 19.368 31.716 22.116M33.444 33.6H37.356M35.4 35.5561V31.6441M37.884 42H32.4C29.652 42 28.284 40.632 28.284 37.884V29.316C28.284 26.568 29.652 25.2 32.4 25.2H37.884C40.632 25.2 42 26.568 42 29.316V37.884C42 40.632 40.632 42 37.884 42Z" stroke="#7758F6" stroke-width="1.5" stroke-linecap="round" stroke-linejoin="round"/>
</svg>
