<svg width="60" height="60" viewBox="0 0 60 60" fill="none" xmlns="http://www.w3.org/2000/svg">
    <circle cx="30" cy="30" r="30" fill="white" fill-opacity="0.1"/>
    <path d="M40.967 36.963C40.967 37.359 40.879 37.766 40.692 38.162C40.505 38.558 40.263 38.932 39.944 39.284C39.405 39.878 38.811 40.307 38.14 40.582C37.48 40.857 36.765 41 35.995 41C34.873 41 33.674 40.736 32.409 40.197C31.144 39.658 29.879 38.932 28.625 38.019C27.36 37.095 26.161 36.072 25.017 34.939C23.884 33.795 22.861 32.596 21.948 31.342C21.046 30.088 20.32 28.834 19.792 27.591C19.264 26.337 19 25.138 19 23.994C19 23.246 19.132 22.531 19.396 21.871C19.66 21.2 20.078 20.584 20.661 20.034C21.365 19.341 22.135 19 22.949 19C23.257 19 23.565 19.066 23.84 19.198C24.126 19.33 24.379 19.528 24.577 19.814L27.129 23.411C27.327 23.686 27.47 23.939 27.569 24.181C27.668 24.412 27.723 24.643 27.723 24.852C27.723 25.116 27.646 25.38 27.492 25.633C27.349 25.886 27.14 26.15 26.876 26.414L26.04 27.283C25.919 27.404 25.864 27.547 25.864 27.723C25.864 27.811 25.875 27.888 25.897 27.976C25.93 28.064 25.963 28.13 25.985 28.196C26.183 28.559 26.524 29.032 27.008 29.604C27.503 30.176 28.031 30.759 28.603 31.342C29.197 31.925 29.769 32.464 30.352 32.959C30.924 33.443 31.397 33.773 31.771 33.971C31.826 33.993 31.892 34.026 31.969 34.059C32.057 34.092 32.145 34.103 32.244 34.103C32.431 34.103 32.574 34.037 32.695 33.916L33.531 33.091C33.806 32.816 34.07 32.607 34.323 32.475C34.576 32.321 34.829 32.244 35.104 32.244C35.313 32.244 35.533 32.288 35.775 32.387C36.017 32.486 36.27 32.629 36.545 32.816L40.186 35.401C40.472 35.599 40.67 35.83 40.791 36.105C40.901 36.38 40.967 36.655 40.967 36.963Z" stroke="white" stroke-width="1.5" stroke-miterlimit="10"/>
</svg>
