<svg width="60" height="60" viewBox="0 0 60 60" fill="none" xmlns="http://www.w3.org/2000/svg">
    <circle cx="30" cy="30" r="30" fill="#F7F8FE"/>
    <path d="M18 28.6888C18 29.7699 18.8108 31.0183 19.8019 31.4559L28.5409 35.3428C29.2101 35.6388 29.9695 35.6388 30.6259 35.3428L39.3649 31.4559C40.3559 31.0183 41.1667 29.7699 41.1667 28.6888M18 35.124C18 36.3209 18.7079 37.402 19.8019 37.8911L28.5409 41.778C29.2101 42.074 29.9695 42.074 30.6259 41.778L39.3649 37.8911C40.4589 37.402 41.1667 36.3209 41.1667 35.124M30.8833 18.2896L38.4768 21.6616C40.6648 22.6269 40.6648 24.2228 38.4768 25.1881L30.8833 28.5602C30.021 28.9463 28.6052 28.9463 27.7429 28.5602L20.1494 25.1881C17.9614 24.2228 17.9614 22.6269 20.1494 21.6616L27.7429 18.2896C28.6052 17.9035 30.021 17.9035 30.8833 18.2896Z" stroke="#7758F6" stroke-width="1.5" stroke-linecap="round" stroke-linejoin="round"/>
</svg>
