<svg width="60" height="60" viewBox="0 0 60 60" fill="none" xmlns="http://www.w3.org/2000/svg">
    <circle cx="30" cy="30" r="30" fill="#F7F8FE"/>
    <path d="M24.773 38V35.528L30.509 29.624C31.789 28.28 32.429 27.16 32.429 26.264C32.429 25.608 32.221 25.08 31.805 24.68C31.405 24.28 30.885 24.08 30.245 24.08C28.981 24.08 28.045 24.736 27.437 26.048L24.653 24.416C25.181 23.264 25.941 22.384 26.933 21.776C27.925 21.168 29.013 20.864 30.197 20.864C31.717 20.864 33.021 21.344 34.109 22.304C35.197 23.248 35.741 24.528 35.741 26.144C35.741 27.888 34.821 29.68 32.981 31.52L29.693 34.808H36.005V38H24.773Z" fill="#7758F6"/>
</svg>
