<svg width="60" height="60" viewBox="0 0 60 60" fill="none" xmlns="http://www.w3.org/2000/svg">
    <circle cx="30" cy="30" r="30" fill="#F7F8FE"/>
    <path d="M37.6198 26.7729L33.8546 23.0077M19.4087 41.2187C20.4504 42.2604 22.1322 42.2604 23.1739 41.2187L39.4898 24.9028C40.5315 23.8611 40.5315 22.1793 39.4898 21.1376C38.4481 20.0959 36.7663 20.0959 35.7246 21.1376L19.4087 37.4535C18.367 38.4952 18.367 40.177 19.4087 41.2187ZM25.6841 18.5522L27.5667 18L27.0144 19.8826L27.5667 21.7652L25.6841 21.213L23.8015 21.7652L24.3537 19.8826L23.8015 18L25.6841 18.5522ZM20.6638 26.0827L22.5464 25.5304L21.9942 27.413L22.5464 29.2956L20.6638 28.7434L18.7812 29.2956L19.3334 27.413L18.7812 25.5304L20.6638 26.0827ZM39.4898 32.358L41.3724 31.8058L40.8202 33.6884L41.3724 35.571L39.4898 35.0187L37.6072 35.571L38.1595 33.6884L37.6072 31.8058L39.4898 32.358Z" stroke="#7758F6" stroke-width="1.5" stroke-linecap="round" stroke-linejoin="round"/>
</svg>
