<svg width="16" height="16" viewBox="0 0 16 16" fill="none" xmlns="http://www.w3.org/2000/svg">
    <path d="M14.8035 3.69991C12.4101 -0.00012231 7.52354 -1.10013 3.73395 1.19989C0.0440919 3.4999 -1.15262 8.49994 1.2408 12.2L1.44026 12.5L0.642448 15.5L3.63423 14.7L3.9334 14.9C5.22984 15.6 6.62601 16 8.02217 16C9.51806 16 11.0139 15.6 12.3104 14.8C16.0002 12.4 17.0972 7.49993 14.8035 3.69991ZM12.7093 11.4C12.3104 12 11.8118 12.4 11.1137 12.5C10.7148 12.5 10.2161 12.7 8.22162 11.9C6.52628 11.1 5.13012 9.79995 4.13286 8.29994C3.5345 7.59994 3.23532 6.69993 3.1356 5.79992C3.1356 4.99992 3.43477 4.29991 3.9334 3.79991C4.13286 3.59991 4.33231 3.4999 4.53176 3.4999H5.03039C5.22984 3.4999 5.42929 3.4999 5.52902 3.89991C5.72847 4.39991 6.2271 5.59992 6.2271 5.69992C6.32683 5.79992 6.32683 5.99992 6.2271 6.09993C6.32683 6.29993 6.2271 6.49993 6.12738 6.59993C6.02765 6.69993 5.92792 6.89993 5.8282 6.99993C5.62875 7.09993 5.52902 7.29993 5.62875 7.49994C6.02765 8.09994 6.52628 8.69994 7.02491 9.19995C7.62326 9.69995 8.22162 10.1 8.9197 10.4C9.11915 10.5 9.31861 10.5 9.41833 10.3C9.51806 10.1 10.0167 9.59995 10.2161 9.39995C10.4156 9.19995 10.5153 9.19995 10.7148 9.29995L12.3104 10.1C12.5098 10.2 12.7093 10.3 12.809 10.4C12.9087 10.7 12.9087 11.1 12.7093 11.4Z" fill="white"/>
</svg>
