<svg width="60" height="60" viewBox="0 0 60 60" fill="none" xmlns="http://www.w3.org/2000/svg">
    <circle cx="30" cy="30" r="30" fill="#F7F8FE"/>
    <path d="M38.4841 21.516L21.516 38.4841M38.4841 21.516C36.3121 19.344 33.3121 18 30 18C23.376 18 18 23.376 18 30C18 33.3121 19.344 36.3121 21.516 38.4841M38.4841 21.516C40.6561 23.688 42.0001 26.6879 42.0001 30C42.0001 36.624 36.6241 42 30 42C26.688 42 23.688 40.6561 21.516 38.4841M24.912 35.088L31.692 41.8801M29.148 30.852L37.0441 38.736M33.3961 26.6039L40.9441 34.164" stroke="#7758F6" stroke-width="1.5" stroke-linecap="round" stroke-linejoin="round"/>
</svg>
