<svg width="60" height="60" viewBox="0 0 60 60" fill="none" xmlns="http://www.w3.org/2000/svg">
    <circle cx="30" cy="30" r="30" fill="#F7F8FE"/>
    <path d="M21.4652 30.2987L21.4524 35.9278C21.4524 37.4521 22.701 39.0844 24.2299 39.5645L28.2941 40.8367C28.9948 41.0528 30.1542 41.0528 30.8677 40.8367L34.9319 39.5645C36.4608 39.0844 37.7094 37.4521 37.7094 35.9278V30.3587M41.557 32.6032V25.4019M27.0965 17.6364L19.4267 22.3533C16.9678 23.8656 16.9678 27.2502 19.4267 28.7625L27.0965 33.4794C28.4725 34.3316 30.7403 34.3316 32.1163 33.4794L39.7479 28.7625C42.1941 27.2502 42.1941 23.8776 39.7479 22.3653L32.1163 17.6484C30.7403 16.7842 28.4725 16.7842 27.0965 17.6364Z" stroke="#7758F6" stroke-width="1.5" stroke-linecap="round" stroke-linejoin="round"/>
</svg>
