<svg width="70" height="70" viewBox="0 0 70 70" fill="none" xmlns="http://www.w3.org/2000/svg">
    <circle cx="35" cy="35" r="35" fill="#7758F6"/>
    <path d="M42.4903 38.6576C44.549 39.0025 46.8181 38.6426 48.4109 37.5777C50.5297 36.1679 50.5297 33.8582 48.4109 32.4483C46.803 31.3835 44.5039 31.0235 42.4453 31.3835M27.5097 38.6576C25.451 39.0026 23.1819 38.6426 21.5891 37.5778C19.4703 36.1679 19.4703 33.8582 21.5891 32.4484C23.197 31.3835 25.4961 31.0236 27.5547 31.3835M44.039 27.739C43.9489 27.7241 43.8437 27.7241 43.7535 27.739C41.6798 27.6641 40.0269 25.9693 40.0269 23.8695C40.0269 21.7248 41.755 20 43.9038 20C46.0526 20 47.7807 21.7398 47.7807 23.8695C47.7657 25.9693 46.1127 27.6641 44.039 27.739ZM25.9605 27.7391C26.0506 27.7241 26.1558 27.7241 26.246 27.7391C28.3197 27.6641 29.9726 25.9693 29.9726 23.8696C29.9726 21.7249 28.2446 20.0001 26.0957 20.0001C23.9469 20.0001 22.2188 21.7399 22.2188 23.8696C22.2338 25.9693 23.8868 27.6641 25.9605 27.7391ZM35.0251 38.9428C34.935 38.9278 34.8298 38.9278 34.7396 38.9428C32.6659 38.8678 31.013 37.173 31.013 35.0732C31.013 32.9285 32.741 31.2037 34.8899 31.2037C37.0387 31.2037 38.7668 32.9435 38.7668 35.0732C38.7518 37.173 37.0988 38.8828 35.0251 38.9428ZM30.6533 43.667C28.5345 45.0768 28.5345 47.3865 30.6533 48.7964C33.0576 50.4012 36.9946 50.4012 39.3989 48.7964C41.5177 47.3865 41.5177 45.0768 39.3989 43.667C37.0096 42.0772 33.0576 42.0772 30.6533 43.667Z" stroke="white" stroke-width="1.5" stroke-linecap="round" stroke-linejoin="round"/>
</svg>
