<svg width="60" height="60" viewBox="0 0 60 60" fill="none" xmlns="http://www.w3.org/2000/svg">
    <circle cx="30" cy="30" r="30" fill="#F7F8FE"/>
    <path d="M30 40.152C31.476 38.844 32.4 36.924 32.4 34.8C32.4 33.864 32.22 32.964 31.896 32.148M30 40.152C28.728 41.304 27.048 42 25.2 42C21.228 42 18 38.772 18 34.8C18 31.488 20.256 28.68 23.304 27.852M30 40.152C31.272 41.304 32.952 42 34.8 42C38.772 42 42 38.772 42 34.8C42 31.488 39.744 28.68 36.696 27.852M23.304 27.852C24.132 29.94 25.908 31.548 28.104 32.148C28.704 32.316 29.34 32.4 30 32.4C30.66 32.4 31.296 32.316 31.896 32.148M23.304 27.852C22.98 27.036 22.8 26.136 22.8 25.2C22.8 21.228 26.028 18 30 18C33.972 18 37.2 21.228 37.2 25.2C37.2 26.136 37.02 27.036 36.696 27.852M31.896 32.148C34.092 31.548 35.868 29.94 36.696 27.852" stroke="#7758F6" stroke-width="1.5" stroke-linecap="round" stroke-linejoin="round"/>
</svg>
