<svg width="60" height="61" viewBox="0 0 60 61" fill="none" xmlns="http://www.w3.org/2000/svg">
    <circle cx="30" cy="30.5" r="30" fill="white"/>
    <path d="M33.2839 37.8001V33.1201M33.2839 24.54V22.2M33.2839 24.54C31.5608 24.54 30.164 25.9368 30.164 27.6599C30.164 29.3831 31.5608 30.7799 33.284 30.7799C35.0071 30.7799 36.404 29.3831 36.404 27.6599C36.404 25.9368 35.0071 24.54 33.2839 24.54ZM24.7161 37.8001V35.4601M24.7161 35.4601C26.4392 35.4601 27.8359 34.0632 27.8359 32.3401C27.8359 30.617 26.4391 29.2201 24.7159 29.2201C22.9928 29.2201 21.5959 30.617 21.5959 32.3401C21.5959 34.0632 22.9929 35.4601 24.7161 35.4601ZM24.7161 26.88V22.2M25.4 42H32.6C38.6 42 41 39.6 41 33.6V26.4C41 20.4 38.6 18 32.6 18H25.4C19.4 18 17 20.4 17 26.4V33.6C17 39.6 19.4 42 25.4 42Z" stroke="#7758F6" stroke-width="1.5" stroke-miterlimit="10" stroke-linecap="round" stroke-linejoin="round"/>
</svg>
