<svg width="1920" height="824" viewBox="0 0 1920 824" fill="none" xmlns="http://www.w3.org/2000/svg">
    <mask id="mask0_1_15" style="mask-type:alpha" maskUnits="userSpaceOnUse" x="0" y="0" width="1920" height="824">
        <rect width="1920" height="824" fill="#131416"/>
    </mask>
    <g mask="url(#mask0_1_15)">
        <rect width="1920" height="824" fill="#131416"/>
        <g opacity="0.15" filter="url(#filter0_f_1_15)">
            <path d="M1477.72 546.667C1627.16 418.09 1524.41 224.287 1454.36 143.458C2310.42 368.9 1841.8 536.73 1868.51 791.373C1895.21 1046.02 1388.88 1003.18 1306.09 897.57C1223.3 791.955 1290.92 707.389 1477.72 546.667Z" fill="#41EAD4"/>
        </g>
        <g opacity="0.1" filter="url(#filter1_f_1_15)">
            <path d="M1272.54 664.655C1276.42 504.105 1451.6 468.811 1538.7 471.233C954.709 48.1209 1090.85 430.08 916.593 544.703C742.332 659.327 1030.7 956.305 1140 953.958C1249.29 951.61 1267.68 865.341 1272.54 664.655Z" fill="#41ADEA"/>
        </g>
        <g opacity="0.5" filter="url(#filter2_f_1_15)">
            <path d="M-187.474 -20.363C-266.664 -88.4984 -212.217 -191.198 -175.094 -234.031C-628.737 -114.565 -380.408 -25.6291 -394.558 109.311C-408.709 244.251 -140.396 221.554 -96.5244 165.586C-52.6533 109.619 -88.4868 64.8062 -187.474 -20.363Z" fill="#41EAD4"/>
        </g>
        <g opacity="0.5" filter="url(#filter3_f_1_15)">
            <path d="M1437.11 229.493C1396.95 194.941 1424.56 142.862 1443.38 121.141C1213.34 181.723 1339.27 226.823 1332.09 295.252C1324.92 363.681 1460.98 352.171 1483.23 323.789C1505.47 295.408 1487.3 272.683 1437.11 229.493Z" fill="#7758F6"/>
        </g>
        <g opacity="0.1" filter="url(#filter4_f_1_15)">
            <path fill-rule="evenodd" clip-rule="evenodd" d="M72.2174 -414.439C-99.3343 -436.177 -270.685 -350.464 -379.041 -215.696C-487.901 -80.3005 -528.917 103.673 -477.869 269.735C-430.552 423.657 -284.281 513.858 -135.693 575.918C0.964661 632.995 150.161 647.013 286.399 588.942C431.335 527.163 571.49 419.401 596.464 263.837C620.294 115.407 491.666 1.93051 399.734 -117.013C304.851 -239.773 226.139 -394.934 72.2174 -414.439Z" fill="#7758F6"/>
        </g>
        <g opacity="0.07" filter="url(#filter5_f_1_15)">
            <path fill-rule="evenodd" clip-rule="evenodd" d="M1102.73 -679.66C881.226 -707.728 659.982 -597.056 520.076 -423.045C379.519 -248.225 326.559 -10.6809 392.472 203.737C453.566 402.479 642.428 518.946 834.281 599.077C1010.73 672.773 1203.37 690.873 1379.27 615.893C1566.41 536.125 1747.38 396.984 1779.62 196.122C1810.39 4.47028 1644.31 -142.049 1525.61 -295.627C1403.1 -454.134 1301.47 -654.476 1102.73 -679.66Z" fill="#41EAD4"/>
        </g>
        <g opacity="0.1" filter="url(#filter6_f_1_15)">
            <path fill-rule="evenodd" clip-rule="evenodd" d="M362.982 429.34C584.485 401.272 805.729 511.944 945.635 685.955C1086.19 860.775 1139.15 1098.32 1073.24 1312.74C1012.14 1511.48 823.283 1627.95 631.43 1708.08C454.982 1781.77 262.343 1799.87 86.4365 1724.89C-100.701 1645.12 -281.665 1505.98 -313.912 1305.12C-344.679 1113.47 -178.599 966.951 -59.8983 813.373C62.6117 654.866 164.243 454.524 362.982 429.34Z" fill="#41EAD4"/>
        </g>
        <g opacity="0.15" filter="url(#filter7_f_1_15)">
            <path fill-rule="evenodd" clip-rule="evenodd" d="M1270.13 -680.729C1103.1 -701.884 936.273 -618.47 830.777 -487.316C724.789 -355.552 684.855 -176.513 734.557 -14.9044C780.625 134.889 923.037 222.671 1067.7 283.067C1200.75 338.613 1346.01 352.255 1478.66 295.741C1619.77 235.619 1756.23 130.748 1780.54 -20.644C1803.74 -165.094 1678.51 -275.527 1589 -391.28C1496.62 -510.748 1419.99 -661.748 1270.13 -680.729Z" fill="#BE41EA"/>
        </g>
        <path d="M1920.09 56.7423C1822.25 160.393 1805.84 237.314 1809.64 289.031C1813.87 346.748 1845.18 398.932 1828.69 409.703C1818.14 416.601 1795.54 401.573 1750.62 366.74C1614.42 261.116 1597.62 225.152 1559.76 229.506C1506.72 235.597 1503.06 310.405 1429.37 338.939C1375.24 359.894 1317.47 342.679 1275.47 323.559M1925.21 61.0483C1830.28 162.142 1810.83 238.342 1812.27 287.674C1813.89 342.804 1843.93 392.147 1827.24 401.882C1816.51 408.142 1794.32 393.361 1750.94 359.724C1619.11 257.523 1601.53 221.343 1564.13 226.061C1511.09 232.94 1510.56 311.771 1437.02 342.893C1435.42 343.571 1433.83 344.219 1432.23 344.829C1379.23 364.905 1320.84 347.926 1278.28 329.254M1930.33 65.358C1838.3 163.886 1815.8 239.252 1814.9 286.317C1813.89 338.778 1842.67 385.361 1825.77 394.061C1814.87 399.682 1793.09 385.147 1751.25 352.705C1623.81 253.927 1605.42 217.406 1568.48 222.62C1515.42 230.11 1518.05 313.18 1444.66 346.853C1443.05 347.592 1441.45 348.329 1439.81 348.988C1386.39 370.501 1325.41 353.736 1281.09 334.954M1935.45 69.6651C1846.33 165.649 1820.79 240.015 1817.53 284.958C1813.93 334.656 1841.4 378.571 1824.32 386.235C1813.22 391.215 1791.87 376.928 1751.56 345.686C1628.5 250.32 1609.32 213.542 1572.84 219.178C1519.77 227.377 1525.55 314.619 1452.31 350.811C1450.68 351.615 1449.06 352.413 1447.41 353.144C1393.89 376.886 1330 359.541 1283.91 340.652M1940.58 73.9725C1854.35 167.394 1825.81 240.617 1820.17 283.599C1814.02 330.427 1840.12 371.777 1822.86 378.41C1811.57 382.748 1790.65 368.711 1751.87 338.666C1633.19 246.72 1613.22 209.684 1577.2 215.737C1524.1 224.658 1533.04 316.09 1459.96 354.776C1458.32 355.641 1456.67 356.507 1455 357.312C1401.21 382.861 1334.58 365.355 1286.71 346.354M1945.7 78.2799C1862.37 169.142 1830.87 241.039 1822.79 282.241C1814.2 326.085 1838.84 364.979 1821.4 370.588C1809.92 374.279 1789.42 360.496 1752.18 331.648C1637.88 243.123 1617.11 205.836 1581.55 212.297C1528.44 221.947 1540.55 317.59 1467.6 358.731C1465.94 359.666 1464.29 360.605 1462.58 361.468C1408.53 388.81 1339.14 371.163 1289.51 352.049M1950.82 82.5881C1870.4 170.895 1836.02 241.27 1825.43 280.881C1814.53 321.634 1837.55 358.177 1819.94 362.762C1808.26 365.806 1788.2 352.272 1752.49 324.627C1642.57 239.523 1621.01 201.991 1585.91 208.855C1532.78 219.243 1548.07 319.111 1475.25 362.689C1473.57 363.693 1471.9 364.699 1470.18 365.623C1415.86 394.746 1343.73 376.965 1292.33 357.745M1955.94 86.8956C1878.42 172.645 1848.58 244.004 1828.06 279.522C1822.71 318.367 1836.25 351.365 1818.48 354.939C1806.6 357.329 1786.98 344.062 1752.8 317.6C1647.26 235.915 1624.91 198.146 1590.26 205.405C1537.12 216.54 1555.59 320.648 1482.89 366.638C1481.2 367.707 1479.51 368.785 1477.76 369.775C1423.16 400.666 1348.29 382.774 1295.13 363.438M1961.06 91.2028C1886.44 174.396 1854.68 244.962 1830.69 278.164C1823.98 314.312 1834.95 344.545 1817.03 347.114C1804.94 348.847 1785.76 335.849 1753.12 310.587C1651.96 232.319 1628.81 194.324 1594.62 201.972C1541.46 213.863 1563.13 322.221 1490.54 370.605C1488.84 371.742 1487.13 372.888 1485.36 373.943C1430.48 406.59 1352.88 388.587 1297.94 369.144M1966.19 95.5103C1894.47 176.147 1860.79 245.917 1833.32 276.805C1825.24 310.259 1833.65 337.719 1815.57 339.291C1803.27 340.362 1784.53 327.631 1753.43 303.569C1656.64 228.718 1632.71 190.503 1598.98 198.533C1545.8 211.19 1570.68 323.805 1498.19 374.567C1496.47 375.77 1494.75 376.984 1492.95 378.105C1437.78 412.5 1357.46 394.398 1300.75 374.845M1971.31 99.8183C1902.49 177.898 1866.89 246.874 1835.96 275.445C1826.5 306.203 1832.35 330.881 1814.11 331.465C1801.61 331.867 1783.31 319.412 1753.74 296.554C1661.34 225.127 1636.61 186.691 1603.34 195.094C1550.15 208.528 1578.25 325.406 1505.84 378.529C1504.1 379.802 1502.36 381.079 1500.54 382.267C1445.08 418.402 1362.04 400.209 1303.56 380.546M1976.43 104.127C1910.52 179.646 1872.99 247.832 1838.58 274.08C1827.76 302.142 1831.04 324.033 1812.65 323.633C1799.94 323.359 1782.08 311.189 1754.05 289.521C1666.03 221.515 1640.51 182.87 1607.69 191.643C1554.49 205.862 1585.81 327.003 1513.48 382.475C1511.73 383.817 1509.98 385.159 1508.13 386.408C1452.36 424.277 1366.61 406.001 1306.37 386.228M1981.55 108.435C1918.54 181.397 1879.11 248.786 1841.22 272.728C1829.03 298.093 1829.74 317.187 1811.19 315.817C1798.28 314.863 1780.86 302.978 1754.36 282.508C1670.71 217.925 1644.41 179.074 1612.05 188.207C1558.84 203.224 1593.41 328.635 1521.13 386.441C1519.37 387.851 1517.59 389.26 1515.72 390.582C1459.64 430.17 1371.19 411.83 1309.17 391.939M1986.67 112.744C1926.57 183.147 1885.21 249.741 1843.85 271.366C1830.29 294.035 1828.45 310.329 1809.73 307.993C1796.61 306.354 1779.64 294.763 1754.67 275.49C1675.41 214.323 1648.31 175.273 1616.41 184.765C1563.19 200.59 1601.01 330.274 1528.78 390.399C1527 391.879 1525.2 393.354 1523.31 394.739C1466.93 436.052 1375.77 417.63 1311.98 397.64M1991.8 117.05C1934.59 184.898 1891.31 250.698 1846.48 270.009C1831.55 289.982 1827.16 303.468 1808.27 300.164C1794.95 297.838 1778.41 286.544 1754.99 268.463C1680.11 210.717 1652.23 171.481 1620.77 181.318C1567.55 197.961 1608.63 331.898 1536.43 394.353C1534.64 395.901 1532.82 397.44 1530.91 398.892C1474.21 441.922 1380.35 423.432 1314.8 403.329M1996.92 121.358C1942.62 186.648 1897.42 251.654 1849.11 268.65C1832.82 285.928 1825.87 296.6 1806.82 292.345C1793.3 289.325 1777.19 278.329 1755.29 261.45C1684.79 207.125 1656.13 167.702 1625.12 177.884C1571.9 195.355 1616.24 333.556 1544.07 398.309C1542.26 399.927 1540.43 401.53 1538.48 403.052C1481.47 447.798 1384.93 429.247 1317.61 409.04M2002.04 125.665C1950.64 188.398 1903.52 252.604 1851.75 267.291C1834.09 281.874 1824.59 289.727 1805.36 284.52C1791.65 280.805 1775.97 270.113 1755.61 254.436C1689.49 203.531 1660.05 163.929 1629.48 174.45C1576.27 192.762 1623.88 335.216 1551.72 402.283C1549.9 403.971 1548.05 405.637 1546.09 407.223C1488.73 453.664 1389.5 435.057 1320.41 414.732M2007.16 129.979C1958.67 190.155 1909.63 253.572 1854.38 265.937C1835.35 277.824 1823.31 282.861 1803.91 276.702C1790.01 272.298 1774.75 261.904 1755.92 247.417C1694.18 199.934 1663.96 160.155 1633.84 171.007C1580.63 190.165 1631.53 336.868 1559.36 406.231C1557.53 407.991 1555.65 409.72 1553.68 411.372C1495.99 459.526 1394.08 440.861 1323.22 420.422M2012.29 134.286C1966.69 191.892 1907.89 233.382 1857.01 264.573C1837.97 276.245 1822.03 275.978 1802.44 268.871C1788.36 263.769 1773.52 253.68 1756.23 240.391C1698.87 196.324 1667.88 156.38 1638.19 167.559C1585.01 187.586 1639.19 338.532 1567.01 410.195C1565.17 412.021 1563.27 413.817 1561.27 415.535C1503.24 465.391 1398.67 446.67 1326.03 426.13M2017.41 138.591C1974.71 193.655 1921.16 250.297 1859.64 263.218C1837.45 267.878 1820.77 269.104 1800.99 261.05C1786.72 255.247 1772.3 245.467 1756.54 233.374C1703.56 192.728 1671.8 152.621 1642.55 164.122C1589.39 185.021 1646.86 340.201 1574.66 414.156C1572.8 416.054 1570.88 417.908 1568.86 419.696C1510.38 471.146 1403.24 452.482 1328.83 431.831M2022.53 142.897C1982.74 195.402 1927.79 253.787 1862.27 261.857C1839.03 264.719 1819.5 262.224 1799.53 253.225C1785.08 246.72 1771.07 237.248 1756.85 226.353C1708.25 189.127 1675.68 148.745 1646.9 160.678C1593.87 182.676 1654.64 341.959 1582.3 418.113C1580.44 420.084 1578.49 421.997 1576.45 423.853C1517.67 477.056 1407.82 458.291 1331.65 437.529M2027.65 147.203C1990.76 197.149 1934.05 257.386 1864.91 260.495C1760.66 265.177 1699.03 136.824 1651.26 157.237C1596.8 180.506 1665.62 352.127 1584.04 428.012C1524.96 482.964 1412.39 464.101 1334.46 443.224" stroke="url(#paint0_linear_1_15)" stroke-opacity="0.5" stroke-miterlimit="10"/>
        <path d="M22.5232 197.289C141.531 269.609 225.57 565.009 177.225 635.531C145.53 681.761 21.0211 628.744 -16.9168 623.707C-68.6459 616.821 38.8569 606.84 79.1661 560.446C127.063 505.314 164.504 323.653 254.965 395.876C333.907 458.921 318.601 550.627 383.678 575.368C442.546 597.72 516.973 546.308 570.364 499.708M20.3858 202.413C133.126 274.768 213.382 560.377 169.091 628.79C140.067 673.607 22.3712 622.856 -12.6316 617.953C-61.1497 611.139 41.8402 601.411 81.0908 557.14C128.139 504.052 165.519 330.847 252.864 400.536C330.812 462.637 313.142 555.643 377.941 582.687C436.222 606.754 511.806 557.603 565.956 512.787M18.2578 207.51C124.731 279.899 201.211 555.7 160.976 622.025C134.622 665.429 23.7308 616.94 -8.33702 612.172C-53.6381 605.39 44.8329 595.954 83.0286 553.798C129.228 502.754 166.55 338.025 250.773 405.169C327.722 466.334 307.596 560.863 372.222 589.981C429.819 615.973 506.644 568.879 561.567 525.842M16.1255 212.647C116.328 285.079 189.046 551.036 152.847 615.296C129.175 657.26 25.0772 611.06 -4.05564 606.427C-46.1318 599.609 47.8361 590.501 84.9643 550.465C130.381 501.482 167.582 345.205 248.695 409.797C324.634 470.032 302.072 565.988 366.491 597.261C423.488 624.973 501.471 580.162 557.174 538.886M13.9923 217.762C107.981 290.251 176.892 546.325 144.727 608.549C123.74 649.066 26.4441 605.157 0.264759 600.615C-38.6144 593.853 50.8452 585.062 86.9006 547.133C131.505 500.209 168.611 352.394 246.606 414.431C321.547 473.731 296.597 571.019 360.784 604.56C417.153 634.011 496.329 591.446 552.786 551.943M11.8585 222.878C99.5938 295.417 164.745 541.595 136.597 601.799C118.307 640.841 27.8105 599.255 4.55728 594.843C-31.0687 588.077 53.8751 579.62 88.8363 543.8C132.64 498.93 169.636 359.591 244.521 419.077C318.443 477.443 291.095 576.091 355.054 611.86C410.816 643.05 491.195 602.735 548.395 565.008M9.7299 228.006C91.2069 300.584 152.644 536.728 128.472 595.061C112.893 632.592 29.1487 593.319 8.85344 589.062C-23.526 582.259 56.9012 574.188 90.7683 540.477C133.784 497.655 170.662 366.759 242.409 423.712C315.337 481.134 285.573 581.134 349.316 619.157C404.446 652.044 485.975 614.029 543.985 578.066M7.59621 233.121C82.8149 305.737 140.525 531.854 120.351 588.315C107.49 624.317 30.5795 587.412 13.1549 583.294C-15.9723 576.413 59.9542 568.766 92.7522 537.154C135.013 496.352 171.624 374.107 240.385 428.362C312.184 485.014 280.133 586.179 343.656 626.466C398.209 661.071 480.877 625.332 539.655 591.136M5.46289 238.237C74.4285 310.904 128.393 526.912 112.221 581.565C102.041 615.982 32.0055 581.493 17.4516 577.514C-8.35602 570.469 63.0076 563.345 94.6455 533.824C136.113 495.11 172.553 381.286 238.256 432.99C309.041 488.721 274.627 591.186 337.891 633.752C391.838 670.043 475.674 636.612 535.219 604.183M3.33812 243.356C66.0455 316.06 116.255 521.884 104.1 574.818C96.5754 607.607 33.4512 575.55 21.7442 571.742C-0.694357 564.439 66.0428 557.916 96.5813 530.491C137.301 493.853 173.621 388.48 236.203 437.66C305.974 492.469 269.191 596.223 332.202 641.08C385.555 679.052 470.551 647.925 530.868 617.275M1.20436 248.471C57.6586 321.227 104.068 516.773 95.9787 568.071C91.0675 599.184 34.9752 569.619 25.9922 565.952C7.06615 558.221 69.092 552.504 98.4726 527.14C138.458 492.572 174.589 395.664 234.033 442.26C302.777 496.154 263.633 601.177 326.397 648.338C379.171 687.956 465.298 659.174 526.383 630.291M-0.933126 253.596C49.2754 326.384 91.8231 511.576 87.8538 561.333C85.5084 590.709 35.7097 565.037 30.3418 560.194C13.7091 555.374 72.239 547.132 100.449 523.835C139.718 491.345 175.67 402.875 231.984 446.921C299.726 499.888 258.22 606.182 320.711 655.657C372.901 696.96 460.175 670.488 522.036 643.375M-3.0579 258.714C40.8798 331.546 79.4685 506.291 79.7238 554.583C79.8731 582.192 37.0497 559.248 34.6344 554.422C21.1915 549.8 75.3913 541.772 102.385 520.502C140.96 490.11 176.69 410.059 229.902 451.536C296.63 503.583 252.775 611.142 315.002 662.935C366.618 705.895 455.018 681.756 517.655 656.413M-5.19122 263.83C32.4971 336.704 66.9772 500.96 71.6031 547.837C74.1457 573.647 38.3812 553.456 38.9577 548.653C28.6994 544.218 78.5617 536.42 104.344 517.19C142.256 488.898 177.749 417.251 227.836 456.211C293.554 507.328 247.354 616.143 309.301 670.268C360.351 714.869 449.897 693.091 513.275 669.504M-7.32651 268.945C24.1087 341.869 54.3143 495.61 63.4804 541.089C68.3162 565.09 39.7196 547.667 43.222 542.869C36.1609 538.615 81.6961 531.074 106.263 513.819C143.554 487.624 178.764 424.392 225.729 460.806C290.445 510.997 241.904 621.059 303.558 677.521C354.047 723.775 444.698 704.331 508.87 682.522M-9.45152 274.064C15.7254 347.026 41.4678 490.33 55.3502 534.339C62.3735 556.56 41.0504 541.874 47.5232 537.102C43.6467 533.034 84.8815 525.76 108.183 510.522C144.846 486.545 179.789 431.589 223.624 465.476C287.346 514.722 236.468 626.044 297.826 684.852C347.774 732.736 439.522 715.644 504.467 695.614M-11.5852 279.179C7.33862 352.192 28.3522 485.146 47.2291 527.592C56.3407 548.096 42.3904 536.086 51.8195 531.321C51.1365 527.443 88.0828 520.483 110.119 507.189C146.196 485.428 180.824 438.76 221.551 470.095C284.27 518.393 231.075 630.952 292.108 692.126C341.514 741.64 434.366 726.912 500.078 708.649M-13.7226 284.303C-1.05334 357.346 15.0925 480.184 39.1043 520.854C50.2496 539.723 43.7215 530.293 56.1122 525.549C58.6226 521.861 91.3122 515.239 112.02 503.841C147.554 484.366 181.834 445.919 219.414 474.74C281.142 522.086 225.63 635.912 286.344 699.433C335.213 750.568 429.164 738.213 495.643 721.717M-15.8476 289.423C-9.44033 362.512 1.7153 475.454 30.983 514.108C44.1229 531.46 45.7769 526.396 60.4045 519.778C66.5012 517.016 94.5718 509.998 113.996 500.536C149.01 483.419 182.921 453.091 217.365 479.401C278.106 525.785 220.274 640.857 280.65 706.749C329 759.512 424.035 749.514 491.287 734.797M-17.9917 294.565C-17.8338 367.696 -11.7007 471.02 22.887 507.402C38.052 523.366 46.7053 519.717 64.7437 514.046C73.7943 511.197 97.8406 504.936 115.966 497.249C150.503 482.611 183.995 460.298 215.309 484.079C275.08 529.487 214.925 645.835 274.967 714.089C322.801 768.472 418.902 760.854 486.924 747.895M-20.1146 299.654C-26.2099 372.836 -25.0448 466.764 14.7322 500.611C31.9587 515.274 47.8242 513.306 69.0026 508.23C81.1338 505.316 101.056 499.802 117.864 493.88C151.947 481.867 185.053 467.364 213.192 488.651C272.073 532.991 209.626 650.617 269.215 721.319C316.61 777.259 413.715 772.069 482.51 760.889M-22.2394 304.773C-34.5929 377.993 -38.2913 462.723 6.61109 493.864C64.5874 534.131 156.206 452.15 211.1 493.314C268.97 536.724 204.164 655.642 263.487 728.64C310.298 786.266 408.545 783.394 478.111 773.971" stroke="url(#paint1_linear_1_15)" stroke-opacity="0.4" stroke-miterlimit="10"/>
    </g>
    <defs>
        <filter id="filter0_f_1_15" x="1021.23" y="-106.542" width="1201.54" height="1337.18" filterUnits="userSpaceOnUse" color-interpolation-filters="sRGB">
            <feFlood flood-opacity="0" result="BackgroundImageFix"/>
            <feBlend mode="normal" in="SourceGraphic" in2="BackgroundImageFix" result="shape"/>
            <feGaussianBlur stdDeviation="125" result="effect1_foregroundBlur_1_15"/>
        </filter>
        <filter id="filter1_f_1_15" x="611.915" y="26.7072" width="1176.78" height="1177.26" filterUnits="userSpaceOnUse" color-interpolation-filters="sRGB">
            <feFlood flood-opacity="0" result="BackgroundImageFix"/>
            <feBlend mode="normal" in="SourceGraphic" in2="BackgroundImageFix" result="shape"/>
            <feGaussianBlur stdDeviation="125" result="effect1_foregroundBlur_1_15"/>
        </filter>
        <filter id="filter2_f_1_15" x="-699.81" y="-484.031" width="871.757" height="943.634" filterUnits="userSpaceOnUse" color-interpolation-filters="sRGB">
            <feFlood flood-opacity="0" result="BackgroundImageFix"/>
            <feBlend mode="normal" in="SourceGraphic" in2="BackgroundImageFix" result="shape"/>
            <feGaussianBlur stdDeviation="125" result="effect1_foregroundBlur_1_15"/>
        </filter>
        <filter id="filter3_f_1_15" x="1054.07" y="-128.859" width="688.52" height="724.97" filterUnits="userSpaceOnUse" color-interpolation-filters="sRGB">
            <feFlood flood-opacity="0" result="BackgroundImageFix"/>
            <feBlend mode="normal" in="SourceGraphic" in2="BackgroundImageFix" result="shape"/>
            <feGaussianBlur stdDeviation="125" result="effect1_foregroundBlur_1_15"/>
        </filter>
        <filter id="filter4_f_1_15" x="-749.645" y="-667.8" width="1599" height="1544" filterUnits="userSpaceOnUse" color-interpolation-filters="sRGB">
            <feFlood flood-opacity="0" result="BackgroundImageFix"/>
            <feBlend mode="normal" in="SourceGraphic" in2="BackgroundImageFix" result="shape"/>
            <feGaussianBlur stdDeviation="125" result="effect1_foregroundBlur_1_15"/>
        </filter>
        <filter id="filter5_f_1_15" x="114.355" y="-934" width="1919" height="1848" filterUnits="userSpaceOnUse" color-interpolation-filters="sRGB">
            <feFlood flood-opacity="0" result="BackgroundImageFix"/>
            <feBlend mode="normal" in="SourceGraphic" in2="BackgroundImageFix" result="shape"/>
            <feGaussianBlur stdDeviation="125" result="effect1_foregroundBlur_1_15"/>
        </filter>
        <filter id="filter6_f_1_15" x="-567.645" y="175" width="1919" height="1848" filterUnits="userSpaceOnUse" color-interpolation-filters="sRGB">
            <feFlood flood-opacity="0" result="BackgroundImageFix"/>
            <feBlend mode="normal" in="SourceGraphic" in2="BackgroundImageFix" result="shape"/>
            <feGaussianBlur stdDeviation="125" result="effect1_foregroundBlur_1_15"/>
        </filter>
        <filter id="filter7_f_1_15" x="463.355" y="-934" width="1570" height="1516" filterUnits="userSpaceOnUse" color-interpolation-filters="sRGB">
            <feFlood flood-opacity="0" result="BackgroundImageFix"/>
            <feBlend mode="normal" in="SourceGraphic" in2="BackgroundImageFix" result="shape"/>
            <feGaussianBlur stdDeviation="125" result="effect1_foregroundBlur_1_15"/>
        </filter>
        <linearGradient id="paint0_linear_1_15" x1="1518" y1="530" x2="1886.34" y2="556.609" gradientUnits="userSpaceOnUse">
            <stop stop-color="#7758F6" stop-opacity="0"/>
            <stop offset="0.572917" stop-color="#365BDD"/>
            <stop offset="1" stop-color="#7758F6" stop-opacity="0"/>
        </linearGradient>
        <linearGradient id="paint1_linear_1_15" x1="448" y1="628" x2="197.671" y2="133.508" gradientUnits="userSpaceOnUse">
            <stop stop-color="#7758F6" stop-opacity="0"/>
            <stop offset="0.21875" stop-color="#7758F6" stop-opacity="0.18"/>
            <stop offset="0.572917" stop-color="#365BDD" stop-opacity="0.7"/>
            <stop offset="0.770833" stop-color="#7758F6" stop-opacity="0.1"/>
            <stop offset="1" stop-color="#7758F6" stop-opacity="0"/>
        </linearGradient>
    </defs>
</svg>
