<svg width="1920" height="627" viewBox="0 0 1920 627" fill="none" xmlns="http://www.w3.org/2000/svg">
    <mask id="mask0_1_346" style="mask-type:alpha" maskUnits="userSpaceOnUse" x="0" y="0" width="1920" height="627">
        <rect width="1920" height="627" fill="#131416"/>
    </mask>
    <g mask="url(#mask0_1_346)">
        <rect width="1920" height="627" fill="#131416"/>
        <g opacity="0.15" filter="url(#filter0_f_1_346)">
            <path d="M98.6344 466.667C-50.8035 338.09 51.9429 144.287 121.996 63.4575C-734.068 288.9 -265.449 456.73 -292.152 711.373C-318.855 966.016 187.476 923.185 270.264 817.57C353.053 711.955 285.432 627.389 98.6344 466.667Z" fill="#41EAD4"/>
        </g>
        <g opacity="0.1" filter="url(#filter1_f_1_346)">
            <path d="M303.819 584.655C299.932 424.105 124.758 388.811 37.6571 391.233C621.646 -31.8791 485.503 350.08 659.763 464.703C834.023 579.327 545.654 876.305 436.358 873.958C327.063 871.61 308.677 785.341 303.819 584.655Z" fill="#41ADEA"/>
        </g>
        <g opacity="0.5" filter="url(#filter2_f_1_346)">
            <path d="M1763.83 -100.363C1843.02 -168.498 1788.57 -271.198 1751.45 -314.031C2205.09 -194.565 1956.76 -105.629 1970.91 29.3109C1985.06 164.251 1716.75 141.554 1672.88 85.5865C1629.01 29.6193 1664.84 -15.1937 1763.83 -100.363Z" fill="#41EAD4"/>
        </g>
        <g opacity="0.5" filter="url(#filter3_f_1_346)">
            <path d="M139.25 149.493C179.407 114.941 151.797 62.8616 132.972 41.1407C363.017 101.723 237.088 146.823 244.264 215.252C251.439 283.68 115.376 272.171 93.1286 243.789C70.8812 215.408 89.0527 192.683 139.25 149.493Z" fill="#7758F6"/>
        </g>
        <g opacity="0.1" filter="url(#filter4_f_1_346)">
            <path fill-rule="evenodd" clip-rule="evenodd" d="M1504.14 -494.439C1675.69 -516.177 1847.04 -430.464 1955.4 -295.696C2064.26 -160.301 2105.27 23.6726 2054.22 189.735C2006.91 343.657 1860.64 433.858 1712.05 495.918C1575.39 552.995 1426.19 567.013 1289.96 508.942C1145.02 447.163 1004.87 339.401 979.891 183.837C956.062 35.4069 1084.69 -78.0695 1176.62 -197.013C1271.5 -319.773 1350.22 -474.934 1504.14 -494.439Z" fill="#7758F6"/>
        </g>
        <g opacity="0.07" filter="url(#filter5_f_1_346)">
            <path fill-rule="evenodd" clip-rule="evenodd" d="M473.627 -759.66C695.13 -787.728 916.374 -677.056 1056.28 -503.045C1196.84 -328.225 1249.8 -90.6808 1183.88 123.737C1122.79 322.479 933.928 438.946 742.075 519.077C565.626 592.773 372.988 610.873 197.081 535.893C9.94395 456.125 -171.021 316.984 -203.267 116.122C-234.035 -75.5296 -67.9548 -222.049 50.7462 -375.627C173.256 -534.133 274.888 -734.476 473.627 -759.66Z" fill="#41EAD4"/>
        </g>
        <g opacity="0.1" filter="url(#filter6_f_1_346)">
            <path fill-rule="evenodd" clip-rule="evenodd" d="M1213.37 349.34C991.87 321.272 770.626 431.944 630.72 605.955C490.163 780.775 437.204 1018.32 503.117 1232.74C564.211 1431.48 753.072 1547.95 944.925 1628.08C1121.37 1701.77 1314.01 1719.87 1489.92 1644.89C1677.06 1565.12 1858.02 1425.98 1890.27 1225.12C1921.03 1033.47 1754.95 886.951 1636.25 733.373C1513.74 574.866 1412.11 374.524 1213.37 349.34Z" fill="#41EAD4"/>
        </g>
        <g opacity="0.15" filter="url(#filter7_f_1_346)">
            <path fill-rule="evenodd" clip-rule="evenodd" d="M306.228 -760.729C473.253 -781.884 640.083 -698.47 745.579 -567.316C851.566 -435.552 891.5 -256.513 841.799 -94.9043C795.731 54.889 653.319 142.672 508.652 203.067C375.601 258.613 230.341 272.255 97.6982 215.741C-43.4129 155.619 -179.87 50.7479 -204.185 -100.644C-227.386 -245.094 -102.153 -355.526 -12.6459 -471.28C79.733 -590.747 156.369 -741.747 306.228 -760.729Z" fill="#BE41EA"/>
        </g>
        <path d="M1610.66 -149.729C1710.12 -94.6519 1788.26 143.516 1751.09 202.62C1726.72 241.365 1623.4 202.212 1592.27 199.348C1549.84 195.43 1637.24 183.762 1668.64 144.6C1705.94 98.0624 1730.62 -51.328 1806.78 4.60724C1873.24 53.4347 1863.71 128.732 1917.62 146.775C1966.38 163.073 2025.46 118.699 2067.52 78.939M1609.08 -145.48C1703.43 -90.1686 1778.16 140.138 1744.23 197.389C1722 234.893 1624.31 197.365 1595.59 194.515C1555.77 190.55 1639.5 179.235 1670.1 141.84C1706.78 96.9979 1731.68 -45.4942 1805.21 8.47699C1870.83 56.5671 1859.42 133.003 1913.18 152.932C1961.51 170.648 2021.61 128.08 2064.35 89.7512M1607.51 -141.253C1696.74 -85.7081 1768.08 136.723 1737.39 192.137C1717.29 228.402 1625.23 192.495 1598.9 189.659C1561.72 185.615 1641.77 174.686 1671.57 139.051C1707.62 95.9032 1732.75 -39.6731 1803.65 12.3239C1868.43 59.6841 1855.06 137.442 1908.74 159.069C1956.59 178.377 2017.76 137.446 2061.19 100.543M1605.94 -136.993C1690.05 -81.2073 1758 133.318 1730.54 186.916C1712.58 221.919 1626.14 187.655 1602.21 184.833C1567.65 180.653 1644.04 170.141 1673.05 136.269C1708.52 94.8283 1733.83 -33.8512 1802.11 16.167C1866.03 62.8019 1850.72 141.803 1904.3 165.194C1951.71 185.925 2013.9 146.818 2058.02 111.326M1604.36 -132.751C1683.41 -76.7149 1747.93 129.875 1723.7 181.68C1707.88 215.414 1627.06 182.796 1605.55 179.951C1573.6 175.712 1646.32 165.606 1674.52 133.488C1709.4 93.7527 1734.9 -28.0219 1800.55 20.0148C1863.63 65.9197 1846.42 146.086 1899.88 171.335C1946.83 193.505 2010.07 156.19 2054.86 122.119M1602.79 -128.509C1676.73 -72.2262 1737.86 126.416 1716.84 176.442C1703.18 208.884 1627.98 177.937 1608.87 175.102C1579.57 170.754 1648.62 161.068 1675.99 130.706C1710.28 92.6722 1735.97 -22.1854 1799 23.8724C1861.22 69.0494 1842.09 150.403 1895.44 177.477C1941.96 201.085 2006.25 165.565 2051.7 132.919M1601.22 -124.257C1670.06 -67.7374 1727.83 122.844 1709.99 171.213C1698.49 202.334 1628.88 173.053 1612.18 170.247C1585.54 165.76 1650.91 156.538 1677.46 127.932C1711.18 91.5946 1737.04 -16.3736 1797.43 27.7221C1858.8 72.1617 1837.75 154.697 1891 183.617C1937.05 208.629 2002.35 174.948 2048.53 143.713M1599.64 -120.015C1663.37 -63.2589 1717.78 119.266 1703.15 165.977C1693.82 195.763 1629.86 168.188 1615.51 165.401C1591.52 160.745 1653.23 152.016 1678.97 125.156C1712.14 90.4916 1738.06 -10.4119 1795.93 31.5812C1856.35 75.4294 1833.47 158.991 1886.61 189.763C1932.25 216.196 1998.56 184.334 2045.42 154.515M1598.07 -115.772C1656.7 -58.7698 1707.72 115.634 1696.3 160.739C1689.1 189.143 1630.83 163.313 1618.83 160.546C1597.54 155.647 1655.54 147.495 1680.41 122.379C1713 89.443 1739.05 -4.5874 1794.34 35.4257C1853.91 78.556 1829.14 163.256 1882.14 195.895C1927.34 223.723 1994.68 193.705 2042.22 165.302M1596.5 -111.528C1650.02 -54.2887 1697.66 111.931 1689.45 155.503C1684.37 182.492 1631.82 158.418 1622.14 155.698C1603.6 150.478 1657.85 142.967 1681.88 119.597C1713.92 88.3786 1740.15 1.24502 1792.82 39.3014C1851.53 81.7138 1824.87 167.541 1877.74 202.058C1922.51 231.277 1990.86 203.1 2039.09 176.123M1594.92 -107.286C1643.35 -49.8 1687.55 108.163 1682.6 150.267C1679.6 175.804 1632.87 153.531 1625.42 150.836C1609.73 145.152 1660.16 138.452 1683.32 116.802C1714.83 87.2962 1741.18 7.07261 1791.19 43.1246C1849.04 84.8236 1820.49 171.765 1873.24 208.169C1917.59 238.749 1986.94 212.447 2035.85 186.885M1593.34 -103.036C1636.67 -45.3185 1677.39 104.326 1675.76 145.038C1674.79 169.074 1633.32 149.77 1628.79 145.997C1615.06 142.611 1662.55 133.968 1684.82 114.041C1715.82 86.2539 1742.29 12.9182 1789.67 46.9932C1846.67 87.9697 1816.24 176.024 1868.83 214.325C1912.76 246.298 1983.12 221.843 2032.73 197.699M1591.77 -98.7914C1629.99 -40.8328 1667.13 100.421 1668.9 139.799C1669.92 162.312 1634.23 145.005 1632.1 141.148C1620.98 137.82 1664.95 129.493 1686.29 111.26C1716.79 85.2059 1743.36 18.7444 1788.12 50.8259C1844.26 91.0845 1811.95 180.248 1864.41 220.448C1907.92 253.792 1979.28 231.202 2029.58 208.477M1590.2 -94.5489C1623.31 -36.351 1656.77 96.4836 1662.06 134.564C1664.97 155.531 1635.13 140.237 1635.44 136.301C1626.93 133.02 1667.37 125.024 1687.78 108.494C1717.81 84.1748 1744.45 24.5747 1786.59 54.7068C1841.87 94.2401 1807.69 184.505 1859.99 226.616C1903.1 261.316 1975.47 240.615 2026.42 219.297M1588.62 -90.3076C1616.63 -31.8631 1646.26 92.5355 1655.21 129.327C1659.93 148.743 1636.03 135.472 1638.74 131.444C1632.84 128.206 1669.75 120.561 1689.24 105.681C1718.83 83.0929 1745.51 30.3655 1785.02 58.5235C1839.45 97.3342 1803.4 188.693 1855.54 232.72C1898.24 268.787 1971.59 249.953 2023.25 230.059M1587.05 -86.0625C1609.96 -27.3815 1635.6 88.6508 1648.36 124.089C1654.81 141.981 1636.93 130.704 1642.06 126.599C1638.76 123.408 1672.18 116.122 1690.7 102.929C1719.85 82.171 1746.58 36.2022 1783.45 62.4008C1837.05 100.474 1799.13 192.937 1851.1 238.887C1893.41 276.301 1967.73 259.349 2020.08 240.882M1585.48 -81.8205C1603.28 -22.8929 1624.73 84.8533 1641.51 118.852C1649.61 135.276 1637.84 125.938 1645.38 121.743C1644.7 118.603 1674.62 111.714 1692.17 100.148C1720.91 81.2154 1747.66 42.0165 1781.91 66.2362C1834.65 103.57 1794.89 197.118 1846.67 245.007C1888.59 283.769 1963.89 268.709 2016.92 251.657M1583.9 -77.5712C1596.6 -18.4144 1613.75 81.2413 1634.66 113.624C1644.37 128.647 1638.74 121.17 1648.69 116.895C1650.62 113.804 1677.09 107.331 1693.62 97.3549C1721.98 80.3048 1748.71 47.8226 1780.32 70.0949C1832.22 106.684 1790.6 201.341 1842.2 251.156C1883.74 291.257 1960.01 278.097 2013.73 262.46M1582.33 -73.3261C1589.92 -13.9255 1602.68 77.823 1627.82 108.388C1639.1 122.109 1640.29 117.924 1652.01 112.047C1656.9 109.594 1679.58 102.948 1695.12 94.5944C1723.14 79.4842 1749.83 53.6361 1778.79 73.9637C1829.86 109.8 1786.39 205.55 1837.79 257.31C1878.96 298.756 1956.19 287.482 2010.59 273.272M1580.75 -69.0621C1583.24 -9.42218 1591.59 74.6473 1620.99 103.185C1633.89 115.707 1640.83 112.447 1655.37 107.229C1662.66 104.609 1682.08 98.7132 1696.62 91.8483C1724.33 78.7761 1750.94 59.4787 1777.27 77.8469C1827.51 112.919 1782.19 209.786 1833.39 263.483C1874.19 306.267 1952.37 296.899 2007.46 284.097M1579.18 -64.8415C1576.57 -4.95506 1580.56 71.6135 1614.12 97.9137C1628.65 109.307 1641.54 107.181 1658.65 102.346C1668.46 99.5712 1684.54 94.4199 1698.06 89.0389C1725.49 78.1222 1752.04 65.2072 1775.69 81.6446C1825.17 115.876 1778.02 213.86 1828.93 269.568C1869.42 313.637 1948.5 306.216 2004.28 294.84M1577.61 -60.5969C1569.9 -0.473954 1569.62 68.7531 1607.27 92.6775C1655.89 123.616 1728 53.7452 1774.13 85.5168C1822.76 119.022 1773.72 218.138 1824.5 275.727C1864.56 321.19 1944.64 315.622 2001.11 305.654" stroke="url(#paint0_linear_1_346)" stroke-opacity="0.4" stroke-miterlimit="10"/>
        <path d="M461.742 416.485C473.141 355.682 403.832 291.316 342.189 271.393C271.151 248.442 227.456 290.064 178.796 256.553C134.385 225.988 148.096 175.679 114.592 155.746C83.8011 137.429 21.2336 149.576 -115.027 268.084M-113.102 276.016C21.3881 159.288 84.3735 145.998 116.081 163.151C139.569 175.898 141.121 203.091 154.341 228.388C160.841 241.308 170.446 252.41 182.296 260.698C221.098 287.88 256.221 268.447 306.302 271.896C319.079 272.739 331.712 275.082 343.942 278.876C406.148 297.951 476.199 357.101 466.773 416.215M-111.161 283.931C21.5564 168.993 84.9262 154.561 117.476 170.537C141.401 182.282 143.909 208.525 157.49 232.884C164.339 245.535 173.987 256.454 185.696 264.809C223.807 291.993 257.982 275.342 308.034 279.406C320.762 280.414 333.351 282.737 345.601 286.339C408.317 304.761 479.166 358.491 471.714 415.915M-109.223 291.822C21.6909 178.698 85.4719 163.144 118.914 177.925C143.29 188.696 146.721 213.955 160.688 237.396C167.868 249.766 177.546 260.504 189.106 268.924C226.565 296.123 259.706 282.213 309.776 286.919C322.469 288.067 335.032 290.365 347.309 293.786C410.563 311.44 482.173 359.86 476.695 415.595M-107.301 299.764C21.8488 188.4 85.9941 171.731 120.359 185.327C145.153 195.123 149.555 219.416 163.91 241.905C171.426 254.001 181.155 264.572 192.586 273.063C229.394 300.276 261.527 289.128 311.638 294.473C324.264 295.78 336.769 298.058 349.045 301.286C412.845 318.176 485.214 361.296 481.719 415.345M-105.413 307.672C21.9968 198.098 86.8736 179.355 121.807 192.72C146.752 202.231 152.413 224.806 167.108 246.417C174.96 258.222 184.739 268.625 196.037 277.191C232.192 304.419 263.297 296.027 313.377 301.996C325.952 303.44 338.421 305.692 350.707 308.738C415.068 324.824 488.184 362.675 486.66 415.045M-103.435 315.611C22.1515 207.81 87.0153 188.973 123.263 200.058C148.821 208.014 155.271 230.263 170.313 250.942C178.491 262.45 188.32 272.689 199.483 281.329C234.987 308.572 265.098 302.935 315.156 309.533C327.678 311.125 340.11 313.358 352.402 316.225C417.311 331.547 491.198 364.057 491.637 414.768M-101.507 323.532C22.2794 217.502 87.5342 197.536 124.691 207.51C150.66 214.444 158.18 235.637 173.525 255.448C182.022 266.647 191.907 276.721 202.944 285.428C237.782 312.692 266.892 309.83 316.948 317.03C328.591 318.718 340.948 320.735 354.115 323.661C419.59 338.193 494.202 365.47 496.621 414.472M-99.579 331.454C22.454 227.22 88.0161 206.209 126.136 214.879C152.495 220.885 161.094 241.024 176.76 259.95C185.578 270.837 195.522 280.761 206.427 289.556C240.614 316.836 268.713 316.712 318.76 324.567C330.413 326.392 342.733 328.419 355.857 331.141C421.806 344.861 497.209 366.873 501.606 414.175M-97.6373 339.369C22.6122 236.922 88.505 214.862 127.574 222.301C154.311 227.385 164.053 246.448 179.935 264.465C189.06 275.031 199.061 284.808 209.831 293.691C243.376 320.989 270.467 323.627 320.519 332.063C332.131 334.009 344.462 336.039 357.539 338.567C424.129 351.477 500.237 368.215 506.604 413.838M-95.7093 347.291C22.7601 246.62 88.9869 223.535 128.992 229.683C156.103 233.856 166.955 251.808 183.12 268.984C192.555 279.213 202.622 288.842 213.261 297.813C246.144 325.122 272.231 330.512 322.265 339.633C333.88 341.736 346.183 343.747 359.201 346.087C426.362 358.163 503.197 369.658 511.557 413.598M-93.7813 355.213C22.9147 256.332 89.4888 232.215 130.461 237.082C157.951 240.356 169.93 257.182 186.338 273.503C195.772 282.88 205.46 292.398 216.731 301.948C248.966 329.262 274.042 337.423 324.067 347.167C335.668 349.41 347.955 351.404 360.943 353.567C428.675 364.809 506.247 371.064 516.568 413.322M-91.8529 363.134C23.0595 266.074 89.9143 240.891 131.896 244.481C159.77 246.847 172.912 262.536 189.547 278.018C199.363 287.156 209.134 296.524 220.182 306.076C251.754 333.435 275.826 344.315 325.849 354.694C337.433 357.087 349.714 359.068 362.626 361.027C430.925 371.411 509.238 372.45 521.529 413.028M-89.9451 371.049C23.2174 275.742 90.446 249.615 133.331 251.88C161.579 253.368 175.897 267.88 192.752 282.544C202.966 291.425 212.808 300.65 223.588 310.201C254.529 337.548 277.563 351.213 327.625 362.241C339.208 364.767 351.462 366.728 364.321 368.513C433.204 378.023 512.248 373.842 526.51 412.742M-87.9832 378.971C23.3757 285.444 90.9014 258.335 134.78 259.272C163.415 259.875 178.903 273.198 195.954 287.046C206.57 295.661 216.496 304.769 227.082 314.333C257.351 341.688 279.401 358.112 329.411 369.757C341.509 372.443 353.737 374.508 366.047 375.943C435.477 384.622 515.283 375.265 531.495 412.445M-86.0552 386.893C23.5303 295.156 91.4466 267.051 136.188 266.651C165.206 266.379 181.882 278.495 199.172 291.565C210.193 299.904 220.183 308.888 230.532 318.462C260.16 345.835 281.192 365.017 331.173 377.277C343.21 380.111 355.417 382.167 367.719 383.432C437.77 391.161 518.263 376.647 536.499 412.122M-84.1272 394.814C23.6782 304.854 91.9683 275.838 137.666 274.053C167.042 272.92 184.927 283.792 202.374 296.067C213.804 304.119 223.847 313.01 233.972 322.587C262.938 349.971 282.976 371.908 332.975 384.811C344.955 387.78 357.147 389.818 369.441 390.906C440.03 397.766 521.27 378.05 541.466 411.875M-82.1889 402.739C23.8196 314.606 92.4202 284.568 139.101 281.452C168.891 279.454 187.95 289.059 205.572 300.579C217.458 308.339 227.525 317.126 237.423 326.715C265.743 354.095 284.757 378.81 334.754 392.348C346.677 395.445 358.855 397.465 371.14 398.382C442.303 404.331 524.281 379.443 546.447 411.588M-80.2608 410.661C23.9409 324.251 92.9252 293.338 140.536 288.884C170.712 286.035 190.952 294.353 208.76 305.155C221.021 312.628 231.199 321.318 240.853 330.904C268.515 358.318 286.527 385.775 336.523 399.915C348.389 403.14 360.554 405.142 372.829 405.888C444.569 410.917 527.318 380.922 551.415 411.342M-78.3329 418.583C24.1355 333.976 93.4402 302.111 141.985 296.242C172.571 292.539 193.988 299.546 211.989 309.61C224.685 316.717 234.883 325.381 244.316 334.992C271.317 362.418 288.325 392.627 338.311 407.421C350.119 410.78 362.275 412.765 374.537 413.335C446.856 417.409 530.298 382.238 556.409 411.015M-76.3912 426.498C24.2937 343.678 93.9386 310.935 143.393 303.621C174.373 299.079 196.963 304.753 215.148 314.109C228.276 320.859 238.521 329.483 247.727 339.073C274.082 366.527 290.083 399.498 340.06 414.915C351.814 418.397 363.964 420.365 376.217 420.771C449.09 423.794 533.266 383.627 561.373 410.712M-74.4735 434.416C86.0411 302.889 170.508 296.05 218.396 318.638C270.672 343.294 274.436 400.791 341.879 422.465C420.998 447.88 531.219 380.729 566.374 410.432" stroke="url(#paint1_linear_1_346)" stroke-opacity="0.5" stroke-miterlimit="10"/>
    </g>
    <defs>
        <filter id="filter0_f_1_346" x="-646.416" y="-186.542" width="1201.54" height="1337.18" filterUnits="userSpaceOnUse" color-interpolation-filters="sRGB">
            <feFlood flood-opacity="0" result="BackgroundImageFix"/>
            <feBlend mode="normal" in="SourceGraphic" in2="BackgroundImageFix" result="shape"/>
            <feGaussianBlur stdDeviation="125" result="effect1_foregroundBlur_1_346"/>
        </filter>
        <filter id="filter1_f_1_346" x="-212.343" y="-53.2929" width="1176.78" height="1177.26" filterUnits="userSpaceOnUse" color-interpolation-filters="sRGB">
            <feFlood flood-opacity="0" result="BackgroundImageFix"/>
            <feBlend mode="normal" in="SourceGraphic" in2="BackgroundImageFix" result="shape"/>
            <feGaussianBlur stdDeviation="125" result="effect1_foregroundBlur_1_346"/>
        </filter>
        <filter id="filter2_f_1_346" x="1404.41" y="-564.031" width="871.757" height="943.634" filterUnits="userSpaceOnUse" color-interpolation-filters="sRGB">
            <feFlood flood-opacity="0" result="BackgroundImageFix"/>
            <feBlend mode="normal" in="SourceGraphic" in2="BackgroundImageFix" result="shape"/>
            <feGaussianBlur stdDeviation="125" result="effect1_foregroundBlur_1_346"/>
        </filter>
        <filter id="filter3_f_1_346" x="-166.238" y="-208.859" width="688.52" height="724.97" filterUnits="userSpaceOnUse" color-interpolation-filters="sRGB">
            <feFlood flood-opacity="0" result="BackgroundImageFix"/>
            <feBlend mode="normal" in="SourceGraphic" in2="BackgroundImageFix" result="shape"/>
            <feGaussianBlur stdDeviation="125" result="effect1_foregroundBlur_1_346"/>
        </filter>
        <filter id="filter4_f_1_346" x="727" y="-747.8" width="1599" height="1544" filterUnits="userSpaceOnUse" color-interpolation-filters="sRGB">
            <feFlood flood-opacity="0" result="BackgroundImageFix"/>
            <feBlend mode="normal" in="SourceGraphic" in2="BackgroundImageFix" result="shape"/>
            <feGaussianBlur stdDeviation="125" result="effect1_foregroundBlur_1_346"/>
        </filter>
        <filter id="filter5_f_1_346" x="-457" y="-1014" width="1919" height="1848" filterUnits="userSpaceOnUse" color-interpolation-filters="sRGB">
            <feFlood flood-opacity="0" result="BackgroundImageFix"/>
            <feBlend mode="normal" in="SourceGraphic" in2="BackgroundImageFix" result="shape"/>
            <feGaussianBlur stdDeviation="125" result="effect1_foregroundBlur_1_346"/>
        </filter>
        <filter id="filter6_f_1_346" x="225" y="95" width="1919" height="1848" filterUnits="userSpaceOnUse" color-interpolation-filters="sRGB">
            <feFlood flood-opacity="0" result="BackgroundImageFix"/>
            <feBlend mode="normal" in="SourceGraphic" in2="BackgroundImageFix" result="shape"/>
            <feGaussianBlur stdDeviation="125" result="effect1_foregroundBlur_1_346"/>
        </filter>
        <filter id="filter7_f_1_346" x="-457" y="-1014" width="1570" height="1516" filterUnits="userSpaceOnUse" color-interpolation-filters="sRGB">
            <feFlood flood-opacity="0" result="BackgroundImageFix"/>
            <feBlend mode="normal" in="SourceGraphic" in2="BackgroundImageFix" result="shape"/>
            <feGaussianBlur stdDeviation="125" result="effect1_foregroundBlur_1_346"/>
        </filter>
        <linearGradient id="paint0_linear_1_346" x1="1977.92" y1="187.528" x2="1605.71" y2="-54.4278" gradientUnits="userSpaceOnUse">
            <stop stop-color="#7758F6" stop-opacity="0"/>
            <stop offset="0.21875" stop-color="#7758F6" stop-opacity="0.18"/>
            <stop offset="0.572917" stop-color="#365BDD" stop-opacity="0.7"/>
            <stop offset="0.770833" stop-color="#7758F6" stop-opacity="0.1"/>
            <stop offset="1" stop-color="#7758F6" stop-opacity="0"/>
        </linearGradient>
        <linearGradient id="paint1_linear_1_346" x1="252.057" y1="379.248" x2="248.367" y2="181.29" gradientUnits="userSpaceOnUse">
            <stop stop-color="#7758F6" stop-opacity="0"/>
            <stop offset="0.572917" stop-color="#365BDD"/>
            <stop offset="1" stop-color="#7758F6" stop-opacity="0"/>
        </linearGradient>
    </defs>
</svg>
