<svg width="557" height="387" viewBox="0 0 557 387" fill="none" xmlns="http://www.w3.org/2000/svg">
    <path d="M715.121 188.761C708.173 114.881 606.98 63.5646 529.315 60.9625C439.815 57.9729 403.185 120.408 336 97.8464C274.688 77.2787 273.873 14.7351 228.652 2.82227C187.093 -8.12382 118.96 26.56 1 208.243M5.84048 216.753C122.348 37.7077 190.585 1.56874 232.816 10.8698C264.113 17.8063 274.889 48.6496 298.493 73.4515C310.257 86.2008 325.003 95.8283 341.406 101.47C395.132 119.99 429.21 85.9752 488.099 73.402C503.111 70.1524 518.453 68.679 533.809 69.0124C611.843 70.4508 712.167 115.508 720.833 186.787M10.6952 225.239C125.749 48.8433 194.053 11.2603 236.865 18.9249C268.336 24.5618 279.9 53.9939 303.609 77.5947C315.689 89.9191 330.422 99.3222 346.685 105.087C399.615 123.838 433.52 93.3439 492.578 81.4895C507.588 78.4455 522.873 76.9644 538.188 77.0698C616.595 77.5859 716.048 116.129 726.432 184.809M15.538 233.698C129.112 59.9898 197.518 20.977 240.965 26.9696C272.633 31.3334 284.936 59.3266 308.788 81.7406C321.156 93.632 335.865 102.815 351.977 108.705C404.16 127.689 437.778 100.698 497.07 89.5774C512.086 86.7062 527.332 85.2047 542.619 85.0915C621.392 84.5453 719.968 116.714 732.07 182.793M20.3779 242.221C132.5 71.1248 200.958 30.7053 245.078 35.0276C276.905 38.1292 290.009 64.6864 313.994 85.8751C326.658 97.3397 341.37 106.314 357.358 112.327C408.794 131.543 442.163 108.07 501.714 97.6723C516.704 95.0075 531.877 93.5011 547.099 93.1662C626.25 91.5582 723.948 117.365 737.78 180.845M25.1684 250.716C135.876 82.2593 204.492 39.2066 249.191 43.0729C281.099 45.7973 295.086 69.9576 319.173 90.0211C332.129 101.039 346.843 109.803 362.701 115.947C413.39 135.396 446.484 115.439 506.205 105.773C521.182 103.282 536.305 101.758 551.478 101.211C631.01 98.4906 727.829 117.974 743.378 178.866M30.0731 259.216C139.263 93.407 207.834 50.2506 253.294 51.0542C285.394 51.7818 300.185 75.3059 324.364 94.1803C337.597 104.748 352.315 113.306 368.043 119.58C417.986 139.262 450.844 122.81 510.747 113.876C525.712 111.573 540.785 110.041 555.908 109.283C635.817 105.501 731.762 118.572 749.027 176.902M34.9141 267.714C142.614 104.54 211.262 59.9531 257.404 59.1756C289.64 58.5891 305.315 80.5413 329.556 98.3143C343.056 108.421 357.784 116.77 373.387 123.163C422.57 143.088 455.191 130.168 515.291 121.928C529.274 120.027 544.19 118.27 560.339 117.292C640.642 112.411 735.692 119.208 754.676 174.913M39.7552 276.211C146.027 115.689 214.684 69.7948 261.505 67.1949C293.885 65.409 310.456 85.79 334.775 102.437C348.541 112.077 363.287 120.234 378.769 126.772C427.205 146.93 459.565 137.502 519.871 130.02C533.911 128.274 548.788 126.54 564.82 125.342C645.401 119.369 739.623 119.832 760.325 172.924M44.6099 284.696C149.415 126.824 218.107 79.6112 265.617 75.2782C298.127 72.305 315.66 91.0669 339.928 106.594C353.943 115.762 368.705 123.731 384.06 130.415C431.762 150.807 463.873 144.896 524.377 138.083C538.41 136.489 553.299 134.756 569.214 133.349C650.266 126.23 743.558 120.379 765.977 170.884M49.451 293.194C152.791 137.959 221.529 89.4529 269.691 83.3218C302.331 79.1739 320.778 96.2891 345.094 110.752C359.355 119.43 374.145 127.206 389.377 134.034C436.32 154.658 468.183 152.252 528.891 146.236C542.979 144.822 557.831 143.074 573.616 141.471C655.05 133.201 747.448 121.064 771.61 168.97M54.292 301.691C156.179 149.106 224.976 99.2959 273.83 91.3682C306.612 86.059 325.984 101.503 350.299 114.899C364.276 122.595 378.592 130.369 394.745 137.656C440.942 158.499 472.555 159.623 533.459 154.327C547.577 153.08 562.405 151.318 578.097 149.52C659.913 140.1 751.431 121.678 777.297 166.995M59.1336 310.188C159.565 160.292 228.334 109.16 277.93 99.4256C310.854 92.9423 331.193 106.691 355.491 119.046C369.829 126.339 384.193 133.912 400.089 141.276C445.537 162.39 476.89 166.981 538.002 162.417C552.15 161.349 566.965 159.574 582.502 157.566C664.69 146.97 755.337 122.287 782.921 165.017M63.9492 318.685C162.942 171.388 231.83 119.043 282.029 107.483C315.094 99.8636 336.401 111.866 360.682 123.205C375.395 130.071 389.792 137.455 405.38 144.907C450.096 166.216 481.173 174.361 542.543 170.533C556.735 169.619 571.513 167.83 586.931 165.639C669.503 153.841 759.269 122.898 788.569 163.041M68.8294 327.171C166.331 182.524 235.237 128.948 286.143 115.528C319.362 106.761 341.624 117.005 365.862 127.339C380.951 133.764 395.406 140.987 410.774 148.517C454.718 170.057 485.572 181.708 547.086 178.611C561.925 177.709 576.708 176.049 591.376 173.636C674.305 160.699 763.238 123.536 794.219 161.051M73.6705 335.669C169.719 193.671 238.746 138.819 290.205 123.571C323.577 113.668 346.809 122.128 371.066 131.486C386.531 137.459 401.019 144.518 416.117 152.137C459.327 173.911 489.918 189.079 551.603 186.7C566.42 185.99 581.176 184.326 595.779 181.72C679.11 167.481 767.131 124.145 799.883 159.025M78.5115 344.166C173.094 204.806 242.251 148.779 294.356 131.618C327.855 120.604 352.072 127.23 376.246 135.619C392.087 141.127 406.607 148.06 421.447 155.757C463.897 177.762 494.253 196.436 556.171 194.791C570.967 194.256 585.698 192.576 600.235 189.768C683.899 174.351 771.062 124.769 805.529 157.099M83.3657 352.664C176.48 216.004 245.657 158.696 298.456 139.676C332.146 127.528 357.298 132.305 381.426 139.765C397.695 144.785 412.208 151.591 426.79 159.377C468.495 181.59 498.587 203.806 560.713 202.894C575.486 202.525 590.196 200.83 604.665 197.828C688.69 181.171 774.994 125.38 811.178 155.122M88.2068 361.161C179.807 227.085 249.138 168.642 302.567 147.772C336.422 134.514 362.509 137.417 386.614 143.988C403.221 148.553 417.83 155.211 432.129 163.073C473.086 185.544 502.931 211.252 565.253 211.035C580.002 210.833 594.692 209.121 609.093 205.925C693.479 188.015 778.985 126.082 816.824 153.196M93.0478 369.659C183.245 238.235 252.631 178.588 306.669 155.778C340.714 141.4 367.726 142.403 391.809 148.058C408.798 152.057 423.42 158.678 437.474 166.643C477.672 189.345 507.268 218.559 569.797 219.1C584.522 219.071 599.195 217.342 613.524 213.947C698.261 194.746 782.857 126.614 822.475 151.169M97.9025 378.144C186.634 249.37 256.122 188.598 310.731 163.821C344.954 148.346 372.878 147.423 396.938 152.202C414.307 155.647 428.971 162.206 442.756 170.222C482.219 193.171 511.565 225.902 574.29 227.162C588.994 227.294 603.655 225.548 617.917 221.967C702.947 201.37 786.738 127.235 828.1 149.178M102.73 386.641C244.356 181.93 339.496 146.13 402.18 156.351C470.609 167.507 493.951 232.563 578.882 235.268C678.515 238.427 783.419 124.571 833.773 147.203" stroke="url(#paint0_linear_1_799)" stroke-opacity="0.5" stroke-miterlimit="10"/>
    <defs>
        <linearGradient id="paint0_linear_1_799" x1="461.026" y1="215.117" x2="391.351" y2="-11.9308" gradientUnits="userSpaceOnUse">
            <stop stop-color="#7758F6" stop-opacity="0"/>
            <stop offset="0.572917" stop-color="#365BDD"/>
            <stop offset="1" stop-color="#7758F6" stop-opacity="0"/>
        </linearGradient>
    </defs>
</svg>
