<svg width="610" height="655" viewBox="0 0 610 655" fill="none" xmlns="http://www.w3.org/2000/svg">
    <path d="M139.701 1C240.28 95.6233 260.927 399.387 199.47 457.828C159.178 496.137 49.2797 419.102 13.5013 406.41C-35.2797 389.087 71.105 401.531 119.789 364.834C177.639 321.225 251.431 152.761 324.328 241.416C387.938 318.799 354.175 404.583 412.228 441.969C464.748 475.759 547.578 441.217 609 407.012M136.57 5.52954C231.06 98.8966 250.054 392.387 192.966 449.617C155.558 487.106 51.8041 413.669 18.8462 401.712C-26.8335 385.12 75.1197 396.879 122.339 362.024C178.943 320.223 250.934 159.946 321.328 245.503C384.168 321.766 347.843 408.325 405.152 447.885C456.749 483.218 540.234 451.107 602.025 418.789M133.454 10.0343C221.855 102.145 239.207 385.346 186.485 441.386C151.961 478.054 54.3434 408.212 24.2061 396.989C-18.3585 381.091 79.1492 392.203 124.909 359.182C180.268 319.188 250.453 167.12 318.343 249.565C380.408 324.716 341.385 412.246 398.098 453.782C448.634 490.841 532.899 460.98 595.074 430.547M130.325 14.5771C212.632 105.439 228.364 378.32 179.984 433.188C148.359 469.012 56.8623 402.787 29.5455 392.299C-9.88178 377.029 83.1879 387.533 127.474 356.348C181.65 318.192 249.975 174.295 315.373 253.626C376.648 327.667 334.967 416.079 391.035 459.662C440.635 498.265 525.553 470.857 588.121 442.292M127.2 19.0991C203.465 108.738 217.54 371.25 173.495 424.974C144.774 459.947 59.406 397.344 34.9367 387.551C-1.39957 372.993 87.2297 382.877 130.041 353.515C183.002 317.188 249.491 181.478 312.39 257.689C372.89 330.618 328.617 419.831 383.991 465.566C432.622 505.727 518.236 480.742 581.171 454.051M124.075 23.6208C194.261 112.022 206.727 364.163 166.997 416.755C141.197 450.852 61.9491 391.901 40.2925 382.838C7.11413 368.945 91.2921 378.224 132.606 350.681C184.368 316.182 249.001 188.669 309.409 261.766C369.112 333.58 322.231 423.617 376.926 471.467C424.609 513.189 510.926 490.632 574.215 465.818M120.952 28.1558C185.057 115.306 195.987 356.954 160.501 408.549C137.644 441.739 64.4715 386.421 45.6537 378.116C15.6337 364.855 95.349 373.579 135.167 347.856C185.741 315.18 248.52 195.831 306.404 265.826C365.337 336.52 315.833 427.371 369.852 477.362C416.573 520.599 503.532 500.511 567.244 477.573M117.826 32.6773C175.85 118.576 185.231 349.733 154.011 400.335C134.107 432.603 67.0782 380.986 51.0174 373.407C24.1696 360.74 99.4297 368.949 137.777 345.041C187.202 314.17 247.938 203.155 303.481 269.92C361.477 339.634 309.514 431.144 362.853 483.285C408.658 528.07 496.254 510.423 560.346 489.357M114.701 37.1995C166.646 121.861 174.477 342.444 147.513 392.116C130.537 423.398 69.6826 375.539 56.3789 368.686C32.7864 356.543 103.511 364.32 140.301 342.202C188.525 313.192 247.359 210.308 300.46 273.97C357.663 342.582 303.137 434.867 355.756 489.165C400.626 535.46 488.879 520.292 553.351 501.097M111.584 41.7263C157.447 125.137 163.734 335.07 141.023 383.902C126.96 414.152 72.311 370.073 61.7348 363.972C41.4651 352.272 107.576 359.68 142.867 339.369C189.938 312.217 246.912 217.504 297.505 278.075C353.913 345.586 296.824 438.633 348.724 495.1C392.672 542.904 481.574 530.209 546.43 512.898M108.458 46.248C148.243 128.421 152.961 327.606 134.533 375.688C123.352 404.85 75.013 364.635 67.0513 359.231C50.2784 347.839 111.651 355.058 145.393 336.508C191.325 311.214 246.37 224.67 294.451 282.09C350.051 348.501 290.408 442.294 341.593 500.945C384.64 550.225 474.157 540.037 539.393 524.597M105.327 50.7776C139.044 131.697 142.149 320.046 128.038 367.482C119.704 395.487 76.6704 360.344 72.4596 354.542C57.3123 346.445 115.812 350.497 147.993 333.709C192.801 310.283 245.933 231.886 291.501 286.188C346.321 351.495 284.124 446.034 334.567 506.873C376.699 557.666 466.852 549.954 532.476 536.391M102.21 55.3044C129.832 134.976 131.249 312.378 121.54 359.263C115.992 386.067 79.1644 355.005 77.8155 349.828C65.7227 342.58 119.977 345.948 150.559 330.876C194.261 309.341 245.441 239.063 288.528 290.236C342.554 354.44 277.816 449.722 327.526 512.755C368.759 565.039 459.525 559.82 525.537 548.133M99.0845 59.8266C120.633 138.252 120.226 304.638 115.05 351.049C112.196 376.602 81.6508 349.663 83.2007 345.123C74.16 338.711 124.157 341.41 153.143 328.067C195.768 308.432 244.986 246.254 285.56 294.345C338.796 357.439 271.524 453.457 320.481 518.694C360.826 572.451 452.217 569.758 518.586 559.927M95.9577 64.3469C111.428 141.535 109.041 296.844 108.559 342.834C108.303 367.105 84.1434 344.323 88.5316 340.392C82.5563 334.813 128.301 336.871 155.7 325.192C197.291 307.463 244.499 253.388 282.568 298.367C335.023 360.357 265.222 457.103 313.412 524.546C352.872 579.791 444.854 579.589 511.627 571.645M92.8399 68.8742C102.229 144.812 97.6624 289.08 102.06 334.615C104.294 357.61 86.6293 338.98 93.895 335.684C90.9718 330.941 132.488 332.373 158.244 322.39C198.767 306.683 244.009 260.579 279.562 302.462C331.248 363.332 258.919 460.819 306.338 530.476C344.937 587.19 437.499 589.495 504.655 583.435M89.7146 73.3958C93.0246 148.095 86.0032 281.354 95.5703 326.401C100.185 348.16 89.1233 333.642 99.2563 330.962C99.3931 327.061 136.683 327.914 160.81 319.557C200.307 305.878 243.536 267.746 276.598 306.515C327.505 366.26 252.673 464.469 299.289 536.353C337.026 594.537 430.172 599.361 497.708 595.172M86.5838 77.9251C83.8179 151.366 74.1585 273.813 89.0749 318.195C96.0003 338.787 91.6095 328.299 104.612 326.248C107.809 323.188 140.898 323.493 163.344 316.701C201.844 305.127 243.039 274.897 273.566 310.58C323.709 369.197 246.366 468.158 292.189 542.253C329.071 601.898 422.793 609.25 490.71 606.933M83.466 82.4524C74.6135 154.65 62.1516 266.473 82.5845 309.981C91.7583 329.513 94.4078 324.942 109.968 321.534C116.454 320.11 145.142 319.081 165.943 313.903C203.452 304.508 242.615 282.076 270.616 314.678C319.999 372.159 240.148 471.851 285.154 548.175C321.196 609.293 415.486 619.154 483.785 618.721M80.325 86.9976C65.3991 157.95 50.0462 259.413 76.1103 301.813C87.5358 320.414 96.6859 318.656 115.361 316.869C124.731 315.969 149.358 314.845 168.533 311.12C205.068 304.032 242.171 289.286 267.656 318.792C316.299 375.127 233.931 475.578 278.126 554.124C313.333 616.706 408.166 629.095 476.851 630.525M77.2154 91.4962C56.2106 161.211 37.974 252.539 69.5967 293.549C83.2911 311.313 99.0936 312.669 120.693 312.105C133.067 311.775 153.537 310.527 171.07 308.244C206.623 303.608 241.741 296.356 264.66 322.789C312.658 377.906 227.803 479.125 271.053 559.952C305.514 623.954 400.82 638.903 469.888 642.218M74.0979 96.023C47.0119 164.487 25.952 245.895 63.1067 285.335C111.068 336.314 216.884 275.665 261.668 326.881C308.877 380.888 221.466 482.874 263.985 565.873C297.531 631.389 393.468 648.822 462.921 654" stroke="url(#paint0_linear_1_798)" stroke-opacity="0.4" stroke-miterlimit="10"/>
    <defs>
        <linearGradient id="paint0_linear_1_798" x1="471" y1="508" x2="105.325" y2="111.701" gradientUnits="userSpaceOnUse">
            <stop stop-color="#7758F6" stop-opacity="0"/>
            <stop offset="0.21875" stop-color="#7758F6" stop-opacity="0.18"/>
            <stop offset="0.572917" stop-color="#365BDD" stop-opacity="0.7"/>
            <stop offset="0.770833" stop-color="#7758F6" stop-opacity="0.1"/>
            <stop offset="1" stop-color="#7758F6" stop-opacity="0"/>
        </linearGradient>
    </defs>
</svg>
