<svg width="581" height="491" viewBox="0 0 581 491" fill="none" xmlns="http://www.w3.org/2000/svg">
    <path d="M558.901 82.5052C523.038 26.8306 421.784 27.7572 359.186 57.6087C287.053 92.0167 283.689 156.532 221.192 166.265C164.168 175.164 137.822 125.95 97.1017 135.094C59.6797 143.499 19.9545 198.973 1.15822 391.379M8.48985 396.132C27.219 206.412 66.429 149.743 103.707 139.758C131.352 132.393 152.563 152.4 181.454 162.35C196.013 167.616 211.651 169.184 226.964 166.914C277.138 159.51 290.158 118.559 331.645 84.4C342.203 75.6569 353.752 68.1855 366.054 62.1397C428.467 31.2141 526.46 25.6855 562.616 78.5944M15.8226 400.859C34.4894 213.837 73.1581 155.996 110.225 144.476C137.473 136.01 158.729 154.575 187.21 163.53C201.844 168.33 217.379 169.726 232.633 167.61C282.27 160.716 296.6 122.626 338.517 88.9664C349.158 80.3872 360.658 72.9331 372.834 66.7235C435.163 34.9143 529.79 24.583 566.238 74.7262M23.1353 405.571C41.7333 221.286 79.8964 162.27 116.779 149.164C143.66 139.609 164.91 156.73 193.016 164.686C207.7 169.025 223.127 170.256 238.312 168.302C287.453 161.899 302.996 126.702 345.399 93.5283C356.115 85.0834 367.576 77.6292 379.641 71.2577C441.823 38.4566 533.136 23.4357 569.876 70.8131M30.4716 410.334C48.9931 228.715 86.6189 168.563 123.348 153.858C149.837 143.237 171.131 158.892 198.839 165.823C213.583 169.702 228.926 170.766 244.063 168.96C292.708 163.048 309.499 130.74 352.404 98.0331C363.185 89.7624 374.587 82.334 386.508 75.8141C448.553 42.0163 536.557 22.3159 573.6 66.9229M37.7576 415.096C56.2427 236.149 92.9118 173.846 129.912 158.542C156.31 147.589 177.319 160.982 204.646 166.979C219.437 170.385 234.695 171.281 249.783 169.633C297.932 164.212 315.95 134.803 359.291 102.605C370.133 94.4771 381.487 87.0559 393.283 80.3878C455.173 45.5523 539.882 21.2033 577.221 63.0549M45.136 419.815C63.5074 243.588 100.097 181.222 136.443 163.179C162.173 150.565 183.557 163.124 210.468 168.141C225.293 171.075 240.47 171.808 255.508 170.316C303.162 165.386 322.433 138.851 366.219 107.158C377.128 99.1848 388.44 91.7766 400.109 84.9629C461.862 49.1308 543.243 20.0614 580.889 59.178M52.4629 424.557C70.7363 251.032 106.8 187.5 143.036 167.924C168.333 154.213 189.772 165.164 216.28 169.283C231.127 171.742 246.226 172.305 261.214 170.958C308.366 166.534 328.9 142.894 373.127 111.67C383.424 104.418 394.519 96.8971 406.911 89.4869C468.524 52.6226 546.618 18.9504 584.547 55.2808M59.7898 429.3C78.0213 258.462 113.555 193.891 149.58 172.592C174.499 157.872 196.002 167.209 222.108 170.404C236.975 172.385 252.01 172.788 266.961 171.606C313.616 167.673 335.379 146.906 380.081 116.199C390.486 109.046 401.56 101.56 413.769 94.0226C475.153 56.1791 549.989 17.829 588.205 51.3834M67.1226 434.027C85.2814 265.891 120.301 200.261 156.159 177.306C180.693 161.592 202.293 169.251 227.899 171.58C242.769 173.085 257.739 173.332 272.65 172.318C318.82 168.872 341.83 150.994 386.964 120.735C397.426 113.706 408.51 106.215 420.54 98.5606C481.827 59.6153 553.331 16.646 591.845 47.4449M74.4495 438.77C92.5309 273.325 127.056 206.652 162.692 182.004C186.846 165.306 208.493 171.286 233.7 172.752C248.564 173.767 263.476 173.85 278.349 173C324.013 170.05 348.267 155.051 393.89 125.339C404.47 118.43 415.518 110.943 427.364 103.187C488.481 63.1727 556.694 15.5903 595.521 43.614M81.7764 443.513C99.7954 280.764 133.831 213.034 169.277 186.679C193.066 169.002 214.76 173.277 239.527 173.899C253.762 174.252 268.299 174.528 284.09 173.664C329.253 171.194 354.76 159.094 400.834 129.872C411.506 123.083 422.529 115.595 434.222 107.722C495.169 66.6399 560.101 14.4398 599.215 39.7128M89.1037 448.255C107.075 288.234 140.545 219.468 175.836 191.377C199.256 172.712 221.018 175.247 245.345 175.05C259.701 174.936 274.192 175.034 289.811 174.336C334.492 172.388 361.217 163.142 407.757 134.415C418.527 127.755 429.535 120.261 441.018 112.286C501.775 70.1195 563.447 13.3175 602.857 35.8351M96.4099 453.007C114.31 295.638 147.375 225.862 182.395 196.076C205.459 176.453 227.271 177.207 251.166 176.212C265.643 175.606 280.084 175.54 295.495 175.038C339.676 173.546 367.643 167.229 414.689 138.978C425.557 132.422 436.529 124.933 447.844 116.862C508.412 73.5853 566.813 12.186 606.52 31.9481M103.763 457.725C121.57 303.067 154.144 232.308 188.96 200.759C211.674 180.163 233.52 179.131 256.969 177.358C271.563 176.249 285.982 176.031 301.252 175.682C344.916 174.689 374.147 171.242 421.608 143.511C432.993 136.699 444.022 129.31 454.652 121.37C515.035 77.0452 570.219 11.0605 610.179 28.0506M111.09 462.468C128.834 310.506 160.981 238.687 195.483 205.462C217.852 183.904 239.733 181.06 262.796 178.505C277.502 176.883 291.88 176.522 306.972 176.354C350.151 175.848 380.619 175.295 428.51 148.063C439.957 141.412 450.964 134.031 461.462 125.965C521.628 80.4437 573.554 9.94316 613.833 24.1178M118.417 467.211C136.084 317.94 167.85 245.137 202.078 210.131C224.091 187.64 245.999 182.939 268.598 179.651C283.411 177.506 297.762 177.032 312.682 177.032C355.355 177.022 387.076 179.342 435.454 152.596C446.955 146.093 457.936 138.709 468.298 130.511C528.245 83.9188 576.925 8.82184 617.515 20.2718M125.755 471.948C143.368 325.421 174.624 251.594 208.637 214.83C230.335 191.362 252.224 184.812 274.405 180.808C289.356 178.099 303.65 177.528 318.402 177.704C360.57 178.165 393.539 183.4 442.382 157.149C453.934 150.787 464.89 143.399 475.12 135.075C534.843 87.3526 580.291 7.69012 621.178 16.3847M133.082 476.691C150.557 332.833 181.468 258.043 215.22 219.555C236.593 195.14 258.453 186.721 280.25 182.021C295.283 178.814 309.592 178.086 324.151 178.439C365.832 179.411 400.039 187.514 449.324 161.733C460.926 155.513 471.86 148.12 481.955 139.671C541.449 90.8073 583.741 6.60676 624.86 12.5388M140.408 481.434C157.863 340.253 188.322 264.488 221.76 224.212C242.823 198.831 264.635 188.527 286.038 183.111C301.141 179.299 315.445 178.535 329.852 179.071C371.027 180.538 406.478 191.521 456.237 166.256C467.891 160.182 478.805 152.783 488.762 144.206C548.003 94.1742 587.027 5.43734 628.503 8.61075M147.741 486.161C165.123 347.682 195.201 270.983 228.283 228.915C249.037 202.593 270.78 190.387 291.804 184.286C306.98 179.879 321.292 179.049 335.507 179.736C376.201 181.7 412.9 195.572 463.11 170.797C474.813 164.859 485.711 157.452 495.538 148.754C554.438 97.4967 590.357 4.33481 632.141 4.72274M155.058 490.909C183.14 270.536 243.802 203.079 297.662 185.419C356.457 166.139 401.682 208.087 470.079 175.331C550.309 136.894 586.633 3.58722 635.824 0.82639" stroke="url(#paint0_linear_1_99)" stroke-miterlimit="10"/>
    <defs>
        <linearGradient id="paint0_linear_1_99" x1="369.635" y1="-16.9086" x2="80.6658" y2="383.597" gradientUnits="userSpaceOnUse">
            <stop stop-color="white" stop-opacity="0"/>
            <stop offset="0.484375" stop-color="#365BDD" stop-opacity="0.31"/>
            <stop offset="0.993809" stop-color="white" stop-opacity="0"/>
        </linearGradient>
    </defs>
</svg>
